<svg width="36" height="36" viewBox="0 0 36 36" fill="none" xmlns="http://www.w3.org/2000/svg">
<rect width="36" height="36" rx="18" fill="black"/>
<ellipse cx="12.7839" cy="13.4597" rx="1.45971" ry="1.45971" fill="white"/>
<ellipse cx="23.2097" cy="13.4597" rx="1.45971" ry="1.45971" fill="white"/>
<ellipse cx="10.198" cy="16.0925" rx="1.45971" ry="1.45971" fill="white"/>
<circle cx="12.7839" cy="18.6746" r="1.45971" fill="white"/>
<ellipse cx="23.2097" cy="18.6746" rx="1.45971" ry="1.45971" fill="white"/>
<ellipse cx="7.54974" cy="18.6738" rx="1.06732" ry="1.06732" fill="white"/>
<ellipse cx="10.1337" cy="21.3251" rx="1.06732" ry="1.06732" fill="white"/>
<ellipse cx="15.374" cy="21.3251" rx="1.06732" ry="1.06732" fill="white"/>
<ellipse cx="20.6201" cy="21.3251" rx="1.06732" ry="1.06732" fill="white"/>
<ellipse cx="25.8017" cy="21.3251" rx="1.06732" ry="1.06732" fill="white"/>
<ellipse cx="4.93832" cy="21.325" rx="0.709805" ry="0.709803" fill="white"/>
<ellipse cx="7.54965" cy="23.9217" rx="0.709805" ry="0.709802" fill="white"/>
<ellipse cx="17.9559" cy="23.9217" rx="0.709806" ry="0.709802" fill="white"/>
<ellipse cx="28.4227" cy="23.9217" rx="0.7098" ry="0.709802" fill="white"/>
<ellipse cx="31.0594" cy="21.325" rx="0.709809" ry="0.709803" fill="white"/>
<ellipse cx="17.954" cy="18.6738" rx="1.06732" ry="1.06732" fill="white"/>
<ellipse cx="28.4443" cy="18.6738" rx="1.06732" ry="1.06732" fill="white"/>
<circle cx="15.3718" cy="16.0925" r="1.45971" fill="white"/>
<ellipse cx="20.6081" cy="16.0925" rx="1.45971" ry="1.45971" fill="white"/>
<ellipse cx="25.8464" cy="16.0925" rx="1.45971" ry="1.45971" fill="white"/>
</svg>
