<svg width="36" height="36" viewBox="0 0 36 36" fill="none" xmlns="http://www.w3.org/2000/svg">
<rect x="0.5" y="0.5" width="35" height="35" rx="17.5" fill="white"/>
<path d="M23.6151 17.8781C23.6151 18.8123 22.8548 19.5718 21.9197 19.5718C20.9844 19.5718 20.2285 18.8123 20.2285 17.8781C20.2285 16.9438 20.9886 16.1846 21.9195 16.1846C22.1421 16.1842 22.3625 16.2278 22.5683 16.3128C22.774 16.3977 22.961 16.5224 23.1185 16.6797C23.2759 16.837 23.4009 17.0238 23.4861 17.2294C23.5713 17.4351 23.6151 17.6555 23.6151 17.8781Z" fill="black"/>
<path d="M29.2098 10.6818C28.9752 11.0572 25.8105 16.0316 25.503 16.5051C25.4347 16.6158 25.362 16.7226 25.298 16.8291C25.2553 16.8974 25.2083 16.9656 25.1656 17.0341C24.8368 15.7585 23.7691 14.7773 22.4453 14.5683C22.5051 14.4744 24.3629 11.5393 24.8325 10.7928C24.8837 10.7074 24.935 10.6436 25.0502 10.6436C26.417 10.6478 27.779 10.6478 29.1458 10.6478C29.1584 10.6562 29.1713 10.6689 29.2098 10.6818Z" fill="#3467FE"/>
<path d="M30.0004 25.0961C29.3171 25.9067 28.5483 26.4785 27.5705 26.7089C26.2254 27.0244 24.9485 26.8794 23.7997 26.0517C22.9669 25.4501 22.4585 24.6055 22.0872 23.667C22.0745 23.6372 22.0614 23.6074 22.0487 23.5689C22.0445 23.5605 22.0445 23.552 22.0402 23.5434C21.8921 23.1463 21.7512 22.7466 21.6175 22.3445C21.485 21.9435 21.3569 21.517 21.2715 21.1545C21.485 21.197 21.7027 21.2183 21.9291 21.2183C22.9242 21.2183 23.8166 20.7833 24.4275 20.0963L24.4359 20.0879C24.6621 20.6468 24.8971 21.5212 25.1193 22.1995V22.2037C25.1791 22.3914 25.2387 22.5622 25.2985 22.7072C25.5462 23.3214 25.8069 23.9272 26.3021 24.3838L26.4046 24.4734C27.0495 25.0065 27.8225 25.1473 28.6297 25.173C29.0651 25.1942 29.5008 25.1346 30.0004 25.0961Z" fill="#0217FF"/>
<path d="M19.0886 19.6617C18.2943 20.7708 17.4359 21.8245 16.4239 22.7587C15.5697 23.548 14.6602 24.2518 13.5668 24.6784C13.1482 24.8405 12.7171 24.9301 12.2643 24.9257C10.9918 24.9301 10.0777 24.1324 9.80437 22.8014C9.56531 21.6199 9.68495 20.451 10.0179 19.3117C10.6329 17.2001 11.7135 15.3316 13.1482 13.6723C13.7974 12.9213 14.5448 12.2773 15.5186 11.9657C16.2059 11.748 16.898 11.6842 17.5727 12.0298C18.0895 12.2942 18.4524 12.7252 18.7386 13.2156C19.1486 13.9152 19.4046 14.6704 19.6225 15.4426C20.2428 14.8546 21.0655 14.5277 21.9201 14.5297C22.0994 14.5297 22.2701 14.5423 22.4411 14.5681C22.4538 14.551 22.5265 14.4358 22.6419 14.2523C22.4881 13.9025 22.36 13.5825 22.2148 13.2712C21.7578 12.3029 21.1385 11.4667 20.2416 10.8609C19.1827 10.1486 17.9996 9.91819 16.7314 10.0247C15.1127 10.1613 13.6052 10.6305 12.2301 11.4796C10.0394 12.8317 8.31822 14.6406 7.11405 16.9143C6.34107 18.369 5.89656 19.9177 6.02063 21.5856C6.17873 23.7357 7.26349 25.2757 9.19393 26.2142C10.6972 26.9479 12.2943 27.0119 13.913 26.8115C15.2581 26.6452 16.5266 26.2057 17.6965 25.5275C19.1146 24.7084 20.3443 23.6376 21.4931 22.4729C21.5316 22.4303 21.5572 22.3706 21.6128 22.3449C21.4805 21.9439 21.3524 21.5173 21.2668 21.1548C20.8213 21.0672 20.3983 20.8896 20.0239 20.6328C19.6494 20.3761 19.3312 20.0457 19.0888 19.6617" fill="#0219FA"/>
<rect x="0.5" y="0.5" width="35" height="35" rx="17.5" stroke="#FBFBFD"/>
</svg>
