<svg width="36" height="36" viewBox="0 0 36 36" fill="none" xmlns="http://www.w3.org/2000/svg">
<g clip-path="url(#clip0_1345_32624)">
<mask id="mask0_1345_32624" style="mask-type:alpha" maskUnits="userSpaceOnUse" x="0" y="0" width="36" height="36">
<circle cx="18" cy="18" r="18" fill="#EFEFF4"/>
</mask>
<g mask="url(#mask0_1345_32624)">
<path fill-rule="evenodd" clip-rule="evenodd" d="M1.22625 6.1425C0 8.55 0 11.7 0 18C0 24.3 0 27.45 1.22625 29.8575C2.30625 31.9725 4.0275 33.6937 6.1425 34.7737C8.55 36 11.7 36 18 36C24.3 36 27.45 36 29.8575 34.7737C31.9725 33.6937 33.6937 31.9725 34.7737 29.8575C36 27.45 36 24.3 36 18C36 11.7 36 8.55 34.7737 6.1425C33.6937 4.0275 31.9725 2.30625 29.8575 1.22625C27.45 0 24.3 0 18 0C11.7 0 8.55 0 6.1425 1.22625C4.0275 2.30625 2.30625 4.0275 1.22625 6.1425ZM26.9832 9.70812C27.2982 9.70812 27.5964 9.83753 27.8158 10.0569C28.0351 10.2819 28.1589 10.5857 28.1532 10.895C28.0971 14.2475 27.9676 16.8125 27.7258 18.8431C27.4895 20.8738 27.1351 22.3813 26.6008 23.6019C26.2408 24.4175 25.7964 25.0925 25.2732 25.6663C24.5701 26.4257 23.7658 26.9769 22.8882 27.5001C22.5131 27.7244 22.123 27.9459 21.7139 28.1783C20.8409 28.6741 19.881 29.2192 18.7932 29.9469C18.3995 30.2113 17.8876 30.2113 17.4939 29.9469C16.3895 29.2106 15.4169 28.6588 14.5359 28.1591C14.34 28.0479 14.1487 27.9394 13.9614 27.8319C12.9321 27.2357 12.0039 26.6675 11.1939 25.8463C10.6539 25.3063 10.1871 24.6481 9.81578 23.8663C9.30951 22.82 8.96639 21.5544 8.71327 19.9175C8.37576 17.7294 8.20702 14.8663 8.14514 10.895C8.13951 10.5857 8.25764 10.2819 8.47701 10.0569C8.69639 9.83753 9.00014 9.70812 9.31514 9.70812H9.79892C11.2895 9.7138 14.5801 9.56753 17.4264 7.35128C17.8482 7.02502 18.4389 7.02502 18.8608 7.35128C21.7071 9.56753 24.9976 9.7138 26.4939 9.70812H26.9832ZM24.3675 22.8548C24.7331 22.101 25.0369 21.0604 25.2675 19.5642C25.5431 17.7754 25.712 15.3454 25.7907 12.038C24.0357 11.9873 21.0207 11.6498 18.1463 9.71484C15.2719 11.6442 12.2569 11.9817 10.5075 12.038C10.5694 14.7717 10.6931 16.898 10.89 18.5686C11.115 20.4698 11.4357 21.758 11.835 22.6636C12.0994 23.2654 12.3919 23.6986 12.7407 24.081C13.2075 24.593 13.7981 25.0148 14.6025 25.4986C14.9362 25.6987 15.3041 25.907 15.7045 26.1337C16.418 26.5375 17.2348 26.9998 18.1463 27.5798C19.041 27.0092 19.846 26.5517 20.5512 26.1508C20.7637 26.03 20.9671 25.9144 21.1613 25.8023C22.1513 25.2342 22.8825 24.7617 23.4281 24.2104C23.7938 23.8336 24.0919 23.423 24.3675 22.8548Z" fill="#3375BB"/>
</g>
</g>
<defs>
<clipPath id="clip0_1345_32624">
<rect width="36" height="36" fill="white"/>
</clipPath>
</defs>
</svg>
