<svg id="Layer_1" data-name="Layer 1" xmlns="http://www.w3.org/2000/svg" viewBox="0 0 1474.01 626"><defs><style>.cls-2{fill:#adca5c}</style></defs><path d="M545.44 293.69h35v21.89h-35Zm35.51-.24v-52h75.16v.24q18.24.24 30.16 10.46 12.15 10.22 12.89 25.54.48 15.57-11.68 26-9.24 8.28-23.59 10.22v9.49l1.46 1.21 21.16 16.06q5.12 3.89 16 11.79t19.46 14l8.27 5.84-36 .48q-8.74-6.81-20.18-15.57l-21.36-16.09-7.05-5.35-1.95-1.46-.48-.49a.67.67 0 0 1 .24-.48h-.24v-39.65h11.43q12.89 0 19.21-5.59a11.94 11.94 0 0 0 4.38-9.73q0-6.08-5.35-10.7-6.57-5.6-18.24-5.36h-1.46a20.47 20.47 0 0 0-3.29-.24h-47.55v31.38Zm.24 79.05v-57.16l20.92.24v56.68Zm163.69-79.05v-52h21.41v52Zm.25 79.05v-57.16h20.92v56.92Zm131.1-79.05-29.92.24-22.13-26.75v26.51h-21.41v-51.81h.23v-.24q4.13.24 8.27.24h19.45ZM803 372.5v-57.16h20.91v56.92Zm121.61-23.84.24 38.19L865 315.58l30.4-.24 8.27 9.49v-9.49h20.92Zm-21.16-55.21.24-52h21.41v52Zm39.42 78.81 52.78-56.92h29.43q-24.07 23.84-34.29 35a3.92 3.92 0 0 0-1 .73h89.26v21.43l-116-.24V372Zm120.89-130.86h28.94l-47.91 52.53-28.71-.48 28.22-30.65q-43.78-.24-87.56-.24V241.4Zm151.53 73.94h20.19q-1.48 23.84-21.48 41.35t-44.63 16.54q-27.24-1-44.27-17.51a69.29 69.29 0 0 1-20.67-40.14h20.18q3.66 18.24 16.06 27.49a48 48 0 0 0 28.7 9.48q15.08.26 28.7-10a44.6 44.6 0 0 0 17.22-27.21Zm-90-21.41-20.18-.48q3.15-21.9 21.4-37.7a61.35 61.35 0 0 1 42.08-15.57 72.1 72.1 0 0 1 25.9 4.5 58.2 58.2 0 0 1 19.7 12 71.52 71.52 0 0 1 13.14 16.9 75.9 75.9 0 0 1 7.66 19.83h-20.67q-6.57-16.79-18-25.54a41.26 41.26 0 0 0-26.52-8.51 44.59 44.59 0 0 0-27.24 9.24q-12.4 9.28-17.27 25.33Z" style="fill:#fff"/><path class="cls-2" d="M238.84 375.61v.03l-.35.1.35-.13zm153.62-52.79-22.18 7.6-10.88-9.64 11.53-14.79 21.53 16.83zm-55.83 27.59 107.48 44.69a124 124 0 0 1-205.27-19.49l48.6-12.11 22.39-6.11-20.28 53 46.7-59.95.15-.2Z"/><path class="cls-2" d="M348 192.81a124 124 0 0 0-109.15 182.8l73.73-25.33 3.25-8.52 17-44.55 16.88-44.14 59 64.15 10.59 11.54-14.39 3.77-24.86 6.57 31.7 28.14 32.36 27.86A124 124 0 0 0 348 192.81Zm11.71 51.76-2-12.33-3.11 7.76-15.51-16.85 35.79 6.76 16 49.54Z"/></svg>