<svg version="1.1"
	 xmlns="http://www.w3.org/2000/svg"  x="0" y="0" viewBox="0 0 800 700"
>
	<path  d="M549.7,336.8l-24.9,32l23.6,20.9l48-16.5L549.7,336.8z M549.7,336.8l-24.9,32l23.6,20.9l48-16.5
L549.7,336.8z M500,91.6c-148.3,0-268.6,120.2-268.6,268.6c0,46.1,11.6,89.5,32.1,127.4l159.8-54.9l7-18.4l36.9-96.5l36.6-95.6
l127.8,139l22.9,24.9l-31.2,8.2l-53.8,14.2l68.7,60.9l70.1,60.4c29.5-36.1,49.7-80.1,57.2-128.3c2.1-13.5,3.2-27.3,3.2-41.4
C768.6,211.8,648.3,91.6,500,91.6z M525.4,203.7L521,177l-6.8,16.8l-33.6-36.5l77.6,14.7L593,279.2L525.4,203.7z M549.7,336.8
l-24.9,32l23.6,20.9l48-16.5L549.7,336.8z M474.9,432.8l-0.3,0.4L373.4,563.1l43.9-114.9l-48.6,13.2l-105.3,26.3
c7.5,13.9,16.1,27,25.8,39.2c49.2,62.1,125.2,101.9,210.6,101.9c84,0,159-38.5,208.2-98.9L475.3,433L474.9,432.8z M549.7,336.8
l-24.9,32l23.6,20.9l48-16.5L549.7,336.8z" fill="#424242"/>
</svg>
