<svg width="138" height="40" viewBox="0 0 138 40" fill="none" xmlns="http://www.w3.org/2000/svg">
<path d="M39.5744 23.9424C39.5638 24.0059 39.5479 24.0642 39.5373 24.1277C39.3731 24.9061 39.1613 25.6792 38.9072 26.4311C38.0494 28.9516 36.6938 31.3079 34.8935 33.3254C33.575 34.8027 32.0129 36.1053 30.2391 37.1643C30.2126 37.1802 30.1808 37.2014 30.1543 37.212C29.8684 37.3814 29.5719 37.5456 29.2701 37.7044C29.0635 37.8103 28.857 37.9162 28.6505 38.0168C22.8735 40.7968 16.4241 40.5532 11.0919 37.9109C10.7636 37.7468 10.4406 37.5773 10.1176 37.3973C8.22194 36.3277 6.49573 34.9404 5.01839 33.2724C5.01309 33.2671 5.0078 33.2618 5.0025 33.2565C4.9019 33.1453 4.80129 33.0288 4.70598 32.9123C4.65303 32.8541 4.60537 32.7905 4.55242 32.727C4.49947 32.6635 4.45181 32.6052 4.39886 32.5417C4.34591 32.4781 4.29296 32.4146 4.2453 32.3458C4.1341 32.2028 4.02291 32.0545 3.91171 31.9063C3.85876 31.8321 3.80051 31.758 3.74756 31.6839C3.68402 31.5938 3.62048 31.5091 3.56223 31.4191C3.54634 31.3979 3.53046 31.3715 3.51457 31.3503C3.46692 31.2814 3.41926 31.2126 3.3769 31.1438C3.35042 31.1067 3.32924 31.0696 3.30277 31.0379C3.24452 30.9478 3.18628 30.8578 3.12803 30.7678C3.06449 30.6672 3.00095 30.5666 2.9427 30.466C2.92681 30.4448 2.91622 30.4236 2.90563 30.4024C2.85268 30.3124 2.79444 30.2224 2.74678 30.1324C2.73619 30.1112 2.72031 30.09 2.70971 30.0688C2.65676 29.9788 2.60911 29.8941 2.55616 29.8041C2.54027 29.7776 2.52439 29.7511 2.5085 29.7247C2.47143 29.6558 2.42907 29.5817 2.39201 29.5076C2.36553 29.4546 2.33376 29.407 2.30729 29.354C2.19079 29.1316 2.0743 28.9039 1.9684 28.6762C1.88368 28.5015 1.80425 28.3268 1.72482 28.152C1.59244 27.8555 1.47066 27.5643 1.35416 27.2677C1.33298 27.2095 1.30651 27.1512 1.28533 27.0877C1.25885 27.0189 1.23767 26.9553 1.21119 26.8918C1.17942 26.8123 1.15295 26.7329 1.12647 26.6535C1.08411 26.5317 1.04175 26.4099 0.99939 26.2828C0.941143 26.1134 0.888192 25.9387 0.835241 25.7639C0.835241 25.7586 0.829946 25.748 0.829946 25.7427C0.79288 25.6262 0.761109 25.5098 0.729338 25.388C0.724043 25.3774 0.724043 25.3615 0.718748 25.3509C0.718748 25.3456 0.713453 25.335 0.713453 25.3244C0.697568 25.2609 0.681682 25.2026 0.665797 25.1444C0.655207 25.0967 0.639321 25.0544 0.628731 25.0067C0.623436 24.9908 0.623436 24.9802 0.618141 24.9644C0.602256 24.9008 0.58637 24.8373 0.570484 24.7737L0.5546 24.7102C0.544009 24.6731 0.533419 24.6308 0.528124 24.5937C0.517534 24.5407 0.501648 24.4878 0.491057 24.4348C0.480467 24.3872 0.469877 24.3448 0.459287 24.2972C0.453992 24.2813 0.453992 24.2707 0.448697 24.2548C0.427517 24.1595 0.406336 24.0642 0.39045 23.9636C0.363975 23.8471 0.342794 23.7253 0.321614 23.6088C0.305728 23.5135 0.289843 23.4235 0.273958 23.3282C0.258073 23.2328 0.242187 23.1428 0.231597 23.0475C0.226302 23.021 0.226302 22.9999 0.221007 22.9734C0.210416 22.9098 0.199826 22.8516 0.194531 22.7881C0.183941 22.7245 0.178646 22.6663 0.168055 22.6027C0.16276 22.5392 0.15217 22.4809 0.146874 22.4174C0.120399 22.2162 0.0992185 22.015 0.0833331 21.819C0.078038 21.7449 0.0727427 21.6761 0.0674476 21.6019C0.0621525 21.5278 0.056858 21.4537 0.0515628 21.3796C0.0462677 21.316 0.040972 21.2578 0.040972 21.1942C0.0356768 21.1042 0.0303824 21.0195 0.0250872 20.9295C0.0197921 20.7812 0.0144968 20.6329 0.0092017 20.4847C0.0092017 20.4105 0.00390625 20.3364 0.00390625 20.2623C0.00390625 20.1246 0.00390625 19.9869 0.00390625 19.8493C0.0621526 12.4679 4.21882 5.40417 11.3196 1.98352C21.2638 -2.80328 33.2096 1.37458 37.9964 11.3241C39.9503 15.4172 40.4057 19.8281 39.5744 23.9424Z" fill="#ADCA5C"/>
<path d="M39.5749 23.9424C39.5643 24.0059 39.5485 24.0642 39.5379 24.1277C39.3737 24.9061 39.1619 25.6792 38.9077 26.4311C38.0499 28.9516 36.6944 31.3079 34.894 33.3254C33.7132 34.6491 32.3418 35.8299 30.7956 36.8201C30.6103 36.9366 30.425 37.0531 30.2396 37.1643C30.2132 37.1802 30.1814 37.2014 30.1549 37.212C30.0225 37.2914 29.8902 37.3655 29.7578 37.4397C29.5989 37.5297 29.4348 37.6197 29.2706 37.7044C29.0641 37.8103 28.8576 37.9162 28.6511 38.0168C23.1336 40.675 17.0018 40.5691 11.8126 38.2498C11.569 38.1439 11.3307 38.0274 11.0925 37.9109C11.0766 37.9003 11.0607 37.895 11.0448 37.8845C10.7324 37.7309 10.4253 37.5667 10.1235 37.3973C8.2278 36.3277 6.50159 34.9404 5.02425 33.2724C5.01895 33.2671 5.01366 33.2618 5.00836 33.2565C4.90775 33.1453 4.80715 33.0288 4.71184 32.9123C4.65888 32.8541 4.61123 32.7905 4.55828 32.727C4.50533 32.6635 4.45767 32.6052 4.40472 32.5417C4.35177 32.4781 4.29882 32.4146 4.25116 32.3458C4.13996 32.2028 4.02876 32.0545 3.91757 31.9063C3.86462 31.8321 3.80637 31.758 3.75342 31.6839C3.68988 31.5938 3.62634 31.5091 3.56809 31.4191C3.5522 31.3979 3.53632 31.3715 3.52043 31.3503C3.47278 31.2814 3.42512 31.2126 3.38276 31.1438C3.35628 31.1067 3.3351 31.0696 3.30863 31.0379C3.25038 30.9478 3.19214 30.8578 3.13389 30.7678C3.07035 30.6672 3.00681 30.5666 2.94856 30.466C2.93267 30.4448 2.92208 30.4236 2.91149 30.4024C2.85854 30.3124 2.8003 30.2224 2.75264 30.1324C2.74205 30.1112 2.72616 30.09 2.71557 30.0689C2.66262 29.9788 2.61497 29.8941 2.56202 29.8041C2.54613 29.7776 2.53024 29.7511 2.51436 29.7247C2.47729 29.6558 2.43493 29.5817 2.39787 29.5076C2.37139 29.4546 2.33962 29.407 2.31314 29.354C2.19665 29.1316 2.08016 28.9039 1.97426 28.6762C1.88953 28.5015 1.81011 28.3268 1.73068 28.152C1.5983 27.8555 1.47651 27.5643 1.36002 27.2677C1.33884 27.2095 1.31237 27.1512 1.29119 27.0877C1.26471 27.0189 1.24353 26.9553 1.21705 26.8918C1.18528 26.8124 1.15881 26.7329 1.13233 26.6535C1.08997 26.5317 1.04761 26.4099 1.00525 26.2828C0.947003 26.1134 0.894051 25.9387 0.8411 25.7639C0.8411 25.7586 0.835804 25.748 0.835804 25.7427C0.798739 25.6262 0.766968 25.5098 0.735197 25.388C0.729902 25.3774 0.729903 25.3615 0.724607 25.3509C0.724607 25.3456 0.719312 25.335 0.719312 25.3244C0.703427 25.2609 0.687541 25.2026 0.671656 25.1444C0.661066 25.0967 0.645181 25.0544 0.63459 25.0067C0.629295 24.9908 0.629295 24.9802 0.624 24.9644C0.608114 24.9008 0.592229 24.8373 0.576344 24.7737L0.560458 24.7102C0.549868 24.6731 0.539278 24.6308 0.533983 24.5937C0.523392 24.5407 0.507507 24.4878 0.496917 24.4348C0.486327 24.3872 0.475736 24.3448 0.465146 24.2972C0.459851 24.2813 0.459851 24.2707 0.454556 24.2548C0.433375 24.1595 0.412195 24.0642 0.39631 23.9636C0.369834 23.8471 0.348654 23.7253 0.327473 23.6088C0.311588 23.5135 0.295702 23.4235 0.279816 23.3282C0.263931 23.2328 0.248046 23.1428 0.237456 23.0475C0.232161 23.021 0.23216 22.9999 0.226865 22.9734C0.216275 22.9098 0.205685 22.8516 0.20039 22.7881C0.189799 22.7245 0.184504 22.6663 0.173914 22.6027C0.168619 22.5392 0.158029 22.4809 0.152734 22.4174C0.126258 22.2162 0.105078 22.015 0.0891925 21.8191C0.0838974 21.7449 0.0786021 21.6761 0.0733069 21.602C0.0680118 21.5278 0.0627165 21.4537 0.0574214 21.3796C0.0521263 21.316 0.0468313 21.2578 0.0468313 21.1942C0.0415362 21.1042 0.0362409 21.0195 0.0309458 20.9295C0.0256507 20.7812 0.0203554 20.6329 0.0150603 20.4847C0.0150603 20.4105 0.00976562 20.3364 0.00976562 20.2623C0.00976562 20.1246 0.00976562 19.9869 0.00976562 19.8493C0.068012 12.4679 4.22468 5.40417 11.3254 1.98352C21.2697 -2.80328 33.2155 1.37458 38.0023 11.3241C39.9509 15.4172 40.4063 19.8281 39.5749 23.9424Z" fill="#D6E892"/>
<path d="M39.538 24.0958C39.538 24.1011 39.538 24.1011 39.538 24.0958C39.3738 24.8794 39.162 25.6525 38.9079 26.4044C38.9026 26.4256 38.892 26.4521 38.8814 26.4733C38.0236 28.9726 36.6733 31.3077 34.8889 33.3093C33.5704 34.7919 32.0083 36.0945 30.2344 37.1535C30.2027 37.1694 30.1815 37.1906 30.1497 37.2012C29.8108 37.3759 29.5355 37.5613 29.2548 37.6989C29.0113 37.8207 28.7677 37.9478 28.5877 38.0378C22.8742 40.7913 16.4777 40.5371 11.1879 37.9584C11.1561 37.9425 10.4413 37.5719 10.1183 37.3865C7.95256 36.1634 6.00925 34.5219 4.39953 32.5203C4.34658 32.4568 4.29363 32.3932 4.24598 32.3244C4.13478 32.1814 4.02358 32.0332 3.91238 31.8849C3.85943 31.8108 3.80119 31.7366 3.74823 31.6625C3.68469 31.5725 3.62115 31.4878 3.56291 31.3977C3.54702 31.3766 3.53113 31.3501 3.51525 31.3289C3.46759 31.2601 3.41994 31.1912 3.37758 31.1224C3.3511 31.0853 3.32992 31.0483 3.30344 31.0165C3.2452 30.9265 3.18695 30.8365 3.12871 30.7464C3.06516 30.6458 3.00162 30.5452 2.94338 30.4446C2.92749 30.4234 2.9169 30.4023 2.90631 30.3811C2.85336 30.2911 2.79511 30.201 2.74746 30.111C2.73687 30.0898 2.72098 30.0687 2.71039 30.0475C2.65744 29.9575 2.60978 29.8675 2.55683 29.7827C2.54095 29.7563 2.52506 29.7298 2.50918 29.7033C2.47211 29.6345 2.42975 29.5603 2.39268 29.4862C2.36621 29.4333 2.33444 29.3856 2.30796 29.3326C2.19147 29.1103 2.07498 28.8826 1.96907 28.6549C1.88435 28.4801 1.80492 28.3054 1.7255 28.1307C1.59312 27.8341 1.47133 27.5376 1.35484 27.2411C1.33366 27.1828 1.30718 27.1246 1.286 27.061C1.25953 26.9922 1.23835 26.9287 1.21187 26.8598C1.1801 26.7804 1.15362 26.701 1.12715 26.6215C1.08479 26.4998 1.04243 26.3727 1.00007 26.2509C0.941819 26.0814 0.888867 25.9067 0.835916 25.732C0.835916 25.7267 0.830621 25.7161 0.830621 25.7108C0.793556 25.5943 0.761784 25.4725 0.730014 25.356C0.724719 25.3454 0.724719 25.3295 0.719424 25.3189C0.719424 25.3136 0.714129 25.3031 0.714129 25.2925C0.698244 25.2289 0.682358 25.1707 0.666472 25.1124C0.655882 25.0648 0.639997 25.0171 0.629407 24.9748C0.624112 24.9589 0.624112 24.9483 0.618817 24.9324C0.602931 24.8689 0.587045 24.8053 0.57116 24.7418L0.555275 24.6782C0.544685 24.6412 0.534095 24.5988 0.5288 24.5617C0.518209 24.5088 0.502323 24.4558 0.491733 24.4029C0.481143 24.3552 0.470553 24.3129 0.459963 24.2652C0.454668 24.2493 0.454668 24.2387 0.449373 24.2229C0.428192 24.1275 0.407011 24.0322 0.391126 23.9316C0.36465 23.8151 0.34347 23.6933 0.322289 23.5716C0.306404 23.4762 0.290519 23.3862 0.274634 23.2909C0.232273 23.0473 0.195206 22.8091 0.163436 22.5655C0.15814 22.5019 0.147551 22.4437 0.142255 22.3801C0.11578 22.1789 0.0945995 21.9777 0.0787141 21.7765C0.073419 21.7024 0.0681237 21.6335 0.0628286 21.5594C0.0575334 21.4853 0.0522382 21.4111 0.046943 21.337C0.0416479 21.2735 0.0363529 21.2152 0.0363529 21.1517C0.0310578 21.0617 0.0257625 20.9769 0.0204674 20.8869C-0.0854351 18.5677 0.221682 16.2696 0.894163 14.0827C0.99477 13.7544 1.10597 13.4261 1.22246 13.1031C2.43504 9.79364 4.51603 6.7966 7.33303 4.49852C8.52444 3.52421 9.84822 2.67699 11.2885 1.98333C13.6819 0.828996 16.1918 0.177695 18.6911 0.0400222C20.7562 -0.0711754 22.2017 0.0506128 23.9068 0.389501C27.4916 1.09905 30.8434 2.7776 33.5492 5.30338C31.2617 3.97959 16.8801 -0.24062 26.8773 8.57047L26.8826 8.57576C26.9409 8.62871 26.9991 8.68166 27.0627 8.73462C27.015 8.70284 26.9621 8.67637 26.9144 8.66048C26.8456 8.6393 26.7767 8.63401 26.7079 8.64989C21.0739 6.47889 14.0737 11.361 13.4595 17.6887C13.343 18.9065 13.3536 21.7236 15.2175 23.2009C17.2084 24.7841 19.9407 24.2705 21.7728 22.0942C21.8364 22.0201 21.9476 22.0201 22.0058 22.0942C22.2971 22.449 22.6148 22.7561 22.9536 23.0209C23.7585 23.651 24.6746 24.0058 25.6224 24.0534H25.6277C27.1156 23.9687 28.2594 22.5867 28.6088 22.1101C28.6671 22.0307 28.7836 22.0254 28.8471 22.1048C31.0552 24.71 34.4017 24.71 36.6045 22.0942C36.6627 22.0201 36.7792 22.0201 36.8375 22.0942C37.4941 22.8885 38.2777 23.4604 39.125 23.7781C39.3791 24.0058 39.5274 24.117 39.538 24.0958C39.538 24.1011 39.538 24.1011 39.538 24.0958Z" fill="#ADCA5C"/>
<path d="M39.5803 23.9419C39.5697 24.0054 39.5538 24.0637 39.5432 24.1272C39.3791 24.9056 39.1673 25.6787 38.9131 26.4306C38.9078 26.4465 38.8972 26.4623 38.8866 26.4729C38.0129 28.0456 35.9955 30.206 31.3834 32.287C29.6254 33.0812 27.984 33.6372 26.4484 34.0079C26.2366 34.0556 26.0301 34.1032 25.8235 34.1456C25.7971 34.1667 25.7653 34.1773 25.7282 34.1773C25.7123 34.1773 25.6965 34.1773 25.6753 34.1773C25.6223 34.1879 25.5694 34.1985 25.5164 34.2091C24.2456 34.458 23.0489 34.5745 21.9369 34.5851C20.2107 34.6062 18.6804 34.3733 17.3302 34.0079C17.1978 33.9708 17.0654 33.9338 16.933 33.8914C16.9277 33.8914 16.9171 33.8861 16.9066 33.8861C16.8377 33.8649 16.7742 33.8437 16.7053 33.8226C16.7053 33.8226 16.7053 33.8226 16.7 33.8226C16.6312 33.8014 16.5624 33.7802 16.4988 33.759C16.4724 33.7537 16.4512 33.7431 16.4247 33.7325C16.4141 33.7273 16.4035 33.7273 16.3876 33.722C16.3717 33.7167 16.3612 33.7114 16.3506 33.7114C16.3188 33.7008 16.287 33.6902 16.2553 33.6796C16.2182 33.669 16.1811 33.6531 16.1441 33.6372C16.1123 33.6266 16.0858 33.6161 16.0593 33.6055C16.017 33.5896 15.9746 33.5737 15.9375 33.5578C15.9111 33.5472 15.8899 33.5419 15.8634 33.5313C15.8422 33.526 15.8264 33.5154 15.8052 33.5102C15.7893 33.5049 15.7734 33.4996 15.7628 33.4943C15.7363 33.4837 15.7152 33.4731 15.6887 33.4625C15.6093 33.4307 15.5298 33.399 15.4557 33.3672C15.4451 33.3619 15.4345 33.3566 15.4239 33.3566C15.3974 33.346 15.3763 33.3354 15.3498 33.3248C15.3021 33.3036 15.2545 33.2878 15.2121 33.2666C15.1856 33.256 15.1645 33.2454 15.138 33.2348C15.1115 33.2242 15.085 33.2136 15.0586 33.1977C15.0215 33.1819 14.9844 33.166 14.9527 33.1501C14.9156 33.1342 14.8838 33.1183 14.8468 33.1024C14.8309 33.0971 14.815 33.0865 14.7938 33.076C14.7514 33.0548 14.7091 33.0389 14.6667 33.0177C14.6508 33.0071 14.6297 33.0018 14.6138 32.9912C14.5767 32.9753 14.5396 32.9542 14.5026 32.9383C14.4337 32.9065 14.3702 32.8694 14.3066 32.8377C14.2961 32.8324 14.2855 32.8271 14.2749 32.8218C14.2484 32.8112 14.2272 32.7953 14.2007 32.7847C14.1849 32.7794 14.169 32.7688 14.1584 32.7635C14.1054 32.7371 14.0578 32.7106 14.0048 32.6841C13.9307 32.6418 13.8566 32.6047 13.7824 32.5623C13.7718 32.557 13.756 32.5464 13.7454 32.5411C13.7083 32.52 13.6712 32.4988 13.6395 32.4829C13.6183 32.467 13.5918 32.4564 13.5706 32.4405C13.5547 32.4299 13.5389 32.4247 13.523 32.4141C13.5071 32.4035 13.4912 32.3982 13.4806 32.3876C13.4647 32.377 13.4488 32.3717 13.4382 32.3611C13.4012 32.3399 13.3641 32.3188 13.3271 32.2923C13.2741 32.2605 13.2264 32.2287 13.1735 32.2023C13.1576 32.1917 13.1417 32.1811 13.1258 32.1705C13.1152 32.1652 13.11 32.1599 13.0994 32.1546C13.0994 32.1546 13.0994 32.1546 13.0941 32.1546C13.0676 32.1387 13.0464 32.1228 13.0199 32.1069L12.9935 32.0911C12.9458 32.0593 12.8981 32.0328 12.8505 32.001C12.8452 32.001 12.8452 31.9957 12.8399 31.9957C12.8346 31.9905 12.824 31.9852 12.8187 31.9799C11.9556 31.4186 11.2778 30.8679 10.7854 30.4443C10.7801 30.439 10.7748 30.439 10.7695 30.4337C10.7642 30.4284 10.7642 30.4284 10.7589 30.4231C10.706 30.3754 10.653 30.3331 10.6054 30.2907C9.68401 29.4806 8.85797 28.5327 8.1696 27.4578C7.86778 26.9919 7.59773 26.5047 7.34886 25.9964C6.49634 24.2225 6.06214 22.3586 6.00919 20.5106C5.91388 17.1006 7.11058 13.7593 9.361 11.1859C10.5312 9.85154 11.9821 8.72368 13.6818 7.90294C13.7771 7.86058 13.8672 7.81292 13.9625 7.77056C14.6879 7.46344 15.3869 7.21457 16.0593 7.01865C16.0593 7.01865 16.0646 7.01865 16.0699 7.01865C22.2176 5.23949 26.0142 7.95059 26.872 8.66014L26.8773 8.66543C26.8879 8.67073 26.8985 8.68132 26.9037 8.68661C26.9938 8.76075 27.0414 8.8084 27.052 8.81899C26.9355 8.76604 26.8137 8.71839 26.6972 8.67073C21.0632 6.49973 14.0631 11.3818 13.4488 17.7095C13.3323 18.9274 13.3429 21.7444 15.2068 23.2217C17.1978 24.805 19.9301 24.2913 21.7622 22.115C21.8257 22.0409 21.9369 22.0409 21.9952 22.115C22.2864 22.4698 22.6041 22.7769 22.943 23.0417C23.7479 23.6718 24.6639 24.0266 25.6117 24.0742H25.617C27.105 23.9895 28.2487 22.6075 28.5982 22.1309C28.6564 22.0515 28.7729 22.0462 28.8365 22.1256C31.0445 24.7308 34.3911 24.7308 36.5938 22.115C36.6521 22.0409 36.7686 22.0409 36.8268 22.115C37.4834 22.9093 38.2671 23.4812 39.1143 23.7989C39.2732 23.8571 39.4267 23.9048 39.5803 23.9419Z" fill="#A1B755"/>
<path d="M28.0311 34.4439L27.8246 34.2585L27.5492 34.015L26.988 33.5172L23.6679 30.5678C23.5567 30.4725 23.5673 30.3084 23.6573 30.2184C23.6838 30.1919 23.7209 30.1707 23.7632 30.1601L24.6581 29.9218L26.988 29.3076L27.0197 29.297L28.7724 28.8363C28.9472 28.7887 29.0107 28.5769 28.8889 28.4445L27.5863 27.0254L26.988 26.3741L25.5212 24.775L23.0325 22.0692L19.0929 17.7854C18.9711 17.653 18.754 17.6954 18.6905 17.8595L16.5777 23.3876L16.3236 24.0495L16.2547 24.2349L16.2442 24.2613L13.7978 30.6631L13.4219 31.648L13.353 31.8228C13.3265 31.8916 13.2736 31.9393 13.2048 31.9657L7.54956 33.9091C7.25833 34.0097 7.3907 34.4439 7.68723 34.3697L9.58289 33.8985L12.4528 33.1148C12.6435 33.0618 12.8076 33.2472 12.7388 33.4325L11.2244 37.3985L11.039 37.8963C11.3568 38.0763 11.8068 38.2616 11.8068 38.2616L15.937 33.1095L16.8266 31.9657H16.8319L20.5544 33.549L23.0272 34.6027L29.7414 37.4568C29.8738 37.3827 30.0062 37.3085 30.1386 37.2291C30.165 37.2132 30.1968 37.1973 30.2233 37.1814C30.4086 37.0702 30.5992 36.9538 30.7793 36.8373L28.0311 34.4439ZM22.0158 28.9369C21.9841 28.9475 21.9576 28.9528 21.9258 28.9475C21.9152 28.9475 21.9046 28.9475 21.894 28.9475C21.8517 28.9422 21.8093 28.921 21.7776 28.8893L20.4379 27.6979C20.3426 27.6132 20.332 27.4702 20.4061 27.3696L21.8305 25.5428C21.9099 25.4369 22.0635 25.421 22.1694 25.5004L24.2345 27.1154L24.8275 27.5761C24.9758 27.6926 24.9387 27.9309 24.7587 27.9891L23.8321 28.3068L22.0158 28.9369Z" fill="#444444"/>
<path d="M19.0497 15.2594L19.198 16.1702C19.2033 16.2178 19.2245 16.2549 19.2562 16.292L23.0846 20.5704C23.2594 20.761 23.5718 20.581 23.4923 20.3374L21.5067 14.2004C21.4802 14.1157 21.4114 14.0574 21.3213 14.0362L16.8576 13.189C16.6299 13.1467 16.4816 13.4167 16.6352 13.5862L18.1919 15.2806C18.3137 15.413 18.5255 15.3706 18.5891 15.2065C18.6791 14.9841 19.0074 15.0211 19.0497 15.2594Z" fill="#444444"/>
<path d="M30.7952 17.2593C32.5147 17.2593 33.9087 15.8653 33.9087 14.1458C33.9087 12.4262 32.5147 11.0322 30.7952 11.0322C29.0756 11.0322 27.6816 12.4262 27.6816 14.1458C27.6816 15.8653 29.0756 17.2593 30.7952 17.2593Z" fill="#FF7676"/>
<path d="M49.9707 17.469H50.1556H50.684C50.9306 17.469 51.1948 17.469 51.4589 17.469C51.7231 17.469 51.9785 17.469 52.2163 17.469C52.454 17.469 52.7006 17.469 52.9648 17.469C53.2202 17.469 53.4844 17.469 53.7574 17.469H54.2505H54.4354V20.2606H54.2505H53.7574C53.4844 20.2606 53.229 20.2606 52.9648 20.2606C52.7094 20.2606 52.454 20.2606 52.2163 20.2606C51.9785 20.2606 51.7231 20.2606 51.4589 20.2606C51.186 20.2606 50.9306 20.2606 50.684 20.2606H50.1909H49.9707V17.469ZM54.4971 17.4426V10.8027H57.227C57.7642 10.8027 58.636 10.8027 59.8336 10.8027H62.7485C62.951 10.8027 63.1447 10.8027 63.3032 10.8027C63.4706 10.8027 63.6026 10.8027 63.7083 10.8027H63.9901H64.087V10.838C65.6369 10.8556 66.9226 11.3047 67.9353 12.1677C68.9656 13.0395 69.5204 14.1227 69.582 15.426C69.6261 16.7469 69.1241 17.8565 68.0938 18.7459C67.31 19.4504 66.3061 19.8819 65.0821 20.0492V21.2557L65.267 21.4142L67.9617 23.4572C68.3932 23.7918 69.0801 24.2938 70.0047 24.963C70.9382 25.6323 71.766 26.2311 72.4881 26.7507L73.5448 27.4992L68.9568 27.5609C68.2083 26.9797 67.3541 26.3192 66.3854 25.5795L63.6555 23.5364L62.7573 22.8584L62.5107 22.6734L62.449 22.6118C62.449 22.5942 62.4578 22.5678 62.4843 22.5502H62.449V22.33V21.7752V20.014V18.2792V17.6892V17.469H63.7788C63.8228 17.469 63.858 17.469 63.9021 17.469C64.994 17.469 65.813 17.2312 66.3502 16.7557C66.7464 16.4035 66.9314 15.9896 66.905 15.514C66.905 14.9945 66.676 14.5454 66.2269 14.1491C65.6721 13.6735 64.8972 13.4446 63.9021 13.471C63.858 13.471 63.8052 13.471 63.7435 13.471H63.7083C63.585 13.4534 63.4441 13.4358 63.2856 13.4358C63.1271 13.4358 62.951 13.4358 62.7396 13.4358C61.8502 13.4358 60.8815 13.4358 59.8248 13.4358C58.7945 13.4358 57.9227 13.4358 57.2182 13.4358V17.4338H54.4971V17.4426ZM54.5323 27.5256V20.2341L57.2006 20.2694V27.4992L54.5323 27.5256Z" fill="#454444"/>
<path d="M75.4121 17.4426V10.8027H78.142V17.4426H75.4121ZM75.4385 27.5256V20.2341H78.1068V27.4904L75.4385 27.5256Z" fill="#454444"/>
<path d="M92.1608 17.4426L88.3477 17.4778L85.5209 14.0698V17.4514H82.791V10.8468H82.8262V10.8115C83.1785 10.8292 83.5307 10.8468 83.883 10.8468C84.4378 10.8468 84.9926 10.8468 85.5297 10.8468H86.3663L92.1608 17.4426ZM82.8174 27.5256V20.2341H85.4857V27.4904L82.8174 27.5256ZM98.3339 24.4787L98.3691 29.3485L90.7342 20.2606L94.6089 20.2253L95.6656 21.4318V20.2253H98.3339V24.4787ZM95.6304 17.4426L95.6656 10.8027H98.3955V17.4426H95.6304Z" fill="#454444"/>
<path d="M100.658 27.4904L107.386 20.2341H111.138C109.095 22.2596 107.633 23.7478 106.761 24.6989C106.717 24.7165 106.682 24.7517 106.638 24.7957C110.442 24.7957 114.237 24.7957 118.024 24.7957V27.5256L103.23 27.4904V27.4552L100.658 27.4904ZM116.069 10.8027H119.759L113.647 17.5042L109.984 17.4426L113.586 13.5326C109.861 13.515 106.144 13.4974 102.419 13.4974V10.8027C106.972 10.8027 111.525 10.8027 116.069 10.8027Z" fill="#454444"/>
<path d="M135.399 20.2342H137.97C137.847 22.2596 136.931 24.0209 135.222 25.5091C133.514 26.9973 131.621 27.7018 129.534 27.6226C127.218 27.5433 125.333 26.7948 123.889 25.3858C122.445 23.9768 121.564 22.2772 121.256 20.2694H123.827C124.135 21.8193 124.822 22.9905 125.87 23.7743C126.927 24.558 128.142 24.9631 129.534 24.9807C130.819 24.9983 132.035 24.5757 133.197 23.7126C134.351 22.8408 135.09 21.6784 135.399 20.2342ZM123.924 17.5043L121.353 17.4427C121.626 15.5846 122.533 13.9818 124.083 12.6345C125.633 11.2872 127.42 10.6267 129.446 10.6531C130.643 10.6531 131.744 10.8468 132.748 11.2255C133.752 11.6042 134.588 12.1237 135.258 12.7578C135.927 13.4006 136.491 14.1139 136.931 14.9153C137.371 15.7078 137.697 16.5532 137.908 17.4427H135.275C134.72 16.0161 133.954 14.9329 132.977 14.1844C132.008 13.4359 130.881 13.0748 129.595 13.1012C128.336 13.1012 127.174 13.4975 126.117 14.2812C125.069 15.065 124.338 16.1393 123.924 17.5043Z" fill="#454444"/>
</svg>
