<svg width="137" height="40" viewBox="0 0 137 40" fill="none" xmlns="http://www.w3.org/2000/svg">
<path d="M39.5753 23.9424C39.5648 24.0059 39.5489 24.0642 39.5383 24.1277C39.3741 24.9061 39.1623 25.6792 38.9082 26.4311C38.0504 28.9516 36.6948 31.3079 34.8945 33.3254C33.576 34.8027 32.0139 36.1053 30.24 37.1643C30.2136 37.1802 30.1818 37.2014 30.1553 37.212C29.8694 37.3814 29.5729 37.5456 29.271 37.7044C29.0645 37.8103 28.858 37.9162 28.6515 38.0168C22.8745 40.7968 16.4251 40.5532 11.0929 37.9109C10.7646 37.7468 10.4416 37.5773 10.1186 37.3973C8.22292 36.3277 6.4967 34.9404 5.01936 33.2724C5.01407 33.2671 5.00878 33.2618 5.00348 33.2565C4.90287 33.1453 4.80227 33.0288 4.70695 32.9123C4.654 32.8541 4.60635 32.7905 4.55339 32.727C4.50044 32.6635 4.45279 32.6052 4.39984 32.5417C4.34688 32.4781 4.29393 32.4146 4.24628 32.3458C4.13508 32.2028 4.02388 32.0545 3.91268 31.9063C3.85973 31.8321 3.80149 31.758 3.74854 31.6839C3.68499 31.5938 3.62145 31.5091 3.56321 31.4191C3.54732 31.3979 3.53144 31.3715 3.51555 31.3503C3.46789 31.2814 3.42024 31.2126 3.37788 31.1438C3.3514 31.1067 3.33022 31.0696 3.30375 31.0379C3.2455 30.9478 3.18725 30.8578 3.12901 30.7678C3.06546 30.6672 3.00192 30.5666 2.94368 30.466C2.92779 30.4448 2.9172 30.4236 2.90661 30.4024C2.85366 30.3124 2.79541 30.2224 2.74776 30.1324C2.73717 30.1112 2.72128 30.09 2.71069 30.0688C2.65774 29.9788 2.61008 29.8941 2.55713 29.8041C2.54125 29.7776 2.52536 29.7511 2.50948 29.7247C2.47241 29.6558 2.43005 29.5817 2.39298 29.5076C2.36651 29.4546 2.33474 29.407 2.30826 29.354C2.19177 29.1316 2.07528 28.9039 1.96937 28.6762C1.88465 28.5015 1.80522 28.3268 1.7258 28.152C1.59342 27.8555 1.47163 27.5643 1.35514 27.2677C1.33396 27.2095 1.30748 27.1512 1.2863 27.0877C1.25983 27.0189 1.23865 26.9553 1.21217 26.8918C1.1804 26.8123 1.15392 26.7329 1.12745 26.6535C1.08509 26.5317 1.04273 26.4099 1.00037 26.2828C0.94212 26.1134 0.889168 25.9387 0.836217 25.7639C0.836217 25.7586 0.830922 25.748 0.830922 25.7427C0.793857 25.6262 0.762085 25.5098 0.730315 25.388C0.72502 25.3774 0.72502 25.3615 0.719725 25.3509C0.719725 25.3456 0.71443 25.335 0.71443 25.3244C0.698545 25.2609 0.682659 25.2026 0.666773 25.1444C0.656183 25.0967 0.640298 25.0544 0.629708 25.0067C0.624412 24.9908 0.624413 24.9802 0.619117 24.9644C0.603232 24.9008 0.587346 24.8373 0.571461 24.7737L0.555576 24.7102C0.544986 24.6731 0.534396 24.6308 0.529101 24.5937C0.51851 24.5407 0.502624 24.4878 0.492034 24.4348C0.481444 24.3872 0.470854 24.3448 0.460264 24.2972C0.454969 24.2813 0.454969 24.2707 0.449674 24.2548C0.428493 24.1595 0.407312 24.0642 0.391427 23.9636C0.364951 23.8471 0.343771 23.7253 0.32259 23.6088C0.306705 23.5135 0.29082 23.4235 0.274934 23.3282C0.259049 23.2328 0.243164 23.1428 0.232573 23.0475C0.227278 23.021 0.227278 22.9999 0.221983 22.9734C0.211393 22.9098 0.200803 22.8516 0.195508 22.7881C0.184917 22.7245 0.179622 22.6663 0.169032 22.6027C0.163737 22.5392 0.153146 22.4809 0.147851 22.4174C0.121375 22.2162 0.100195 22.015 0.0843097 21.819C0.0790145 21.7449 0.0737193 21.6761 0.0684241 21.6019C0.063129 21.5278 0.0578345 21.4537 0.0525394 21.3796C0.0472443 21.316 0.0419485 21.2578 0.0419485 21.1942C0.0366534 21.1042 0.0313589 21.0195 0.0260638 20.9295C0.0207687 20.7812 0.0154734 20.6329 0.0101783 20.4847C0.0101783 20.4105 0.00488281 20.3364 0.00488281 20.2623C0.00488281 20.1246 0.00488281 19.9869 0.00488281 19.8493C0.0631292 12.4679 4.2198 5.40417 11.3206 1.98352C21.2648 -2.80328 33.2106 1.37458 37.9974 11.3241C39.9513 15.4172 40.4067 19.8281 39.5753 23.9424Z" fill="#ADCA5C"/>
<path d="M39.5749 23.9424C39.5643 24.0059 39.5485 24.0642 39.5379 24.1277C39.3737 24.9061 39.1619 25.6792 38.9077 26.4311C38.0499 28.9516 36.6944 31.3079 34.894 33.3254C33.7132 34.6491 32.3418 35.8299 30.7956 36.8201C30.6103 36.9366 30.425 37.0531 30.2396 37.1643C30.2132 37.1802 30.1814 37.2014 30.1549 37.212C30.0225 37.2914 29.8902 37.3655 29.7578 37.4397C29.5989 37.5297 29.4348 37.6197 29.2706 37.7044C29.0641 37.8103 28.8576 37.9162 28.6511 38.0168C23.1336 40.675 17.0018 40.5691 11.8126 38.2498C11.569 38.1439 11.3307 38.0274 11.0925 37.9109C11.0766 37.9003 11.0607 37.895 11.0448 37.8845C10.7324 37.7309 10.4253 37.5667 10.1235 37.3973C8.2278 36.3277 6.50159 34.9404 5.02425 33.2724C5.01895 33.2671 5.01366 33.2618 5.00836 33.2565C4.90775 33.1453 4.80715 33.0288 4.71184 32.9123C4.65888 32.8541 4.61123 32.7905 4.55828 32.727C4.50533 32.6635 4.45767 32.6052 4.40472 32.5417C4.35177 32.4781 4.29882 32.4146 4.25116 32.3458C4.13996 32.2028 4.02876 32.0545 3.91757 31.9063C3.86462 31.8321 3.80637 31.758 3.75342 31.6839C3.68988 31.5938 3.62634 31.5091 3.56809 31.4191C3.5522 31.3979 3.53632 31.3715 3.52043 31.3503C3.47278 31.2814 3.42512 31.2126 3.38276 31.1438C3.35628 31.1067 3.3351 31.0696 3.30863 31.0379C3.25038 30.9478 3.19214 30.8578 3.13389 30.7678C3.07035 30.6672 3.00681 30.5666 2.94856 30.466C2.93267 30.4448 2.92208 30.4236 2.91149 30.4024C2.85854 30.3124 2.8003 30.2224 2.75264 30.1324C2.74205 30.1112 2.72616 30.09 2.71557 30.0689C2.66262 29.9788 2.61497 29.8941 2.56202 29.8041C2.54613 29.7776 2.53024 29.7511 2.51436 29.7247C2.47729 29.6558 2.43493 29.5817 2.39787 29.5076C2.37139 29.4546 2.33962 29.407 2.31314 29.354C2.19665 29.1316 2.08016 28.9039 1.97426 28.6762C1.88953 28.5015 1.81011 28.3268 1.73068 28.152C1.5983 27.8555 1.47651 27.5643 1.36002 27.2677C1.33884 27.2095 1.31237 27.1512 1.29119 27.0877C1.26471 27.0189 1.24353 26.9553 1.21705 26.8918C1.18528 26.8124 1.15881 26.7329 1.13233 26.6535C1.08997 26.5317 1.04761 26.4099 1.00525 26.2828C0.947003 26.1134 0.894051 25.9387 0.8411 25.7639C0.8411 25.7586 0.835804 25.748 0.835804 25.7427C0.798739 25.6262 0.766968 25.5098 0.735197 25.388C0.729902 25.3774 0.729903 25.3615 0.724607 25.3509C0.724607 25.3456 0.719312 25.335 0.719312 25.3244C0.703427 25.2609 0.687541 25.2026 0.671656 25.1444C0.661066 25.0967 0.645181 25.0544 0.63459 25.0067C0.629295 24.9908 0.629295 24.9802 0.624 24.9644C0.608114 24.9008 0.592229 24.8373 0.576344 24.7737L0.560458 24.7102C0.549868 24.6731 0.539278 24.6308 0.533983 24.5937C0.523392 24.5407 0.507507 24.4878 0.496917 24.4348C0.486327 24.3872 0.475736 24.3448 0.465146 24.2972C0.459851 24.2813 0.459851 24.2707 0.454556 24.2548C0.433375 24.1595 0.412195 24.0642 0.39631 23.9636C0.369834 23.8471 0.348654 23.7253 0.327473 23.6088C0.311588 23.5135 0.295702 23.4235 0.279816 23.3282C0.263931 23.2328 0.248046 23.1428 0.237456 23.0475C0.232161 23.021 0.23216 22.9999 0.226865 22.9734C0.216275 22.9098 0.205685 22.8516 0.20039 22.7881C0.189799 22.7245 0.184504 22.6663 0.173914 22.6027C0.168619 22.5392 0.158029 22.4809 0.152734 22.4174C0.126258 22.2162 0.105078 22.015 0.0891925 21.8191C0.0838974 21.7449 0.0786021 21.6761 0.0733069 21.602C0.0680118 21.5278 0.0627165 21.4537 0.0574214 21.3796C0.0521263 21.316 0.0468313 21.2578 0.0468313 21.1942C0.0415362 21.1042 0.0362409 21.0195 0.0309458 20.9295C0.0256507 20.7812 0.0203554 20.6329 0.0150603 20.4847C0.0150603 20.4105 0.00976562 20.3364 0.00976562 20.2623C0.00976562 20.1246 0.00976562 19.9869 0.00976562 19.8493C0.068012 12.4679 4.22468 5.40417 11.3254 1.98352C21.2697 -2.80328 33.2155 1.37458 38.0023 11.3241C39.9509 15.4172 40.4063 19.8281 39.5749 23.9424Z" fill="#D6E892"/>
<path d="M39.538 24.0958C39.538 24.1011 39.538 24.1011 39.538 24.0958C39.3738 24.8794 39.162 25.6525 38.9079 26.4044C38.9026 26.4256 38.892 26.4521 38.8814 26.4733C38.0236 28.9726 36.6733 31.3077 34.8889 33.3093C33.5704 34.7919 32.0083 36.0945 30.2344 37.1535C30.2027 37.1694 30.1815 37.1906 30.1497 37.2012C29.8108 37.3759 29.5355 37.5613 29.2548 37.6989C29.0113 37.8207 28.7677 37.9478 28.5877 38.0378C22.8742 40.7913 16.4777 40.5371 11.1879 37.9584C11.1561 37.9425 10.4413 37.5719 10.1183 37.3865C7.95256 36.1634 6.00925 34.5219 4.39953 32.5203C4.34658 32.4568 4.29363 32.3932 4.24598 32.3244C4.13478 32.1814 4.02358 32.0332 3.91238 31.8849C3.85943 31.8108 3.80119 31.7366 3.74823 31.6625C3.68469 31.5725 3.62115 31.4878 3.56291 31.3977C3.54702 31.3766 3.53113 31.3501 3.51525 31.3289C3.46759 31.2601 3.41994 31.1912 3.37758 31.1224C3.3511 31.0853 3.32992 31.0483 3.30344 31.0165C3.2452 30.9265 3.18695 30.8365 3.12871 30.7464C3.06516 30.6458 3.00162 30.5452 2.94338 30.4446C2.92749 30.4234 2.9169 30.4023 2.90631 30.3811C2.85336 30.2911 2.79511 30.201 2.74746 30.111C2.73687 30.0898 2.72098 30.0687 2.71039 30.0475C2.65744 29.9575 2.60978 29.8675 2.55683 29.7827C2.54095 29.7563 2.52506 29.7298 2.50918 29.7033C2.47211 29.6345 2.42975 29.5603 2.39268 29.4862C2.36621 29.4333 2.33444 29.3856 2.30796 29.3326C2.19147 29.1103 2.07498 28.8826 1.96907 28.6549C1.88435 28.4801 1.80492 28.3054 1.7255 28.1307C1.59312 27.8341 1.47133 27.5376 1.35484 27.2411C1.33366 27.1828 1.30718 27.1246 1.286 27.061C1.25953 26.9922 1.23835 26.9287 1.21187 26.8598C1.1801 26.7804 1.15362 26.701 1.12715 26.6215C1.08479 26.4998 1.04243 26.3727 1.00007 26.2509C0.941819 26.0814 0.888867 25.9067 0.835916 25.732C0.835916 25.7267 0.830621 25.7161 0.830621 25.7108C0.793556 25.5943 0.761784 25.4725 0.730014 25.356C0.724719 25.3454 0.724719 25.3295 0.719424 25.3189C0.719424 25.3136 0.714129 25.3031 0.714129 25.2925C0.698244 25.2289 0.682358 25.1707 0.666472 25.1124C0.655882 25.0648 0.639997 25.0171 0.629407 24.9748C0.624112 24.9589 0.624112 24.9483 0.618817 24.9324C0.602931 24.8689 0.587045 24.8053 0.57116 24.7418L0.555275 24.6782C0.544685 24.6412 0.534095 24.5988 0.5288 24.5617C0.518209 24.5088 0.502323 24.4558 0.491733 24.4029C0.481143 24.3552 0.470553 24.3129 0.459963 24.2652C0.454668 24.2493 0.454668 24.2387 0.449373 24.2229C0.428192 24.1275 0.407011 24.0322 0.391126 23.9316C0.36465 23.8151 0.34347 23.6933 0.322289 23.5716C0.306404 23.4762 0.290519 23.3862 0.274634 23.2909C0.232273 23.0473 0.195206 22.8091 0.163436 22.5655C0.15814 22.5019 0.147551 22.4437 0.142255 22.3801C0.11578 22.1789 0.0945995 21.9777 0.0787141 21.7765C0.073419 21.7024 0.0681237 21.6335 0.0628286 21.5594C0.0575334 21.4853 0.0522382 21.4111 0.046943 21.337C0.0416479 21.2735 0.0363529 21.2152 0.0363529 21.1517C0.0310578 21.0617 0.0257625 20.9769 0.0204674 20.8869C-0.0854351 18.5677 0.221682 16.2696 0.894163 14.0827C0.99477 13.7544 1.10597 13.4261 1.22246 13.1031C2.43504 9.79364 4.51603 6.7966 7.33303 4.49852C8.52444 3.52421 9.84822 2.67699 11.2885 1.98333C13.6819 0.828996 16.1918 0.177695 18.6911 0.0400222C20.7562 -0.0711754 22.2017 0.0506128 23.9068 0.389501C27.4916 1.09905 30.8434 2.7776 33.5492 5.30338C31.2617 3.97959 16.8801 -0.24062 26.8773 8.57047L26.8826 8.57576C26.9409 8.62871 26.9991 8.68166 27.0627 8.73462C27.015 8.70284 26.9621 8.67637 26.9144 8.66048C26.8456 8.6393 26.7767 8.63401 26.7079 8.64989C21.0739 6.47889 14.0737 11.361 13.4595 17.6887C13.343 18.9065 13.3536 21.7236 15.2175 23.2009C17.2084 24.7841 19.9407 24.2705 21.7728 22.0942C21.8364 22.0201 21.9476 22.0201 22.0058 22.0942C22.2971 22.449 22.6148 22.7561 22.9536 23.0209C23.7585 23.651 24.6746 24.0058 25.6224 24.0534H25.6277C27.1156 23.9687 28.2594 22.5867 28.6088 22.1101C28.6671 22.0307 28.7836 22.0254 28.8471 22.1048C31.0552 24.71 34.4017 24.71 36.6045 22.0942C36.6627 22.0201 36.7792 22.0201 36.8375 22.0942C37.4941 22.8885 38.2777 23.4604 39.125 23.7781C39.3791 24.0058 39.5274 24.117 39.538 24.0958C39.538 24.1011 39.538 24.1011 39.538 24.0958Z" fill="#ADCA5C"/>
<path d="M39.5803 23.9419C39.5697 24.0054 39.5538 24.0637 39.5432 24.1272C39.3791 24.9056 39.1673 25.6787 38.9131 26.4306C38.9078 26.4465 38.8972 26.4623 38.8866 26.4729C38.0129 28.0456 35.9955 30.206 31.3834 32.287C29.6254 33.0812 27.984 33.6372 26.4484 34.0079C26.2366 34.0556 26.0301 34.1032 25.8235 34.1456C25.7971 34.1667 25.7653 34.1773 25.7282 34.1773C25.7123 34.1773 25.6965 34.1773 25.6753 34.1773C25.6223 34.1879 25.5694 34.1985 25.5164 34.2091C24.2456 34.458 23.0489 34.5745 21.9369 34.5851C20.2107 34.6062 18.6804 34.3733 17.3302 34.0079C17.1978 33.9708 17.0654 33.9338 16.933 33.8914C16.9277 33.8914 16.9171 33.8861 16.9066 33.8861C16.8377 33.8649 16.7742 33.8437 16.7053 33.8226C16.7053 33.8226 16.7053 33.8226 16.7 33.8226C16.6312 33.8014 16.5624 33.7802 16.4988 33.759C16.4724 33.7537 16.4512 33.7431 16.4247 33.7325C16.4141 33.7273 16.4035 33.7273 16.3876 33.722C16.3717 33.7167 16.3612 33.7114 16.3506 33.7114C16.3188 33.7008 16.287 33.6902 16.2553 33.6796C16.2182 33.669 16.1811 33.6531 16.1441 33.6372C16.1123 33.6266 16.0858 33.6161 16.0593 33.6055C16.017 33.5896 15.9746 33.5737 15.9375 33.5578C15.9111 33.5472 15.8899 33.5419 15.8634 33.5313C15.8422 33.526 15.8264 33.5154 15.8052 33.5102C15.7893 33.5049 15.7734 33.4996 15.7628 33.4943C15.7363 33.4837 15.7152 33.4731 15.6887 33.4625C15.6093 33.4307 15.5298 33.399 15.4557 33.3672C15.4451 33.3619 15.4345 33.3566 15.4239 33.3566C15.3974 33.346 15.3763 33.3354 15.3498 33.3248C15.3021 33.3036 15.2545 33.2878 15.2121 33.2666C15.1856 33.256 15.1645 33.2454 15.138 33.2348C15.1115 33.2242 15.085 33.2136 15.0586 33.1977C15.0215 33.1819 14.9844 33.166 14.9527 33.1501C14.9156 33.1342 14.8838 33.1183 14.8468 33.1024C14.8309 33.0971 14.815 33.0865 14.7938 33.076C14.7514 33.0548 14.7091 33.0389 14.6667 33.0177C14.6508 33.0071 14.6297 33.0018 14.6138 32.9912C14.5767 32.9753 14.5396 32.9542 14.5026 32.9383C14.4337 32.9065 14.3702 32.8694 14.3066 32.8377C14.2961 32.8324 14.2855 32.8271 14.2749 32.8218C14.2484 32.8112 14.2272 32.7953 14.2007 32.7847C14.1849 32.7794 14.169 32.7688 14.1584 32.7635C14.1054 32.7371 14.0578 32.7106 14.0048 32.6841C13.9307 32.6418 13.8566 32.6047 13.7824 32.5623C13.7718 32.557 13.756 32.5464 13.7454 32.5411C13.7083 32.52 13.6712 32.4988 13.6395 32.4829C13.6183 32.467 13.5918 32.4564 13.5706 32.4405C13.5547 32.4299 13.5389 32.4247 13.523 32.4141C13.5071 32.4035 13.4912 32.3982 13.4806 32.3876C13.4647 32.377 13.4488 32.3717 13.4382 32.3611C13.4012 32.3399 13.3641 32.3188 13.3271 32.2923C13.2741 32.2605 13.2264 32.2287 13.1735 32.2023C13.1576 32.1917 13.1417 32.1811 13.1258 32.1705C13.1152 32.1652 13.11 32.1599 13.0994 32.1546C13.0994 32.1546 13.0994 32.1546 13.0941 32.1546C13.0676 32.1387 13.0464 32.1228 13.0199 32.1069L12.9935 32.0911C12.9458 32.0593 12.8981 32.0328 12.8505 32.001C12.8452 32.001 12.8452 31.9957 12.8399 31.9957C12.8346 31.9905 12.824 31.9852 12.8187 31.9799C11.9556 31.4186 11.2778 30.8679 10.7854 30.4443C10.7801 30.439 10.7748 30.439 10.7695 30.4337C10.7642 30.4284 10.7642 30.4284 10.7589 30.4231C10.706 30.3754 10.653 30.3331 10.6054 30.2907C9.68401 29.4806 8.85797 28.5327 8.1696 27.4578C7.86778 26.9919 7.59773 26.5047 7.34886 25.9964C6.49634 24.2225 6.06214 22.3586 6.00919 20.5106C5.91388 17.1006 7.11058 13.7593 9.361 11.1859C10.5312 9.85154 11.9821 8.72368 13.6818 7.90294C13.7771 7.86058 13.8672 7.81292 13.9625 7.77056C14.6879 7.46344 15.3869 7.21457 16.0593 7.01865C16.0593 7.01865 16.0646 7.01865 16.0699 7.01865C22.2176 5.23949 26.0142 7.95059 26.872 8.66014L26.8773 8.66543C26.8879 8.67073 26.8985 8.68132 26.9037 8.68661C26.9938 8.76075 27.0414 8.8084 27.052 8.81899C26.9355 8.76604 26.8137 8.71839 26.6972 8.67073C21.0632 6.49973 14.0631 11.3818 13.4488 17.7095C13.3323 18.9274 13.3429 21.7444 15.2068 23.2217C17.1978 24.805 19.9301 24.2913 21.7622 22.115C21.8257 22.0409 21.9369 22.0409 21.9952 22.115C22.2864 22.4698 22.6041 22.7769 22.943 23.0417C23.7479 23.6718 24.6639 24.0266 25.6117 24.0742H25.617C27.105 23.9895 28.2487 22.6075 28.5982 22.1309C28.6564 22.0515 28.7729 22.0462 28.8365 22.1256C31.0445 24.7308 34.3911 24.7308 36.5938 22.115C36.6521 22.0409 36.7686 22.0409 36.8268 22.115C37.4834 22.9093 38.2671 23.4812 39.1143 23.7989C39.2732 23.8571 39.4267 23.9048 39.5803 23.9419Z" fill="#A1B755"/>
<path d="M28.0311 34.4439L27.8246 34.2585L27.5492 34.015L26.988 33.5172L23.6679 30.5678C23.5567 30.4725 23.5673 30.3084 23.6573 30.2184C23.6838 30.1919 23.7209 30.1707 23.7632 30.1601L24.6581 29.9218L26.988 29.3076L27.0197 29.297L28.7724 28.8363C28.9472 28.7887 29.0107 28.5769 28.8889 28.4445L27.5863 27.0254L26.988 26.3741L25.5212 24.775L23.0325 22.0692L19.0929 17.7854C18.9711 17.653 18.754 17.6954 18.6905 17.8595L16.5777 23.3876L16.3236 24.0495L16.2547 24.2349L16.2442 24.2613L13.7978 30.6631L13.4219 31.648L13.353 31.8228C13.3265 31.8916 13.2736 31.9393 13.2048 31.9657L7.54956 33.9091C7.25833 34.0097 7.3907 34.4439 7.68723 34.3697L9.58289 33.8985L12.4528 33.1148C12.6435 33.0618 12.8076 33.2472 12.7388 33.4325L11.2244 37.3985L11.039 37.8963C11.3568 38.0763 11.8068 38.2616 11.8068 38.2616L15.937 33.1095L16.8266 31.9657H16.8319L20.5544 33.549L23.0272 34.6027L29.7414 37.4568C29.8738 37.3827 30.0062 37.3085 30.1386 37.2291C30.165 37.2132 30.1968 37.1973 30.2233 37.1814C30.4086 37.0702 30.5992 36.9538 30.7793 36.8373L28.0311 34.4439ZM22.0158 28.9369C21.9841 28.9475 21.9576 28.9528 21.9258 28.9475C21.9152 28.9475 21.9046 28.9475 21.894 28.9475C21.8517 28.9422 21.8093 28.921 21.7776 28.8893L20.4379 27.6979C20.3426 27.6132 20.332 27.4702 20.4061 27.3696L21.8305 25.5428C21.9099 25.4369 22.0635 25.421 22.1694 25.5004L24.2345 27.1154L24.8275 27.5761C24.9758 27.6926 24.9387 27.9309 24.7587 27.9891L23.8321 28.3068L22.0158 28.9369Z" fill="#444444"/>
<path d="M19.0507 15.2594L19.199 16.1702C19.2043 16.2178 19.2255 16.2549 19.2572 16.292L23.0856 20.5704C23.2603 20.761 23.5727 20.581 23.4933 20.3374L21.5077 14.2004C21.4812 14.1157 21.4123 14.0574 21.3223 14.0362L16.8585 13.189C16.6308 13.1467 16.4826 13.4167 16.6361 13.5862L18.1929 15.2806C18.3147 15.413 18.5265 15.3706 18.59 15.2065C18.6801 14.9841 19.0084 15.0211 19.0507 15.2594Z" fill="#444444"/>
<path d="M30.7961 17.2593C32.5157 17.2593 33.9097 15.8653 33.9097 14.1458C33.9097 12.4262 32.5157 11.0322 30.7961 11.0322C29.0766 11.0322 27.6826 12.4262 27.6826 14.1458C27.6826 15.8653 29.0766 17.2593 30.7961 17.2593Z" fill="#FF7676"/>
<path d="M48.624 17.469H48.809H49.3373C49.5839 17.469 49.8481 17.469 50.1123 17.469C50.3765 17.469 50.6318 17.469 50.8696 17.469C51.1074 17.469 51.3539 17.469 51.6181 17.469C51.8735 17.469 52.1377 17.469 52.4107 17.469H52.9038H53.0887V20.2606H52.9038H52.4107C52.1377 20.2606 51.8823 20.2606 51.6181 20.2606C51.3627 20.2606 51.1074 20.2606 50.8696 20.2606C50.6318 20.2606 50.3765 20.2606 50.1123 20.2606C49.8393 20.2606 49.5839 20.2606 49.3373 20.2606H48.8442H48.624V17.469ZM53.1504 17.4426V10.8027H55.8803C56.4175 10.8027 57.2893 10.8027 58.4869 10.8027H61.4018C61.6043 10.8027 61.798 10.8027 61.9566 10.8027C62.1239 10.8027 62.256 10.8027 62.3616 10.8027H62.6434H62.7403V10.838C64.2902 10.8556 65.5759 11.3047 66.5886 12.1677C67.6189 13.0395 68.1737 14.1227 68.2354 15.426C68.2794 16.7469 67.7774 17.8565 66.7471 18.7459C65.9634 19.4504 64.9595 19.8819 63.7354 20.0492V21.2557L63.9203 21.4142L66.615 23.4572C67.0465 23.7918 67.7334 24.2938 68.658 24.963C69.5915 25.6323 70.4193 26.2311 71.1414 26.7507L72.1981 27.4992L67.6101 27.5609C66.8616 26.9797 66.0074 26.3192 65.0387 25.5795L62.3088 23.5364L61.4106 22.8584L61.164 22.6734L61.1024 22.6118C61.1024 22.5942 61.1112 22.5678 61.1376 22.5502H61.1024V22.33V21.7752V20.014V18.2792V17.6892V17.469H62.4321C62.4761 17.469 62.5113 17.469 62.5554 17.469C63.6473 17.469 64.4663 17.2312 65.0035 16.7557C65.3998 16.4035 65.5847 15.9896 65.5583 15.514C65.5583 14.9945 65.3293 14.5454 64.8802 14.1491C64.3254 13.6735 63.5505 13.4446 62.5554 13.471C62.5113 13.471 62.4585 13.471 62.3969 13.471H62.3616C62.2384 13.4534 62.0975 13.4358 61.9389 13.4358C61.7804 13.4358 61.6043 13.4358 61.393 13.4358C60.5035 13.4358 59.5349 13.4358 58.4781 13.4358C57.4478 13.4358 56.576 13.4358 55.8715 13.4358V17.4338H53.1504V17.4426ZM53.1856 27.5256V20.2341L55.8539 20.2694V27.4992L53.1856 27.5256Z" fill="white"/>
<path d="M74.0654 17.4426V10.8027H76.7953V17.4426H74.0654ZM74.0919 27.5256V20.2341H76.7601V27.4904L74.0919 27.5256Z" fill="white"/>
<path d="M90.8141 17.4426L87.001 17.4778L84.1742 14.0698V17.4514H81.4443V10.8468H81.4796V10.8115C81.8318 10.8292 82.1841 10.8468 82.5363 10.8468C83.0911 10.8468 83.6459 10.8468 84.1831 10.8468H85.0196L90.8141 17.4426ZM81.4708 27.5256V20.2341H84.139V27.4904L81.4708 27.5256ZM96.9872 24.4787L97.0224 29.3485L89.3875 20.2606L93.2622 20.2253L94.3189 21.4318V20.2253H96.9872V24.4787ZM94.2837 17.4426L94.3189 10.8027H97.0489V17.4426H94.2837Z" fill="white"/>
<path d="M99.3125 27.4904L106.04 20.2341H109.792C107.749 22.2596 106.287 23.7478 105.415 24.6989C105.371 24.7165 105.336 24.7517 105.292 24.7957C109.096 24.7957 112.892 24.7957 116.678 24.7957V27.5256L101.884 27.4904V27.4552L99.3125 27.4904ZM114.723 10.8027H118.413L112.302 17.5042L108.638 17.4426L112.24 13.5326C108.515 13.515 104.799 13.4974 101.074 13.4974V10.8027C105.627 10.8027 110.179 10.8027 114.723 10.8027Z" fill="white"/>
<path d="M134.053 20.2342H136.624C136.501 22.2596 135.585 24.0209 133.877 25.5091C132.168 26.9973 130.275 27.7018 128.188 27.6226C125.872 27.5433 123.987 26.7948 122.543 25.3858C121.099 23.9768 120.218 22.2772 119.91 20.2694H122.482C122.79 21.8193 123.477 22.9905 124.525 23.7743C125.581 24.558 126.797 24.9631 128.188 24.9807C129.474 24.9983 130.689 24.5757 131.851 23.7126C133.005 22.8408 133.745 21.6784 134.053 20.2342ZM122.578 17.5043L120.007 17.4427C120.28 15.5846 121.187 13.9818 122.737 12.6345C124.287 11.2872 126.074 10.6267 128.1 10.6531C129.298 10.6531 130.398 10.8468 131.402 11.2255C132.406 11.6042 133.243 12.1237 133.912 12.7578C134.581 13.4006 135.145 14.1139 135.585 14.9153C136.025 15.7078 136.351 16.5532 136.563 17.4427H133.93C133.375 16.0161 132.609 14.9329 131.631 14.1844C130.662 13.4359 129.535 13.0748 128.25 13.1012C126.99 13.1012 125.828 13.4975 124.771 14.2812C123.723 15.065 122.992 16.1393 122.578 17.5043Z" fill="white"/>
</svg>
