<svg width="24" height="24" viewBox="0 0 24 24" fill="none" xmlns="http://www.w3.org/2000/svg">
<g clip-path="url(#clip0_486_30182)">
<path d="M24 12C24 18.627 18.627 24 12 24C5.37296 24 0 18.627 0 12C0 5.37296 5.37296 0 12 0C18.6284 0 24 5.37296 24 12Z" fill="#2081E2"/>
<path d="M5.92045 12.4029L5.97224 12.3216L9.09392 7.43811C9.13952 7.36659 9.2468 7.37401 9.28131 7.45166C9.80283 8.62046 10.2528 10.074 10.042 10.979C9.952 11.3513 9.70544 11.8556 9.42803 12.3216C9.39227 12.3894 9.35283 12.456 9.31091 12.5201C9.29117 12.5497 9.25789 12.5669 9.22214 12.5669H6.01168C5.92539 12.5669 5.87485 12.4732 5.92045 12.4029Z" fill="white"/>
<path d="M19.8347 13.3107V14.0837C19.8347 14.1281 19.8076 14.1675 19.7681 14.1848C19.5265 14.2884 18.6992 14.6681 18.3552 15.1464C17.4774 16.3682 16.8067 18.1152 15.3075 18.1152H9.05311C6.83636 18.1152 5.04004 16.3128 5.04004 14.0886V14.0171C5.04004 13.9579 5.08812 13.9099 5.14732 13.9099H8.63391C8.70295 13.9099 8.75351 13.974 8.74735 14.0418C8.72268 14.2686 8.7646 14.5004 8.87185 14.7112C9.079 15.1316 9.50804 15.3943 9.97161 15.3943H11.6976V14.0467H9.99132C9.9038 14.0467 9.85201 13.9456 9.90257 13.8741C9.92105 13.8458 9.94201 13.8162 9.9642 13.7829C10.1257 13.5536 10.3563 13.1972 10.5856 12.7916C10.7421 12.5179 10.8938 12.2257 11.0159 11.9323C11.0405 11.8793 11.0603 11.8251 11.08 11.772C11.1133 11.6783 11.1478 11.5908 11.1724 11.5033C11.1971 11.4293 11.2168 11.3516 11.2365 11.2789C11.2945 11.0298 11.3192 10.766 11.3192 10.4923C11.3192 10.385 11.3142 10.2728 11.3044 10.1656C11.2994 10.0484 11.2846 9.93133 11.2698 9.81421C11.26 9.71064 11.2415 9.60832 11.2217 9.50106C11.1971 9.34448 11.1626 9.18914 11.1231 9.03256L11.1096 8.97338C11.08 8.86613 11.0553 8.76378 11.0208 8.65653C10.9234 8.31994 10.8112 7.992 10.6928 7.68501C10.6497 7.56296 10.6004 7.44584 10.5511 7.32872C10.4783 7.1524 10.4043 6.99213 10.3365 6.84048C10.302 6.77144 10.2724 6.70856 10.2428 6.64445C10.2096 6.5717 10.175 6.49898 10.1405 6.42992C10.1159 6.3769 10.0875 6.3276 10.0678 6.27829L9.85695 5.88869C9.82735 5.83568 9.87668 5.7728 9.9346 5.78882L11.2538 6.14637H11.2575C11.26 6.14637 11.2612 6.1476 11.2624 6.1476L11.4363 6.19568L11.6274 6.24992L11.6976 6.26965V5.48554C11.6976 5.10704 12.0009 4.80005 12.3757 4.80005C12.5631 4.80005 12.7333 4.87648 12.8553 5.00101C12.9774 5.12554 13.0538 5.29568 13.0538 5.48554V6.64938L13.1944 6.68882C13.2055 6.69253 13.2166 6.69746 13.2264 6.70485C13.2609 6.73074 13.3103 6.76898 13.3731 6.81581C13.4225 6.85528 13.4755 6.90336 13.5396 6.95266C13.6666 7.05501 13.8182 7.18693 13.9847 7.33856C14.029 7.3768 14.0722 7.41624 14.1116 7.4557C14.3262 7.65541 14.5666 7.88968 14.7959 8.14858C14.86 8.2213 14.9229 8.29528 14.987 8.37296C15.0511 8.45186 15.1189 8.52954 15.1781 8.60722C15.2558 8.71077 15.3396 8.81802 15.4123 8.93024C15.4469 8.98325 15.4863 9.03749 15.5196 9.0905C15.6133 9.23229 15.6959 9.37901 15.7748 9.5257C15.8081 9.59352 15.8426 9.66749 15.8722 9.74024C15.9597 9.93626 16.0288 10.136 16.0732 10.3357C16.0867 10.3789 16.0966 10.4257 16.1015 10.4676V10.4775C16.1163 10.5367 16.1212 10.5996 16.1262 10.6637C16.1459 10.8683 16.136 11.073 16.0917 11.2789C16.0732 11.3664 16.0485 11.449 16.0189 11.5366C15.9893 11.6204 15.9597 11.7079 15.9215 11.7905C15.8476 11.9619 15.76 12.1333 15.6564 12.2935C15.6232 12.3527 15.5837 12.4156 15.5443 12.4748C15.5011 12.5376 15.4567 12.5968 15.4173 12.6548C15.363 12.7288 15.3051 12.8064 15.2459 12.8755C15.1929 12.9482 15.1386 13.021 15.0795 13.0851C14.9969 13.1824 14.918 13.2749 14.8353 13.3637C14.786 13.4216 14.733 13.4808 14.6788 13.5338C14.6257 13.593 14.5715 13.646 14.5222 13.6953C14.4396 13.7779 14.3705 13.842 14.3126 13.8951L14.177 14.0196C14.1573 14.0368 14.1314 14.0467 14.1043 14.0467H13.0538V15.3943H14.3755C14.6714 15.3943 14.9525 15.2895 15.1793 15.0971C15.257 15.0293 15.596 14.7359 15.9967 14.2933C16.0103 14.2785 16.0276 14.2674 16.0473 14.2625L19.6979 13.2071C19.7657 13.1874 19.8347 13.2392 19.8347 13.3107Z" fill="white"/>
</g>
<defs>
<clipPath id="clip0_486_30182">
<rect width="24" height="24" fill="white"/>
</clipPath>
</defs>
</svg>
