<svg width="24" height="24" viewBox="0 0 24 24" fill="none" xmlns="http://www.w3.org/2000/svg">
<circle cx="12" cy="12" r="12" fill="#0CE466"/>
<g clip-path="url(#clip0_493_31803)">
<path d="M7.40485 8.55645C9.90014 6.07526 13.9458 6.07526 16.4411 8.55645L18.5966 10.6997L16.4411 12.843C13.9458 15.3242 9.90015 15.3242 7.40485 12.843L5.24939 10.6997L7.40485 8.55645Z" fill="#0CE466"/>
<path fill-rule="evenodd" clip-rule="evenodd" d="M3.69226 10.703L8.58623 5.80566H15.2598L20.1538 10.703L11.923 18.9304L3.69226 10.703ZM15.7047 8.91999C13.6253 6.83144 10.2207 6.83145 8.14132 8.92L6.3617 10.6996L8.14132 12.4793C10.2207 14.5678 13.6253 14.5678 15.7047 12.4793L17.4844 10.6996L15.7047 8.91999Z" fill="black"/>
<path d="M11.923 12.2569C11.0634 12.2569 10.3658 11.5601 10.3658 10.6998C10.3658 9.8394 11.0634 9.14258 11.923 9.14258C12.7827 9.14258 13.4802 9.8394 13.4802 10.6998C13.4802 11.5601 12.7827 12.2569 11.923 12.2569Z" fill="#0CE466"/>
<path fill-rule="evenodd" clip-rule="evenodd" d="M9.36487 10.6996C9.36487 12.113 10.5108 13.2578 11.9231 13.2578C13.3354 13.2578 14.4813 12.113 14.4813 10.6996C14.4813 9.28613 13.3354 8.14136 11.9231 8.14136C10.5108 8.14136 9.36487 9.28613 9.36487 10.6996ZM10.8108 10.6996C10.8108 11.3141 11.309 11.8118 11.9231 11.8118C12.5371 11.8118 13.0353 11.3141 13.0353 10.6996C13.0353 10.085 12.5371 9.5873 11.9231 9.5873C11.309 9.5873 10.8108 10.085 10.8108 10.6996Z" fill="black"/>
</g>
<defs>
<clipPath id="clip0_493_31803">
<rect width="16.4615" height="16.4615" fill="white" transform="translate(3.69226 3.69238)"/>
</clipPath>
</defs>
</svg>
