<?xml version="1.0" encoding="UTF-8" standalone="no" ?>
<!DOCTYPE svg PUBLIC "-//W3C//DTD SVG 1.1//EN" "http://www.w3.org/Graphics/SVG/1.1/DTD/svg11.dtd">
<svg xmlns="http://www.w3.org/2000/svg" xmlns:xlink="http://www.w3.org/1999/xlink" version="1.1" width="1080" height="1080" viewBox="0 0 1080 1080" xml:space="preserve">
<desc>Created with Fabric.js 5.2.4</desc>
<defs>
</defs>
<g transform="matrix(1 0 0 1 540 540)" id="fa4aec14-1c8d-44c5-9366-42762e32062a"  >
<rect style="stroke: none; stroke-width: 1; stroke-dasharray: none; stroke-linecap: butt; stroke-dashoffset: 0; stroke-linejoin: miter; stroke-miterlimit: 4; fill: rgb(255,255,255); fill-rule: nonzero; opacity: 1; visibility: hidden;" vector-effect="non-scaling-stroke"  x="-540" y="-540" rx="0" ry="0" width="1080" height="1080" />
</g>
<g transform="matrix(1 0 0 1 540 540)" id="06011956-b225-4917-89af-243a78000311"  >
</g>
<g transform="matrix(4.25 0 0 4.25 539.62 537.71)" id="16221c0d-e11a-40de-8b25-7ffda3c9709e"  >
<path style="stroke: rgb(0,0,0); stroke-width: 0; stroke-dasharray: none; stroke-linecap: butt; stroke-dashoffset: 0; stroke-linejoin: miter; stroke-miterlimit: 4; fill: rgb(173,202,92); fill-rule: nonzero; opacity: 1;" vector-effect="non-scaling-stroke"  transform=" translate(-737.9, -312.8)" d="M 726.5 346.4 L 726.3 346.29999999999995 L 726.1999999999999 346.49999999999994 L 679.4999999999999 406.49999999999994 L 699.7999999999998 353.49999999999994 L 677.3999999999999 359.59999999999997 L 628.7999999999998 371.7 C 632.2999999999998 378.09999999999997 636.2999999999998 384.2 640.6999999999998 389.8 C 663.3999999999999 418.5 698.4999999999998 436.8 737.8999999999999 436.8 C 776.6999999999998 436.8 811.2999999999998 419 833.9999999999999 391.1 L 833.9999999999999 391.1 L 726.5 346.4 z M 760.8 302 L 749.3 316.8 L 760.1999999999999 326.40000000000003 L 782.4 318.8 L 760.8 302 z M 737.9 188.8 C 669.4 188.8 613.9 244.3 613.9 312.8 C 613.9 334.1 619.3 354.1 628.6999999999999 371.6 L 702.4 346.3 L 705.6999999999999 337.8 L 722.6999999999999 293.3 L 739.5999999999999 249.20000000000002 L 798.5999999999999 313.40000000000003 L 809.1999999999999 324.90000000000003 L 794.8 328.70000000000005 L 769.9 335.30000000000007 L 801.6 363.4000000000001 L 834 391.30000000000007 C 847.6 374.6000000000001 857 354.30000000000007 860.4 332.1000000000001 C 861.4 325.9000000000001 861.9 319.50000000000006 861.9 313.00000000000006 C 861.9 244.3 806.4 188.8 737.9 188.8 z M 749.6 240.6 L 747.6 228.29999999999998 L 744.5 236.1 L 729 219.1 L 764.8 225.9 L 780.8 275.4 L 749.6 240.6 z M 760.8 302 L 749.3 316.8 L 760.1999999999999 326.40000000000003 L 782.4 318.8 L 760.8 302 z" stroke-linecap="round" />
</g>
</svg>