<svg width="100" height="100" viewBox="0 0 100 100" fill="none" xmlns="http://www.w3.org/2000/svg">
<mask id="mask0_3393_363574" style="mask-type:alpha" maskUnits="userSpaceOnUse" x="0" y="0" width="100" height="100">
<path d="M50 100C77.6142 100 100 77.6142 100 50C100 22.3858 77.6142 0 50 0C22.3858 0 0 22.3858 0 50C0 77.6142 22.3858 100 50 100Z" fill="#C1BF4B"/>
</mask>
<g mask="url(#mask0_3393_363574)">
<path d="M49.9999 100C77.6832 100 100.125 77.6142 100.125 50C100.125 22.3858 77.6832 0 49.9999 0C22.3166 0 -0.125122 22.3858 -0.125122 50C-0.125122 77.6142 22.3166 100 49.9999 100Z" fill="#C1BF4B"/>
<path d="M44.8 75.9841L65.0751 43.7896L71.6251 68.9517L51.3751 93.7896L44.8 75.9841Z" fill="#4A4644"/>
<path d="M44.5249 74.5885L63.5249 40.9975L49.8249 34.1646L44.5249 74.5885Z" fill="#4A4644"/>
<path d="M32.7 43.7923L39.225 50.9244L42.35 71.7474L40.775 36.0117L32.7 43.7923Z" fill="#4A4644"/>
<path d="M26.8751 69.0014L31.9251 65.934L41.7251 71.7445L36.7251 52.4927L31.0501 45.959L23.3501 56.2084L22.7251 63.9889L26.8751 69.0014Z" fill="#4A4644"/>
<path d="M35.8 83.5394L35.45 97.8286L43.4 104.213L52.275 99.9733L43.275 79.2002L39.2 84.6366L35.8 83.5394Z" fill="#4A4644"/>
<path d="M20.2251 90.0733L31.7501 81.0708L34.2501 82.9162L32.5751 96.8563L23.2251 98.9012L20.2251 90.0733Z" fill="#4A4644"/>
<path d="M53.25 94.7383L55.45 99.7258L75.25 94.7383L57.9 89.5762L53.25 94.7383Z" fill="#4A4644"/>
<path d="M16.8 64.9121L15.55 68.3286C15.55 68.3286 29.875 77.3311 29.875 77.0318C29.875 76.8822 30.175 73.6153 30.175 73.6153L16.8 64.9121Z" fill="#4A4644"/>
<path d="M59.7749 87.2816L62.8999 83.2417L83.4499 91.9449L78.4249 94.6631L59.7749 87.2816Z" fill="#4A4644"/>
<path d="M64.1499 81.3699L67.8749 76.7065L70.3749 84.7863L64.1499 81.3699Z" fill="#4A4644"/>
<path d="M43.4001 72.0692L42.575 32.6677L37.05 34.164L37.675 20.1739L43.85 19.4009L43.9001 23.2912L44.825 24.8373L48.575 22.0443L49.5 22.6677L47.625 28.2537L46.4001 29.1764L48.175 34.0642L43.4001 72.0692Z" fill="white"/>
<path d="M38.6001 19.2512L37.9751 17.3809L43.9001 14.5878L52.0001 15.2113L52.3001 12.7175L54.4751 11.1714L56.9751 14.2886L53.2501 16.7574L52.4251 19.2512L56.3501 27.331V30.7474L52.3001 32.2936L48.2501 29.7998L50.7501 22.6676L48.8751 20.7973L45.1501 23.5903L44.5251 18.6277L38.6001 19.2512Z" fill="#4A4644"/>
<path d="M28.0249 70.1986L32.2249 67.5303L37.7499 70.9717L37.0499 76.7073L35.1749 78.2784L31.1249 77.9542L31.4499 72.9916L28.0249 70.1986Z" fill="white"/>
<path d="M36.125 79.9019L38.925 83.2436L43.85 76.5354L40.5 73.2935L38.6 76.0865L38.375 77.9319L36.125 79.9019Z" fill="white"/>
<path d="M73.9372 19.9508L66 27.8682L73.9372 35.7856L81.8744 27.8682L73.9372 19.9508Z" fill="#E98679"/>
</g>
</svg>
