<svg width="100" height="100" viewBox="0 0 100 100" fill="none" xmlns="http://www.w3.org/2000/svg">
<mask id="mask0_3393_363578" style="mask-type:alpha" maskUnits="userSpaceOnUse" x="0" y="0" width="100" height="100">
<path d="M50 100C77.6142 100 100 77.6142 100 50C100 22.3858 77.6142 0 50 0C22.3858 0 0 22.3858 0 50C0 77.6142 22.3858 100 50 100Z" fill="#C1BF4B"/>
</mask>
<g mask="url(#mask0_3393_363578)">
<path d="M50 100C77.6142 100 100 77.6142 100 50C100 22.3858 77.6142 0 50 0C22.3858 0 0 22.3858 0 50C0 77.6142 22.3858 100 50 100Z" fill="#C1BF4B"/>
<path d="M51.375 84.5498L54.6 79.5248L53.2 77.0248L53.5 75.0498L58.65 77.5498L62.3 83.6998L53.9 87.8998L51.65 86.7748L51.375 84.5498Z" fill="white"/>
<path d="M46.575 75.8501L46.725 77.8251L48.2999 79.2251L51.825 77.5501L52.5 74.4501L50.7999 72.2251L49.125 72.5001L50.025 73.7501L49.975 76.4251L47.725 76.7001L46.575 75.8501Z" fill="#4A4644"/>
<path d="M48.575 12.8257L25.325 29.9257H74.35" fill="#4A4644"/>
<path d="M42.5 30.3745L54.45 30.1245V34.6745L45.65 49.8495L46.475 36.3995L43.4 34.2745L42.5 30.3745Z" fill="white"/>
<path d="M59.65 76.7249L63.85 83.6249L61.6 85.4249L71.7 91.2999L77.975 65.7749L59.65 76.7249Z" fill="#4A4644"/>
<path d="M67.625 43.9243L61.9 73.6493L77.15 64.6493L67.625 43.9243Z" fill="#4A4644"/>
<path d="M55.2999 34.9751L58.9249 39.7251L48.2999 71.1001L39.325 64.3751L47.725 47.5751L55.2999 34.9751Z" fill="#4A4644"/>
<path d="M31.775 63.2505L47.45 76.1255H49.4V73.9005L33.45 61.0005L31.775 63.2505Z" fill="#4A4644"/>
<path d="M44.925 52.0502L44.375 46.1752L44.6501 38.3252L39.6 43.6502L36.675 62.4502L38.775 64.1002L41.85 57.6502L44.925 52.0502Z" fill="#4A4644"/>
<path d="M35.975 47.0504L33.45 59.9004L35.25 61.0004L38.075 44.5254L35.975 47.0504Z" fill="#4A4644"/>
<path d="M42.7 66.1248L48.2999 71.0998L50.325 70.7748L58.65 75.8498L58.9249 39.7998L42.7 66.1248Z" fill="#4A4644"/>
<path d="M61.6 41.1504L67.15 43.6504L59.375 75.0504L61.6 41.1504Z" fill="#4A4644"/>
<path d="M33.6 68.0503L32.2 70.3003L42.575 77.3003L43.975 75.6253L33.6 68.0503Z" fill="#4A4644"/>
<path d="M31.775 72.7749L28.975 90.4249H34.7L34.45 83.1749L36.4 75.8999L34.125 73.7499L31.775 72.7749Z" fill="#4A4644"/>
<path d="M31.2 90.9751H34.275L33.725 97.7001L30.65 96.0251V94.5001L31.2 90.9751Z" fill="white"/>
<path d="M42.7 78.9498V80.0998L43.775 79.5248L46.0499 76.4248L45.775 75.2998L42.7 78.9498Z" fill="#4A4644"/>
<path d="M43.975 78.6998L51.1 82.2998L52.125 80.7498L52.075 78.4248L49.125 79.9248L48.575 79.7748H47.45L45.375 77.2998L43.975 78.6998Z" fill="#4A4644"/>
<path d="M57.525 87.3504L69.575 94.9004L70.825 94.3504L71.4 93.0004L59.775 85.6504L57.525 87.3504Z" fill="#4A4644"/>
<path d="M37.075 76.6997L36.4 80.3747L42.7 85.6497L50.8 87.4747L50.15 85.2997L50.8 82.7997L43.525 81.4497L37.075 76.6997Z" fill="#4A4644"/>
<path d="M35.125 84.5496L35.675 86.2246L35.4 87.6246L35.125 98.7746L46.9 102.475L67.35 98.2746L67.15 94.4246L57.25 88.1746L53.325 89.2996L43.525 87.3496L35.975 82.8496L35.125 84.5496Z" fill="#4A4644"/>
<path d="M20.0598 36.5198L12.1226 44.457L20.0598 52.3942L27.997 44.457L20.0598 36.5198Z" fill="#E98679"/>
</g>
</svg>
