<svg width="100" height="100" viewBox="0 0 100 100" fill="none" xmlns="http://www.w3.org/2000/svg">
<mask id="mask0_3393_363575" style="mask-type:alpha" maskUnits="userSpaceOnUse" x="0" y="0" width="100" height="100">
<path d="M50 100C77.6142 100 100 77.6142 100 50C100 22.3858 77.6142 0 50 0C22.3858 0 0 22.3858 0 50C0 77.6142 22.3858 100 50 100Z" fill="#C1BF4B"/>
</mask>
<g mask="url(#mask0_3393_363575)">
<path d="M50.0001 100C77.6144 100 100 77.6142 100 50C100 22.3858 77.6144 0 50.0001 0C22.3859 0 0.00012207 22.3858 0.00012207 50C0.00012207 77.6142 22.3859 100 50.0001 100Z" fill="#C1BF4B"/>
<path d="M19.6 44.7754L25.475 74.1754L13.325 62.4254L13.3 62.2004L10.025 45.1254L19.6 44.7754Z" fill="#4A4644"/>
<path d="M11.125 38.8744L15.9 35.9494L30.975 35.1244L37.625 31.5244L42 35.0244V35.9494H30.975L21.05 36.6744L17.025 38.8744H11.125Z" fill="#4A4644"/>
<path d="M27.3001 69.7998L26.5751 75.2748L36.3751 79.1248L43.5001 79.6998L43.4001 78.1248L37.2001 77.4248L27.3001 69.7998Z" fill="#4A4644"/>
<path d="M29.125 47.875L27.3 68.675L39.8 76.025L43.125 74.925L41.4501 63.275L31.0751 48.15L29.125 47.875Z" fill="#4A4644"/>
<path d="M43.4 53.1992L46.2 85.9742L60.4 78.2242L43.4 53.1992Z" fill="#4A4644"/>
<path d="M52.525 44.5498L40.6 44.7998L44.625 50.8998L60.4 77.4248L65.55 51.7498L61.05 44.5498H52.525Z" fill="#4A4644"/>
<path d="M44.95 29.6994L50.85 38.1494L49.375 27.8494L51.575 26.0244L49 22.3494L57.45 21.9744L53.775 20.4994L48.275 22.3494L47.175 24.5494L44.225 19.0244L42.375 22.3494L46.8 26.3744L44.95 29.6994Z" fill="#4A4644"/>
<path d="M21.4251 37.0503L20.7001 44.0253L26.2001 45.1253V46.4753H30.3001V37.4253L21.4251 37.0503Z" fill="white"/>
<path d="M30.975 38.8743L31.125 44.6243L41.775 61.5993L41.575 50.8993L39.45 47.3493V37.4243H35.55V38.8743H30.975Z" fill="white"/>
<path d="M43.05 38.5494H50.55L44.225 31.5244L42.225 34.3744L43.125 35.7994L43.05 38.5494Z" fill="white"/>
<path d="M50.475 23.0742L52.675 25.6492L50.475 28.2242L51.7 38.1492L59.675 37.7742L58.55 29.6992L59.3 24.1742L58.55 22.6992L50.475 23.0742Z" fill="white"/>
<path d="M5.97498 39.9751V42.8751H20.075V40.3751L5.97498 39.9751Z" fill="#4A4644"/>
<path d="M34.65 80.4254L23.1 76.0254L-3.57498 91.1004L-8.34998 124.55L27.3 130.625L32.825 128.6L33.55 110.575L40.625 97.3504L34.65 80.4254Z" fill="#4A4644"/>
<path d="M37.125 81.4253L49.725 112.05L50.4 128.6L88.35 129.325L86.425 103.675L60.4 80.8003L46.05 86.6753L43.475 82.2753L37.125 81.4253Z" fill="#4A4644"/>
<path d="M84.1249 38.9995L39.9999 40.7245V42.9995H90.5999L84.1249 38.9995Z" fill="#4A4644"/>
<path d="M73.9372 17.9998L66 25.937L73.9372 33.8742L81.8744 25.937L73.9372 17.9998Z" fill="#E98679"/>
</g>
</svg>
