<svg width="100" height="100" viewBox="0 0 100 100" fill="none" xmlns="http://www.w3.org/2000/svg">
<mask id="mask0_3393_363576" style="mask-type:alpha" maskUnits="userSpaceOnUse" x="0" y="0" width="100" height="100">
<path d="M50 100C77.6142 100 100 77.6142 100 50C100 22.3858 77.6142 0 50 0C22.3858 0 0 22.3858 0 50C0 77.6142 22.3858 100 50 100Z" fill="#C1BF4B"/>
</mask>
<g mask="url(#mask0_3393_363576)">
<path d="M50 100C77.6142 100 100 77.6142 100 50C100 22.3858 77.6142 0 50 0C22.3858 0 0 22.3858 0 50C0 77.6142 22.3858 100 50 100Z" fill="#C1BF4B"/>
<path d="M77.8314 22.8245L70 30.7617L77.8314 38.6989L85.6627 30.7617L77.8314 22.8245Z" fill="#E98679"/>
<path d="M65.342 64.8252L64.9474 84.7502L60.6554 82.8752L53.2554 69.6002L65.342 64.8252Z" fill="#4A4644"/>
<path d="M40.4286 69.8765L40.0833 81.8515L43.5119 82.2015L47.5079 78.4015L46.2746 76.9015L48.0506 75.4015L45.5346 72.1515L40.4286 69.8765Z" fill="#4A4644"/>
<path d="M44.0546 60.6497L45.1892 70.9497L49.7279 68.3997L46.3732 60.5747L44.0546 60.6497Z" fill="#4A4644"/>
<path d="M26.8867 56.8239C26.8867 56.8239 26.2207 62.2739 26.3933 62.2739C26.566 62.2739 30.5867 64.4989 30.5867 64.4989L30.9567 60.6739L33.1273 57.8739L31.9433 55.6489L31.2773 56.9989L26.8867 56.8239Z" fill="white"/>
<path d="M34.262 52.397L34.0894 56.472L41.8347 56.147L43.3394 50.522L34.262 52.397Z" fill="#4A4644"/>
<path d="M27.7253 48.8233L34.6073 49.6733V47.9733L28.046 47.2983L27.7253 48.8233Z" fill="#4A4644"/>
<path d="M30.1179 46.6989L33.4726 10.8739L37.0493 4.64893L32.5353 47.0239L30.1179 46.6989Z" fill="#4A4644"/>
<path d="M28.712 50.3493L27.7253 55.9993L30.6853 56.4743L31.154 55.1993L32.6093 55.6243L33.2507 52.3993L32.0913 50.1743L28.712 50.3493Z" fill="white"/>
<path d="M25.5546 60.1493L26.0479 56.6493L27.2073 55.4743L27.7253 50.1743L22.6686 55.7993L22.2986 59.3743L25.5546 60.1493Z" fill="#4A4644"/>
<path d="M28.046 63.6475L27.158 72.6975H29.896L30.488 64.9725L28.046 63.6475Z" fill="#4A4644"/>
<path d="M46.7681 38.9979L51.0107 49.0729H54.7847L57.9667 38.6729L52.7621 40.7479L46.7681 38.9979Z" fill="white"/>
<path d="M44.0794 39.002L41.5387 46.202L49.5554 47.627L46.472 39.002H44.0794Z" fill="#4A4644"/>
<path d="M56.3881 46.9999L58.3614 38.6499L60.6307 39.2999L63.1714 46.4999L56.3881 46.9999Z" fill="#4A4644"/>
<path d="M46.3485 34.7491L42.5992 31.9741L41.2919 37.1741L47.4832 38.4741L46.3485 34.7491Z" fill="#4A4644"/>
<path d="M58.4846 34.575L56.7086 38.325C56.7086 38.325 64.4046 36.15 64.2566 36C64.1086 35.85 61.2473 33.125 61.2473 33.125L58.4846 34.575Z" fill="#4A4644"/>
<path d="M45.4854 38.0231L52.91 39.7981L59.866 37.3981L58.5833 34.3481L58.4354 33.3981L57.646 31.7231L53.2307 34.5231H51.0107L46.916 31.7231L46.2747 34.5231L45.4854 38.0231Z" fill="#4A4644"/>
<path d="M48.8154 29.2244L50.8628 32.1244L51.3314 27.1494L48.8154 29.2244Z" fill="#4A4644"/>
<path d="M52.7621 27.1494L53.2308 32.1244L55.5988 29.2244L52.7621 27.1494Z" fill="#4A4644"/>
<path d="M51.1833 23.6493L51.4794 35.6243L52.7867 36.4243V23.2993L51.1833 23.6493Z" fill="#4A4644"/>
<path d="M52.2932 34.0484L60.8032 24.2734L60.6306 27.7984L52.5399 35.2484L52.2932 34.0484Z" fill="#4A4644"/>
<path d="M51.4793 35.1977L51.8 33.7977L44.696 24.5977L44.474 27.3977L51.4793 35.1977Z" fill="#4A4644"/>
<path d="M41.3167 58.7L45.362 49L48.544 49.325V50.525L54.9326 50.35L56.166 49H60.31L52.5893 53.425L46.3733 59.625L41.3167 58.7Z" fill="#4A4644"/>
<path d="M46.8667 60.2246L49.358 64.4996L50.5667 69.4246L70.892 61.9246L71.558 53.0746L64.1827 47.9746L46.8667 60.2246Z" fill="#4A4644"/>
<path d="M31.7458 65.85L44.1778 70.625L43.1664 66.525L43.6845 60.925L34.4345 57.5L31.5731 60.575L31.7458 65.85Z" fill="#4A4644"/>
<path d="M46.0281 81.3504L99.8014 107.4L100.295 102.625L48.0014 78.9004L46.0281 81.3504Z" fill="#4A4644"/>
<path d="M50.2214 77.4204L51.4054 78.7954L59.8168 82.6954L53.2554 75.0454L50.2214 77.4204Z" fill="#4A4644"/>
<path d="M45.8551 71.8265L48.7164 75.5515L51.5778 73.5265L48.7164 69.8765L45.8551 71.8265Z" fill="#4A4644"/>
<path d="M47.2611 77.1512L48.2478 78.1512L54.0938 73.6762L53.4278 72.3262L47.2611 77.1512Z" fill="#4A4644"/>
<path d="M52.6634 116.725L71.5581 112.875L64.1828 91.5755L50.2214 84.7505L52.6634 116.725Z" fill="#4A4644"/>
<path d="M34.78 109.098L49.4814 113.148V84.6477L45.1894 81.8477L43.5614 83.1477L40.108 82.6477L34.78 109.098Z" fill="#4A4644"/>
<path d="M21.3367 106.55L28.046 109.45L36.778 94.9747L38.4553 82.6997L21.3367 106.55Z" fill="#4A4644"/>
</g>
</svg>
