<svg width="100" height="100" viewBox="0 0 100 100" fill="none" xmlns="http://www.w3.org/2000/svg">
<mask id="mask0_3393_363577" style="mask-type:alpha" maskUnits="userSpaceOnUse" x="0" y="0" width="100" height="100">
<path d="M50 100C77.6142 100 100 77.6142 100 50C100 22.3858 77.6142 0 50 0C22.3858 0 0 22.3858 0 50C0 77.6142 22.3858 100 50 100Z" fill="#C1BF4B"/>
</mask>
<g mask="url(#mask0_3393_363577)">
<path d="M50 100C77.6142 100 100 77.6142 100 50C100 22.3858 77.6142 0 50 0C22.3858 0 0 22.3858 0 50C0 77.6142 22.3858 100 50 100Z" fill="#C1BF4B"/>
<path d="M28.6874 34.5493L22.9647 49.4493L38.4801 47.7993L40.1327 35.3743L28.6874 34.5493Z" fill="#4A4644"/>
<path d="M45.1646 29.1505L34.5579 25.3755L30.3153 27.3755L27.5773 33.1755L40.7739 34.6755L48.5686 38.6755L45.1646 29.1505Z" fill="#4A4644"/>
<path d="M24.864 50.2748L22.1506 63.8248L49.654 72.6498L55.9193 71.5498L52.6633 60.4998L36.038 49.1748L24.864 50.2748Z" fill="#4A4644"/>
<path d="M53.2061 59.9495L57.5474 70.4495L69.8067 56.8995L64.6514 52.4995L53.2061 59.9495Z" fill="#4A4644"/>
<path d="M22.1507 65.2495L21.608 76.5245L42.846 79.5495L43.9314 70.7245L22.1507 65.2495Z" fill="#4A4644"/>
<path d="M21.608 76.8994L20.2267 82.2994L40.9467 84.2494L42.032 81.4744L21.608 76.8994Z" fill="#4A4644"/>
<path d="M19.1414 83.7007L13.4187 99.1507L29.7727 105.776V85.0007L19.1414 83.7007Z" fill="#4A4644"/>
<path d="M30.5867 85.0747L34.6813 105.5L47.4833 104.675L41.0207 85.0747H30.5867Z" fill="#4A4644"/>
<path d="M40.4039 35.375L39.2939 47.8L42.3033 48.075L42.5746 46.975L44.7453 46.15L47.4833 38.675L40.4039 35.375Z" fill="white"/>
<path d="M40.4041 50L52.0961 59.95L61.0994 54.15L40.4041 50Z" fill="#4A4644"/>
<path d="M46.028 4.47461L63.862 47.0496L66.5506 45.5246L50.7146 8.47461L46.028 4.47461Z" fill="#4A4644"/>
<path d="M68.45 62.9748L74.9866 59.6748L79.0813 65.1998L72.5446 69.5498L68.45 62.9748Z" fill="white"/>
<path d="M64.6514 51.4001L70.6207 56.3501L74.7154 53.0501L70.9167 48.3501L64.6514 51.4001Z" fill="white"/>
<path d="M43.586 79.5504L42.328 85.0754L49.3827 105.225L54.02 102.75L45.2387 85.0754L50.7393 76.5254L43.586 79.5504Z" fill="#4A4644"/>
<path d="M25.1353 17.1504L24.3213 20.2004L45.0166 28.7504L42.846 26.5504L25.1353 17.1504Z" fill="#4A4644"/>
<path d="M62.4561 48.8998L63.2701 51.0998L71.7801 47.0498L69.6834 44.7998L62.4561 48.8998Z" fill="#4A4644"/>
<path d="M73.63 59.6751L71.7307 56.3501L65.7367 62.4251L73.63 59.6751Z" fill="#4A4644"/>
<path d="M74.7401 19.4149L66.9087 27.3521L74.7401 35.2892L82.5714 27.3521L74.7401 19.4149Z" fill="#E98679"/>
</g>
</svg>
