<svg width="200" height="200" viewBox="0 0 200 200" fill="none" xmlns="http://www.w3.org/2000/svg">
<g clip-path="url(#clip0_3867_391557)">
<path d="M-5.5 180.634V5.40039H215.067V245.9L-5.5 180.634Z" fill="url(#paint0_linear_3867_391557)"/>
<path d="M-5.5 180.634V5.40039L215.067 62.5337V123.5L-5.5 180.634Z" fill="#D5AE75"/>
<path d="M-5.5 5.4002L215.067 62.5335V-22.7998L-5.5 5.4002Z" fill="url(#paint1_linear_3867_391557)"/>
<path d="M142.934 55.9669L98.4336 44.4336V139.367L142.934 127.867V55.9669Z" fill="#CCA372"/>
<path d="M81.2987 42.334L36.832 30.834V155.267L81.2987 143.701V42.334Z" fill="#CCA372"/>
<path d="M83.2635 42.334L38.7969 30.834V155.267L83.2635 143.701V42.334Z" fill="#E2B881"/>
<path d="M144.965 56.6339L100.465 45.1006V140.067L144.965 128.534V56.6339Z" fill="#E2B881"/>
<path d="M188.8 68L157.934 60V125.833L188.8 117.833V68Z" fill="#CCA372"/>
<path d="M189.765 68L158.898 60V125.833L189.765 117.833V68Z" fill="#E2B881"/>
<path d="M39.5352 179.101L191.068 139.867" stroke="#BA905A" stroke-width="1.775" stroke-miterlimit="10"/>
<path d="M25.8984 196.433L210.832 148.533" stroke="#BA905A" stroke-width="1.775" stroke-miterlimit="10"/>
<path d="M34.168 210.2L219.135 162.3" stroke="#BA905A" stroke-width="1.775" stroke-miterlimit="10"/>
<path d="M172.168 189.9L96.5352 154.5" stroke="#BA905A" stroke-width="1.775" stroke-miterlimit="10"/>
<path d="M110.567 204.267L34.9336 168.867" stroke="#BA905A" stroke-width="1.775" stroke-miterlimit="10"/>
<path d="M235.032 165.334L159.398 129.934" stroke="#BA905A" stroke-width="1.775" stroke-miterlimit="10"/>
<path d="M34.5 33.5L86.8667 45.7667" stroke="#BA905A" stroke-width="1.775" stroke-miterlimit="10"/>
<path d="M34.668 48.7334L87.0013 57.8334" stroke="#BA905A" stroke-width="1.775" stroke-miterlimit="10"/>
<path d="M34.8672 64L87.1672 69.8667" stroke="#BA905A" stroke-width="1.775" stroke-miterlimit="10"/>
<path d="M35.0352 79.2334L87.3352 81.9334" stroke="#BA905A" stroke-width="1.775" stroke-miterlimit="10"/>
<path d="M35.2344 94.5001L87.4677 93.9668" stroke="#BA905A" stroke-width="1.775" stroke-miterlimit="10"/>
<path d="M35.4336 109.733L87.6336 106.033" stroke="#BA905A" stroke-width="1.775" stroke-miterlimit="10"/>
<path d="M35.6016 125L87.8016 118.1" stroke="#BA905A" stroke-width="1.775" stroke-miterlimit="10"/>
<path d="M35.8008 140.234L87.9341 130.134" stroke="#BA905A" stroke-width="1.775" stroke-miterlimit="10"/>
<path d="M36 155.5L88.1 142.2" stroke="#BA905A" stroke-width="1.775" stroke-miterlimit="10"/>
<path d="M95.9336 49.4004L147.234 62.7337" stroke="#BA905A" stroke-width="1.4509" stroke-miterlimit="10"/>
<path d="M96.1328 63.6006L147.499 72.8673" stroke="#BA905A" stroke-width="1.4509" stroke-miterlimit="10"/>
<path d="M96.3008 77.7666L147.767 83.0333" stroke="#BA905A" stroke-width="1.4509" stroke-miterlimit="10"/>
<path d="M96.5 91.9336L148.033 93.1669" stroke="#BA905A" stroke-width="1.4509" stroke-miterlimit="10"/>
<path d="M96.6992 106.101L148.299 103.334" stroke="#BA905A" stroke-width="1.4509" stroke-miterlimit="10"/>
<path d="M96.8984 120.3L148.565 113.467" stroke="#BA905A" stroke-width="1.4509" stroke-miterlimit="10"/>
<path d="M97.1016 134.467L148.835 123.634" stroke="#BA905A" stroke-width="1.4509" stroke-miterlimit="10"/>
<path d="M157.965 60.2666L190.898 68.5999" stroke="#BA905A" stroke-width="0.8875" stroke-miterlimit="10"/>
<path d="M157.898 69.667L190.798 75.567" stroke="#BA905A" stroke-width="0.8875" stroke-miterlimit="10"/>
<path d="M157.797 79.0332L190.73 82.5332" stroke="#BA905A" stroke-width="0.8875" stroke-miterlimit="10"/>
<path d="M157.73 88.4336L190.664 89.5003" stroke="#BA905A" stroke-width="0.8875" stroke-miterlimit="10"/>
<path d="M157.664 97.8L190.564 96.5" stroke="#BA905A" stroke-width="0.8875" stroke-miterlimit="10"/>
<path d="M157.598 107.167L190.498 103.467" stroke="#BA905A" stroke-width="0.8875" stroke-miterlimit="10"/>
<path d="M157.531 116.567L190.431 110.434" stroke="#BA905A" stroke-width="0.8875" stroke-miterlimit="10"/>
<path d="M157.465 125.934L190.365 117.4" stroke="#BA905A" stroke-width="0.8875" stroke-miterlimit="10"/>
<path d="M185.335 74.4997L163.602 70.5664V115.833L185.502 111.733L185.335 74.4997Z" fill="#CCA372"/>
<path d="M186.368 74.3005L164.602 70.3672V115.634L186.502 111.534L186.368 74.3005Z" fill="#FFE1BD"/>
<path d="M138.132 71.7665L113.398 67.2998V120.1L138.132 116.466V71.7665Z" fill="#FFE1BD"/>
<g opacity="0.6">
<path d="M130.535 93.2C131.902 93.5667 134.168 93.7667 136.168 92.4333H136.135C136.102 92.4333 136.102 92.4334 136.068 92.4C136.035 92.4 136.002 92.3667 135.968 92.3667C135.935 92.3667 135.902 92.3334 135.868 92.3334C135.702 92.3 135.502 92.2334 135.235 92.1667C133.902 91.8334 131.502 91.3667 130.035 92.1334C130.002 92.1667 129.968 92.1667 129.935 92.2C129.968 90.7 130.035 88.7667 130.102 86.8C130.102 86.6334 130.102 86.4333 130.135 86.2667C130.268 83.2333 130.435 80.1334 130.502 78.3667C130.502 78.3667 130.502 78.3667 130.502 78.3334C130.502 78.2334 130.502 78.1334 130.502 78.0334C130.502 77.9334 130.502 77.8334 130.502 77.7667C130.502 77.7 130.502 77.6 130.502 77.5334C130.502 77.4667 130.502 77.4 130.502 77.3334C130.502 77.2667 130.502 77.2334 130.502 77.1667C130.502 77.1667 130.502 77.1667 130.502 77.1334C130.502 77.1 130.502 77.0334 130.502 77C130.502 76.9667 130.502 76.9334 130.502 76.9334C130.502 76.9 130.502 76.9 130.502 76.9C129.768 74.5667 128.368 77.2667 128.368 77.2667C129.568 83.6 128.635 94.1 128.535 95.1C128.502 95.1667 128.468 95.2667 128.468 95.3667C128.468 95.4334 128.468 95.4667 128.502 95.5334C128.868 97.7667 128.168 111.8 128.235 112.067C128.968 114.4 130.268 113.933 130.268 113.933C129.802 111.433 129.635 108.167 129.602 105.033V105.067C129.568 101.7 129.735 98.5667 129.835 96.7667C129.868 96.1 129.902 95.6 129.935 95.3667C129.968 95.3334 129.968 95.3 129.968 95.2667C130.635 97.2333 131.835 99.9667 133.635 101.6C133.635 101.6 132.835 98.8334 131.735 96.4C132.668 97.5 133.868 98.5667 135.202 99.0334C135.168 98.9667 132.602 94.5334 130.535 93.2Z" fill="#707054"/>
<path d="M127.234 113.567C127.234 113.5 127.201 113.4 127.201 113.334V113.3C127.167 113.1 127.134 112.867 127.134 112.6C126.967 110.8 126.867 108.134 126.834 105.367C126.834 105.234 126.834 105.134 126.834 105C126.834 104.967 126.834 104.9 126.834 104.867C126.834 104.767 126.834 104.634 126.834 104.534C126.834 104.5 126.834 104.434 126.834 104.4C126.834 104.267 126.834 104.167 126.834 104.034C126.834 104 126.834 103.967 126.834 103.9C126.834 103.567 126.834 103.267 126.834 102.934V102.9C126.834 102.767 126.834 102.6 126.834 102.467C126.834 102.434 126.834 102.4 126.834 102.4C126.834 102.267 126.834 102.134 126.834 102C126.834 101.967 126.834 101.967 126.834 101.934C126.834 101.767 126.834 101.634 126.834 101.467C126.834 101.134 126.834 100.834 126.834 100.5C126.834 100.367 126.834 100.2 126.834 100.067C126.834 100.034 126.834 100.034 126.834 100.034C126.834 99.9004 126.834 99.7671 126.834 99.6004C126.834 99.1671 126.834 98.7338 126.834 98.3338V98.3004C126.834 98.1671 126.834 98.0671 126.834 97.9338C126.834 97.9338 126.834 97.9338 126.834 97.9004C126.834 97.7671 126.834 97.6338 126.834 97.5338C126.834 96.5338 126.834 95.7004 126.867 95.1671V95.1338C126.867 94.9338 126.867 94.7671 126.867 94.6338C126.867 94.6004 126.867 94.5671 126.867 94.5338C126.867 94.5004 126.867 94.5004 126.867 94.5004V94.4671V94.4338C126.867 94.4338 126.867 94.4338 126.867 94.4004V94.3671C126.901 94.1671 126.834 94.0338 126.734 93.9004C126.934 92.7671 126.334 89.0338 126.234 84.3004C126.234 83.8004 126.201 83.3338 126.201 82.8338C126.201 82.8004 126.201 82.7671 126.201 82.7004C126.201 82.5671 126.201 82.4004 126.201 82.2671C126.201 82.2004 126.201 82.1338 126.201 82.0671C126.201 81.8671 126.201 81.6671 126.201 81.4671C126.201 81.3338 126.201 81.2338 126.201 81.1004C126.201 81.0004 126.201 80.8671 126.201 80.7671C126.201 80.6338 126.201 80.5338 126.201 80.4004C126.201 80.3004 126.201 80.2004 126.201 80.1004C126.201 79.9004 126.234 79.7338 126.234 79.5338C126.234 79.4671 126.234 79.3671 126.234 79.3004C126.234 79.1338 126.267 78.9338 126.267 78.7671C126.267 78.7004 126.267 78.6004 126.301 78.5338C126.301 78.3671 126.334 78.2004 126.334 78.0004C126.334 77.9338 126.334 77.8671 126.367 77.8004C126.401 77.5671 126.401 77.3338 126.434 77.1004C126.434 77.0338 126.434 76.9671 126.467 76.9338C126.501 76.7338 126.501 76.5671 126.534 76.3671C126.534 76.3004 126.567 76.2338 126.567 76.1671C126.601 75.9338 126.634 75.7004 126.667 75.4671C126.667 75.4671 126.667 75.4671 126.634 75.4671C126.634 75.4671 126.634 75.4671 126.601 75.4671H126.567H126.534C126.267 75.4671 125.667 75.5004 125.134 75.7671C125.034 75.8338 124.901 75.9004 124.801 75.9671C124.734 76.0004 124.701 76.0671 124.667 76.1004C124.667 76.1004 124.667 76.1004 124.634 76.1338C124.534 76.2338 124.467 76.3338 124.367 76.4671C124.367 76.4671 124.367 76.5004 124.334 76.5004C124.301 76.5671 124.267 76.6338 124.234 76.7004C124.234 76.7004 124.234 76.7338 124.201 76.7338C124.167 76.8004 124.134 76.8671 124.101 76.9671C123.601 78.5671 124.901 86.4338 124.801 93.6338C124.267 93.5338 123.601 93.4338 122.834 93.4671C122.834 93.4338 122.801 93.3671 122.801 93.3338C122.834 93.3338 122.834 93.3338 122.867 93.3338C122.867 93.3338 122.867 93.3004 122.867 93.2671V93.2338C122.867 93.2338 122.867 93.2338 122.867 93.2004C122.867 93.1671 122.867 93.1671 122.867 93.1338V93.1004C122.867 93.0671 122.867 93.0338 122.867 93.0004V92.9671C122.867 92.9338 122.867 92.9004 122.867 92.8338C122.867 92.7338 122.834 92.6338 122.834 92.5004C122.701 90.9338 122.401 87.2671 122.334 83.3338C122.334 82.9338 122.334 82.5004 122.301 82.1004C122.267 79.3004 122.367 76.4338 122.734 74.1338C122.734 74.1338 122.101 73.9671 121.501 74.6338C121.467 74.6671 121.434 74.7004 121.401 74.7338C121.401 74.7338 121.401 74.7671 121.367 74.7671C121.334 74.8004 121.334 74.8338 121.301 74.8671C121.301 74.8671 121.301 74.9004 121.267 74.9004C121.234 74.9338 121.234 74.9671 121.201 75.0338C121.201 75.0338 121.201 75.0671 121.167 75.0671C121.134 75.1338 121.101 75.1671 121.067 75.2338C121.034 75.3004 121.001 75.3338 121.001 75.4004C121.001 75.4338 120.967 75.4338 120.967 75.4671C120.934 75.5004 120.934 75.5671 120.901 75.6004C120.901 75.6338 120.867 75.6338 120.867 75.6671C120.834 75.7338 120.834 75.7671 120.801 75.8338C120.801 75.8671 120.801 75.8671 120.767 75.9004C120.734 75.9671 120.734 76.0671 120.701 76.1338C120.667 76.2671 120.801 78.5004 121.001 81.3338C120.067 80.7671 117.334 79.3671 114.801 80.6671C114.801 80.6671 118.201 82.6004 120.301 82.1338C119.067 82.8671 117.134 84.3671 115.867 87.0671C115.867 87.0671 119.667 85.2004 121.067 82.6338C121.334 86.8671 121.567 91.8338 121.434 93.0671C121.434 93.0671 121.467 93.0671 121.467 93.1004C121.467 93.2338 121.467 93.3338 121.501 93.4338C121.501 93.4338 121.501 93.5004 121.501 93.5671C120.634 93.7671 119.734 94.1338 118.867 94.8004C118.901 94.8004 120.167 95.1004 121.634 95.1671C121.634 95.3671 121.667 95.5671 121.667 95.8004C120.867 96.4004 120.034 97.2338 119.334 98.3004C119.367 98.3004 120.501 98.0004 121.801 97.4338C122.067 101.634 122.334 108.167 121.667 112.567C121.667 112.567 122.967 112.934 123.634 110.5C123.634 110.5 123.634 110.5 123.634 110.467V110.434C123.634 110.434 123.634 110.434 123.634 110.4C123.634 110.367 123.634 110.367 123.634 110.334V110.3C123.634 110.267 123.634 110.234 123.634 110.234C123.634 110.234 123.634 110.234 123.634 110.2C123.634 110.034 123.634 109.8 123.601 109.534C123.534 108 123.301 104.834 123.134 101.7C123.701 100.7 124.434 99.3004 125.034 97.8671C125.401 101.367 125.867 107.234 125.601 112.667C125.501 115.1 127.334 113.8 127.334 113.8C127.334 113.734 127.301 113.634 127.301 113.534C127.234 113.6 127.234 113.567 127.234 113.567ZM122.967 99.7004C122.934 98.7338 122.867 97.7671 122.834 96.9338C123.501 96.5671 124.167 96.1004 124.701 95.5671C124.701 95.6004 124.701 95.6338 124.701 95.6671C124.167 96.7004 123.501 98.0671 122.967 99.7004Z" fill="#707054"/>
</g>
<path d="M176.532 90.6336C177.332 90.7669 179.332 89.7003 179.666 89.5003C179.699 89.5003 179.699 89.4669 179.732 89.4669H179.766C180.099 89.4003 180.032 89.0003 180.032 88.8003C180.032 88.6003 179.832 88.1669 179.566 88.1669C179.532 88.1669 179.532 88.1669 179.532 88.2003C178.932 87.8336 178.132 87.6003 177.299 87.4669H177.266C177.266 87.4669 177.199 87.4336 177.099 87.4003C176.999 87.3669 176.899 87.3669 176.866 87.3669C176.799 87.3669 176.766 87.3669 176.699 87.3669C176.566 87.3669 176.466 87.3336 176.399 87.3669C175.832 87.3003 175.299 87.2669 174.866 87.2669C174.799 87.2669 174.766 87.2669 174.699 87.2669C174.666 87.2669 174.599 87.2669 174.566 87.2669C174.566 87.2669 174.566 87.2669 174.532 87.2669C174.499 87.2669 174.466 87.2669 174.432 87.2669C174.432 87.2669 174.432 87.2669 174.399 87.2669C174.366 87.2669 174.332 87.2669 174.299 87.2669C174.199 87.2669 174.232 87.3003 174.399 87.3669C174.366 87.3669 174.332 87.3669 174.266 87.3669C174.266 87.3669 174.266 87.3669 174.299 87.3669C173.832 87.3669 173.399 87.4003 172.999 87.4669C172.966 87.4669 172.932 87.4336 172.899 87.4336C172.866 87.4336 172.866 87.4336 172.832 87.4003C172.832 87.4003 172.832 87.4003 172.799 87.4003C172.766 87.4003 172.732 87.3669 172.666 87.3669C172.632 87.3669 172.632 87.3336 172.599 87.3336C172.566 87.3336 172.499 87.3003 172.466 87.3003C172.432 87.3003 172.432 87.2669 172.399 87.2669C172.366 87.2669 172.299 87.2336 172.266 87.2336C172.199 87.2003 172.132 87.2003 172.066 87.1669C172.066 87.1669 172.066 87.1669 172.032 87.1669C171.966 87.1336 171.899 87.1336 171.832 87.1336C171.832 87.1336 171.832 87.1336 171.799 87.1336C171.766 87.1336 171.732 87.1336 171.699 87.1003C171.666 87.1003 171.632 87.1003 171.599 87.0669C171.599 87.0669 171.599 87.0669 171.566 87.0669C171.499 87.0669 171.432 87.0336 171.399 87.0336H171.366C171.299 87.0336 171.232 87.0003 171.199 87.0003H171.166C171.099 87.0003 171.066 87.0003 170.999 86.9669H170.966C170.899 86.9669 170.866 86.9669 170.799 86.9336H170.766C170.699 86.9336 170.666 86.9336 170.599 86.9336H170.566C170.532 86.9336 170.466 86.9336 170.432 86.9336H170.399C170.366 86.9336 170.299 86.9336 170.266 86.9336H170.232C170.199 86.9336 170.132 86.9336 170.099 86.9336H170.066C170.032 86.9336 169.999 86.9336 169.932 86.9336H169.899C169.866 86.9336 169.832 86.9336 169.799 86.9336C169.766 86.9336 169.766 86.9336 169.766 86.9336C169.732 86.9336 169.699 86.9336 169.666 86.9336C169.632 86.9336 169.632 86.9336 169.599 86.9336C169.566 86.9336 169.532 86.9336 169.499 86.9669C169.466 86.9669 169.466 86.9669 169.432 86.9669C169.399 86.9669 169.366 86.9669 169.366 87.0003C169.332 87.0003 169.332 87.0003 169.332 87.0003C169.299 87.0003 169.299 87.0003 169.266 87.0336C169.232 87.0336 169.232 87.0336 169.232 87.0669C169.199 87.0669 169.199 87.1003 169.166 87.1003C169.166 87.1003 169.132 87.1003 169.132 87.1336C169.099 87.1336 169.099 87.1669 169.066 87.1669L169.032 87.2003L168.999 87.2336L168.966 87.2669L168.932 87.3003L168.899 87.3336L168.866 87.3669L168.832 87.4003C168.832 87.4003 168.832 87.4336 168.799 87.4336C168.799 87.4336 168.799 87.4669 168.766 87.4669V87.5003V87.5336V87.5669C168.766 87.6003 168.766 87.6003 168.766 87.6336V87.6669C168.766 87.7003 168.766 87.7336 168.766 87.7669C168.766 87.8003 168.799 87.8336 168.799 87.8669V87.9003C168.799 87.9336 168.832 87.9336 168.832 87.9669C168.832 87.9669 168.832 87.9669 168.832 88.0003C168.832 88.0336 168.866 88.0336 168.866 88.0669C168.866 88.0669 168.899 88.0669 168.899 88.1003C168.899 88.1003 168.932 88.1003 168.932 88.1336C168.932 88.1336 168.966 88.1336 168.966 88.1669C168.966 88.1669 168.966 88.1669 168.999 88.1669C169.032 88.1669 169.066 88.2003 169.099 88.2003C169.599 88.3336 170.466 87.9336 171.532 87.7669C171.599 87.7669 171.666 87.7336 171.699 87.7336H171.732C171.799 87.7336 171.832 87.7336 171.899 87.7003H171.932C171.999 87.7003 172.032 87.7003 172.099 87.7003C172.099 87.7003 172.099 87.7003 172.132 87.7003C172.266 87.7003 172.399 87.7003 172.532 87.7003H172.566C172.566 87.7003 172.566 87.7003 172.599 87.7003C170.899 88.0336 169.566 88.7669 168.599 90.1336C168.599 90.1336 168.599 90.1336 168.599 90.1669C168.532 90.2669 168.466 90.3669 168.399 90.4669C168.399 90.5003 168.366 90.5336 168.366 90.5336C168.299 90.6669 168.232 90.7669 168.166 90.9003C168.099 91.0003 168.066 91.1003 168.032 91.2003C168.032 91.2336 167.999 91.2669 167.999 91.3003C167.966 91.3669 167.966 91.4336 167.932 91.5003C167.932 91.5336 167.899 91.5669 167.899 91.6003C167.866 91.6669 167.866 91.7336 167.866 91.7669C167.866 91.8003 167.866 91.8336 167.832 91.9003C167.832 91.9669 167.799 92.0003 167.799 92.0669C167.799 92.1003 167.799 92.1336 167.799 92.2003C167.799 92.2669 167.799 92.3336 167.799 92.3669C167.799 92.4003 167.799 92.4336 167.799 92.4669C167.799 92.5336 167.799 92.6003 167.799 92.6669C167.799 92.7003 167.799 92.7336 167.799 92.7669C167.799 92.8669 167.832 92.9336 167.832 93.0336C167.832 93.0669 167.832 93.1003 167.866 93.1336C167.866 93.2003 167.899 93.2669 167.899 93.3003C167.899 93.3336 167.932 93.3669 167.932 93.4336C167.932 93.4669 167.966 93.5336 167.966 93.5669C167.966 93.6003 167.999 93.6336 167.999 93.7003C167.999 93.7336 168.032 93.7669 168.032 93.8336C167.499 94.6336 165.799 94.8336 166.432 95.2669C167.032 95.7003 168.066 95.2669 168.266 94.3669C168.266 94.4003 168.299 94.4003 168.299 94.4336C168.332 94.4669 168.332 94.5003 168.366 94.5336C168.432 94.6336 168.499 94.7336 168.566 94.8336C168.566 94.8336 168.566 94.8336 168.566 94.8669C169.032 95.5336 169.599 96.0336 170.032 96.3336L169.366 97.2669C169.399 97.2336 169.432 97.1669 169.466 97.1336C168.466 98.7003 167.699 100.967 171.232 100.867C173.199 100.8 173.132 99.8669 172.532 98.7669C172.566 98.7669 172.599 98.7669 172.632 98.7669H172.666C172.699 98.7669 172.766 98.7669 172.832 98.7669H172.866C172.932 98.7669 172.966 98.7669 173.032 98.7669H173.066C173.132 98.7669 173.166 98.7669 173.232 98.7336H173.266C173.332 98.7336 173.399 98.7003 173.466 98.7003C173.599 98.6669 173.766 98.6336 173.932 98.5669C176.666 97.6669 172.966 96.5669 170.799 96.0003L170.532 95.5669C170.532 95.2003 170.599 94.8669 170.699 94.5669C170.732 94.6003 170.766 94.6003 170.799 94.6336C170.799 94.6336 170.832 94.6336 170.832 94.6669C170.866 94.6669 170.866 94.7003 170.899 94.7003H170.932C170.966 94.7003 170.966 94.7003 170.999 94.7003H171.032H171.066C171.166 94.7003 171.266 94.6669 171.366 94.6336C171.732 94.4336 171.566 94.2669 171.332 94.0669C171.266 94.0003 171.132 93.8336 171.032 93.7003C171.332 93.2003 171.766 92.7669 172.232 92.4003C172.266 92.3669 172.332 92.3336 172.399 92.3003C172.432 92.2669 172.466 92.2669 172.499 92.2336C172.566 92.2003 172.599 92.1669 172.666 92.1336C172.699 92.1003 172.732 92.1003 172.766 92.0669C172.866 92.0003 172.966 91.9336 173.066 91.9003C173.332 91.8003 173.632 91.6669 173.966 91.5336C173.966 91.5336 173.966 91.5336 173.932 91.5336C173.932 91.5336 173.899 91.5336 173.899 91.5669C173.832 91.6003 173.799 91.6669 173.732 91.7003C173.699 91.7336 173.632 91.8003 173.599 91.8336C173.599 91.8336 173.599 91.8336 173.566 91.8669C173.532 91.9003 173.499 91.9669 173.466 92.0003C173.466 92.0003 173.466 92.0003 173.432 92.0336C173.399 92.0669 173.366 92.1336 173.332 92.1669C173.299 92.2003 173.299 92.2669 173.266 92.3003C173.266 92.3336 173.232 92.3669 173.232 92.4336C173.232 92.4336 173.232 92.4336 173.232 92.4669C173.232 92.5003 173.232 92.5336 173.232 92.5669C173.232 92.6003 173.232 92.6336 173.266 92.6669C173.266 92.7003 173.299 92.7336 173.299 92.7669C173.332 92.8003 173.332 92.8336 173.366 92.8336C173.399 92.8669 173.432 92.8669 173.466 92.9003C173.566 92.9669 173.732 93.0003 173.899 92.9669C174.532 92.9336 174.532 92.6669 174.532 92.3003C174.532 92.1003 174.566 91.6669 174.732 91.4003C174.799 91.3336 174.866 91.2669 174.932 91.1669C175.132 91.1336 175.266 91.1003 175.332 91.0336C175.366 91.0336 175.399 91.0336 175.432 91.0003C175.466 91.0003 175.499 91.0003 175.499 90.9669C175.566 90.9669 175.599 90.9336 175.666 90.9336C175.799 90.9003 175.932 90.8669 176.032 90.8669C176.032 90.8669 176.032 90.8669 176.066 90.8669C176.199 90.8336 176.332 90.8336 176.432 90.8003C176.432 90.6003 176.499 90.6336 176.532 90.6336Z" fill="#A5A48C"/>
<path d="M184.967 92.9332C184.801 92.6665 184.434 92.8665 184.334 93.3999V93.3665V93.3332C184.167 92.7999 183.934 92.3665 183.734 92.1332L184.001 91.5999C184.001 91.6332 183.967 91.6332 183.967 91.6665C184.367 90.8332 184.701 89.5999 183.334 88.9999C182.367 88.5665 182.401 89.2665 182.667 90.1665C182.634 90.1665 182.634 90.1665 182.601 90.1332C182.601 90.1332 182.601 90.1332 182.567 90.1332C182.534 90.1332 182.501 90.0999 182.501 90.0999C182.501 90.0999 182.501 90.0999 182.467 90.0999C182.434 90.0999 182.401 90.0999 182.367 90.0665C182.367 90.0665 182.367 90.0665 182.334 90.0665C182.301 90.0665 182.267 90.0665 182.234 90.0665C182.234 90.0665 182.234 90.0665 182.201 90.0665C182.167 90.0665 182.134 90.0665 182.101 90.0665C182.001 90.0665 181.934 90.0665 181.834 90.0665C179.967 90.2332 182.301 91.6999 183.334 92.2999L183.434 92.5999C183.434 92.8332 183.401 93.0665 183.334 93.2665C183.334 93.2332 183.301 93.2332 183.301 93.2332C183.301 93.2332 183.267 93.2332 183.267 93.1999C183.267 93.1999 183.267 93.1999 183.234 93.1999H183.201C183.201 93.1999 183.201 93.1999 183.167 93.1999C183.134 93.1999 183.067 93.1999 183.034 93.2332C182.834 93.3665 182.934 93.4665 183.034 93.6332C183.067 93.6999 183.134 93.7999 183.167 93.8999C183.001 94.2332 182.801 94.5665 182.567 94.7999C182.534 94.8332 182.501 94.8665 182.501 94.8999C182.467 94.9332 182.467 94.9332 182.434 94.9665C182.401 94.9999 182.367 95.0332 182.334 95.0332L182.301 95.0665C182.234 95.0999 182.201 95.1665 182.134 95.1999C181.967 95.2999 181.801 95.4332 181.601 95.5332C181.601 95.5332 181.601 95.5332 181.634 95.4999C181.667 95.4665 181.701 95.4332 181.734 95.3999C181.767 95.3665 181.801 95.3332 181.801 95.2999C181.834 95.2665 181.834 95.2332 181.867 95.1999C181.867 95.1999 181.867 95.1999 181.867 95.1665C181.901 95.1332 181.901 95.0999 181.934 95.0665C181.934 95.0332 181.967 94.9999 181.967 94.9665C181.967 94.9332 182.001 94.8999 182.001 94.8665C182.001 94.8332 182.001 94.7999 182.001 94.7665C182.001 94.7332 182.001 94.6999 182.001 94.6999C182.001 94.6665 182.001 94.6665 181.967 94.6332C181.967 94.5999 181.934 94.5999 181.934 94.5665C181.934 94.5332 181.901 94.5332 181.901 94.5332C181.834 94.4999 181.767 94.4665 181.667 94.4999C181.267 94.5332 181.267 94.7665 181.267 95.0332C181.267 95.1999 181.234 95.5332 181.101 95.7665C181.067 95.8332 181.001 95.8999 180.967 95.9665C180.834 95.9999 180.734 96.0665 180.701 96.0999C180.667 96.0999 180.667 96.1332 180.634 96.1332C180.634 96.1332 180.601 96.1332 180.601 96.1665C180.567 96.1665 180.534 96.1999 180.501 96.1999C180.301 96.2999 180.101 96.3665 179.901 96.4332C179.834 96.4332 179.801 96.3999 179.734 96.3999C179.067 96.3665 176.934 97.8999 176.534 98.1999C176.501 98.2332 176.501 98.2332 176.467 98.2665C176.434 98.2665 176.434 98.2665 176.401 98.2999C175.967 98.4999 176.001 98.9332 176.001 99.1665C176.001 99.3665 176.201 99.8332 176.567 99.6999C176.601 99.6999 176.601 99.6665 176.634 99.6665C177.301 99.7999 178.167 99.7332 178.967 99.5999H179.001C179.001 99.5999 179.067 99.5999 179.134 99.5999C179.234 99.5999 179.301 99.5665 179.334 99.5332C179.401 99.5332 179.434 99.4999 179.467 99.4999C179.567 99.4665 179.667 99.4332 179.701 99.3999C180.267 99.2665 180.734 99.0999 181.034 98.9332C181.067 98.9332 181.101 98.8999 181.101 98.8999C181.134 98.8999 181.167 98.8665 181.167 98.8665C181.234 98.8332 181.201 98.8332 181.101 98.7999C181.134 98.7999 181.167 98.7665 181.167 98.7665C181.434 98.6665 181.701 98.5332 181.934 98.3999C182.034 98.4332 182.134 98.4332 182.234 98.4332C182.267 98.4332 182.301 98.4332 182.334 98.4332C182.367 98.4332 182.401 98.4332 182.434 98.4332C182.467 98.4332 182.501 98.4332 182.534 98.4332C182.567 98.4332 182.601 98.4332 182.634 98.4332C182.667 98.4332 182.701 98.4332 182.734 98.4332C182.767 98.4332 182.801 98.4332 182.834 98.4332C182.867 98.4332 182.901 98.4332 182.901 98.3999C182.934 98.3999 182.967 98.3999 182.967 98.3665C183.001 98.3665 183.001 98.3665 183.034 98.3332C183.034 98.3332 183.034 98.3332 183.067 98.3332C183.101 98.3332 183.101 98.3332 183.134 98.2999C183.134 98.2999 183.134 98.2999 183.167 98.2999C183.201 98.2999 183.201 98.2999 183.234 98.2665C183.234 98.2665 183.234 98.2665 183.267 98.2665C183.301 98.2665 183.301 98.2665 183.334 98.2332C183.334 98.2332 183.334 98.2332 183.367 98.2332C183.401 98.2332 183.401 98.1999 183.401 98.1999C183.401 98.1999 183.401 98.1999 183.434 98.1999L183.467 98.1665C183.467 98.1665 183.467 98.1665 183.501 98.1665L183.534 98.1332C183.534 98.1332 183.534 98.1332 183.567 98.1332L183.601 98.0999C183.601 98.0999 183.601 98.0999 183.634 98.0665L183.667 98.0332C183.667 98.0332 183.667 98.0332 183.701 97.9999C183.701 97.9999 183.734 97.9999 183.734 97.9665C183.734 97.9665 183.734 97.9665 183.767 97.9332C183.767 97.9332 183.767 97.9332 183.801 97.8999C183.801 97.8999 183.801 97.8999 183.834 97.8665C183.834 97.8665 183.834 97.8665 183.867 97.8332C183.867 97.8332 183.867 97.7999 183.901 97.7999C183.901 97.7999 183.901 97.7999 183.901 97.7665C183.901 97.7665 183.901 97.7332 183.934 97.7332C183.934 97.7332 183.934 97.7332 183.934 97.6999V97.6665C183.934 97.6665 183.934 97.6665 183.934 97.6332V97.5999C183.934 97.5999 183.934 97.5999 183.934 97.5665V97.5332C183.934 97.5332 183.934 97.5332 183.934 97.4999V97.4665C183.934 97.4665 183.934 97.4665 183.934 97.4332V97.3999V97.3665C183.934 97.3332 183.934 97.3332 183.934 97.2999V97.2665C183.934 97.2665 183.934 97.2332 183.901 97.2332H183.867C183.667 97.2332 183.301 97.5999 182.801 97.8999C182.767 97.9332 182.734 97.9332 182.701 97.9665C182.667 97.9665 182.634 97.9999 182.634 97.9999C182.634 97.9999 182.634 97.9999 182.601 97.9999C182.567 97.9999 182.534 98.0332 182.501 98.0332C182.434 98.0665 182.367 98.0999 182.301 98.0999C182.301 98.0999 182.301 98.0999 182.267 98.0999C183.101 97.5665 183.701 96.8999 184.101 95.9665C184.134 95.8999 184.167 95.8332 184.201 95.7665C184.201 95.7665 184.201 95.7332 184.234 95.7332C184.267 95.6665 184.301 95.5665 184.334 95.4999C184.367 95.4332 184.367 95.3665 184.401 95.3332C184.401 95.2999 184.401 95.2999 184.401 95.2665C184.401 95.2332 184.434 95.1999 184.434 95.1332C184.434 95.0999 184.434 95.0999 184.434 95.0665C184.434 95.0332 184.434 94.9999 184.467 94.9665C184.467 94.9332 184.467 94.9332 184.467 94.8999C184.467 94.8665 184.467 94.8332 184.467 94.7999C184.467 94.7665 184.467 94.7665 184.467 94.7332C184.467 94.6999 184.467 94.6665 184.467 94.6332C184.467 94.5999 184.467 94.5999 184.467 94.5665C184.467 94.5332 184.467 94.4999 184.467 94.4665C184.467 94.4332 184.467 94.4332 184.467 94.3999C184.467 94.3332 184.467 94.2999 184.467 94.2332C184.467 94.1999 184.467 94.1999 184.467 94.1665C184.467 94.1332 184.467 94.0999 184.467 94.0665C184.467 94.0332 184.467 93.9999 184.467 93.9999C184.467 93.9665 184.467 93.9332 184.467 93.9332C184.467 93.8999 184.467 93.8665 184.467 93.8665C184.467 93.8332 184.467 93.8332 184.467 93.7999C184.601 93.2665 185.134 93.1999 184.967 92.9332Z" fill="#A5A48C"/>
<path d="M27.8995 166L27.6328 171.1L199.166 126.7V122.9L27.8995 166Z" fill="#E2B881"/>
<path d="M27.8995 166.934L27.6328 172.034L199.166 127.601V123.834L27.8995 166.934Z" fill="#BA905A"/>
<path d="M25.8659 14.9336L23.1992 19.3336L195.099 62.2003L196.899 58.9003L25.8659 14.9336Z" fill="#E2B881"/>
<path d="M27.9323 14.2666L25.2656 18.6333L197.166 61.5333L198.966 58.1999L27.9323 14.2666Z" fill="#BA905A"/>
<path opacity="0.37" d="M75.6018 153.601L75.4685 143.267L78.1685 144.801L80.1018 120.701L76.8018 82.7005L69.7685 72.8672L68.6685 68.7339L66.2685 68.5005L69.8685 57.6005L66.3352 46.2005H66.2685V46.1339L67.9018 46.2005L67.8018 44.5339L62.4018 43.5672L62.0018 44.4005L56.1352 42.8672L56.0685 44.9339L52.7352 48.4339L52.6018 61.7672L55.3685 69.9672L57.9018 70.3672L57.9352 72.7339L45.6018 83.6339L41.8685 99.7005L36.5352 131.001L40.5685 136.134L39.0685 148.901L42.0018 154.101L43.8352 153.701L45.3352 154.101L45.6018 161.367L89.3018 216.834L132.702 198.167L75.6018 153.601Z" fill="#AF8454"/>
<path d="M75.8008 136.368L87.9341 148.635L84.2341 213.501L105.101 218.568L114.901 213.968L124.101 214.435L130.234 210.601L134.534 209.835L124.867 148.635L128.267 150.168L130.701 126.101L126.567 88.068L117.667 78.268L116.301 74.1347L113.267 73.9014L107.801 74.568L87.4008 88.9347L82.8008 105.035L75.8008 136.368Z" fill="#FCECD9"/>
<path d="M75.8341 136.268L82.5341 105.101L87.2341 89.101C87.2341 89.0677 87.2674 89.0343 87.3008 89.001L101.501 79.0343C101.701 78.901 101.901 79.1343 101.767 79.3343C98.4008 83.001 89.0674 93.101 89.0008 93.201C88.9341 93.301 85.4341 115.568 85.3341 116.168V116.201L85.2341 133.801C85.2341 134.001 84.9675 134.068 84.8675 133.901L82.1008 129.268C82.0008 129.101 81.7674 129.168 81.7341 129.334L80.3341 137.468C80.3341 137.501 80.3341 137.568 80.3675 137.601L86.6674 146.834C86.8008 147.034 86.5341 147.234 86.3675 147.068L75.8675 136.534C75.8341 136.401 75.8008 136.334 75.8341 136.268Z" fill="#EAD7C3"/>
<path d="M108.867 79.768L114.167 78.6347L116.734 77.7014L115.767 75.368L113.267 73.9014L116.301 74.1347L117.667 78.268L114.467 79.568L108.867 79.768Z" fill="#EAD7C3"/>
<path d="M97.1005 147.467L97.6672 136.001C97.6672 136.001 97.6672 136.001 97.6672 135.967L96.8672 120.901C96.8672 120.867 96.8672 120.834 96.8672 120.801L99.1339 114.534C99.1339 114.501 99.1339 114.467 99.1339 114.467L98.7339 100.734C98.7339 100.467 99.1339 100.434 99.1672 100.701L101.401 115.634C101.401 115.667 101.401 115.701 101.401 115.767L98.7339 122.134C98.7339 122.167 98.7005 122.201 98.7005 122.234L98.7672 136.434C98.7672 136.667 99.0672 136.734 99.1672 136.567L105.501 126.401C105.534 126.334 105.601 126.301 105.701 126.301L112.834 126.201L118.701 126.101L113.501 126.701C113.334 126.734 113.267 126.901 113.334 127.034L115.934 131.501C115.967 131.534 115.967 131.601 115.967 131.634L115.301 140.934C115.267 141.201 114.901 141.201 114.867 140.934L113.701 132.434C113.701 132.401 113.701 132.367 113.667 132.334L111.234 128.334C111.201 128.267 111.134 128.234 111.067 128.234L107.701 127.834C107.634 127.834 107.567 127.867 107.501 127.901L98.8672 138.134C98.8339 138.167 98.8339 138.201 98.8005 138.234L97.5672 147.534C97.5005 147.801 97.1005 147.734 97.1005 147.467Z" fill="#EAD7C3"/>
<path d="M87.8331 148.435L94.9997 216.535L87.0664 210.435L90.0997 153.868L93.8664 153.235L90.2664 150.568L87.8331 148.435Z" fill="#EAD7C3"/>
<path d="M98.5687 186.468L104.469 150.701C104.502 150.468 104.869 150.501 104.835 150.735L103.169 168.601V168.635L98.9354 186.501C98.8687 186.768 98.5354 186.701 98.5687 186.468Z" fill="#EAD7C3"/>
<path d="M109.535 184.101L109.968 155.301C109.968 155.068 110.302 155.034 110.335 155.268L111.902 164.401C111.902 164.434 111.902 164.434 111.902 164.468L109.902 184.134C109.902 184.368 109.535 184.334 109.535 184.101Z" fill="#EAD7C3"/>
<path d="M113.099 205.234L112.699 178.234V178.201L116.233 157.867C116.266 157.634 116.633 157.667 116.599 157.901L113.466 205.234C113.466 205.501 113.133 205.501 113.099 205.234Z" fill="#EAD7C3"/>
<path d="M108.134 120.467L110.268 117.401C110.268 117.401 110.301 117.367 110.301 117.334L111.834 112.601L110.801 117.867C110.801 117.867 110.801 117.867 110.801 117.901L110.401 119.167C110.368 119.267 110.434 119.401 110.568 119.401L118.801 120.067C118.868 120.067 118.968 120.134 118.968 120.201L119.468 122.234C119.534 122.434 119.234 122.567 119.101 122.367L118.001 120.434C117.968 120.367 117.901 120.334 117.834 120.334L109.934 120.601L108.268 120.667C108.134 120.767 108.034 120.601 108.134 120.467Z" fill="#EAD7C3"/>
<path d="M99.3359 126.834L103.103 123.001C103.169 122.934 103.303 122.934 103.369 123.001L103.669 123.368L108.869 114.434V114.401L111.803 105.701V105.668L112.936 97.0009C112.969 96.7676 112.603 96.7009 112.569 96.9343L110.236 108.168C110.236 108.168 110.236 108.168 110.236 108.201L107.903 115.568C107.903 115.601 107.869 115.601 107.869 115.634L99.3359 126.834Z" fill="#EAD7C3"/>
<path d="M100.935 113.301L104.502 107.567L106.435 101.834L103.068 108.334L100.535 112.634L100.935 113.301Z" fill="#EAD7C3"/>
<path d="M121.902 196.468L121.035 182.168C121.035 182.168 121.035 182.168 121.035 182.134L122.635 154.768L122.168 182.834L122.268 196.468C122.302 196.701 121.935 196.734 121.902 196.468Z" fill="#EAD7C3"/>
<path d="M128.301 210.867L127.867 195.801L131.867 210.001L129.867 209.734L128.301 210.867Z" fill="#B2AFAA"/>
<path d="M119.832 123.001L122.466 114.568C122.466 114.534 122.466 114.534 122.466 114.501L122.132 95.0676C122.132 94.8342 122.499 94.8009 122.499 95.0342L124.899 114.401C124.899 114.434 124.899 114.468 124.866 114.501L119.499 125.668C119.466 125.701 119.432 125.734 119.399 125.768L118.766 126.034L119.832 123.601C119.832 123.568 119.832 123.534 119.832 123.534V123.034C119.832 123.034 119.832 123.034 119.832 123.001Z" fill="#EAD7C3"/>
<path d="M120.766 126.567L123.066 128.167L124.466 147.834L121.799 128.867L120.766 126.567Z" fill="#EAD7C3"/>
<path d="M116.068 62.8014L113.268 73.9014L107.635 74.7014L106.102 75.768V75.8014L102.802 78.1014L102.768 77.8014L102.735 75.768L99.5352 75.3347L96.0352 67.1347L96.2352 53.8347L100.402 50.3014L103.702 50.1347L107.168 49.9014L113.035 50.968L116.068 62.8014Z" fill="#FFDDCA"/>
<path d="M106.103 75.7685L103.969 77.0685C103.436 77.4018 102.769 77.0351 102.769 76.4018C102.769 76.0018 102.469 75.7018 102.069 75.6351L100.003 75.3685C99.7359 75.3351 99.4693 75.1351 99.3693 74.9018L96.1359 67.2685C96.1026 67.1685 96.0693 67.0685 96.0693 66.9351L95.8359 54.1685C96.3359 52.4018 100.203 50.4351 100.203 50.4351C100.336 50.3351 100.503 50.2685 100.669 50.2351L103.069 50.1018C103.436 50.0685 103.769 50.3018 103.869 50.6351L112.603 51.6018C113.203 51.4685 103.569 65.1351 103.569 65.1351C103.569 65.2018 103.569 65.2685 103.603 65.3351L106.103 75.7685Z" fill="#DDBFAF"/>
<path d="M105.602 126.268L118.735 126.068L119.835 123.601L117.968 120.435L107.902 120.801L105.602 126.268Z" fill="#636363"/>
<path d="M97.3331 59.3006C97.1331 59.8006 97.2331 60.3339 97.5664 60.7673C98.1664 61.5339 99.0998 62.7339 99.1664 62.8673C99.2331 63.0006 101.1 63.2339 102.166 63.3673C102.633 63.4339 103.033 63.6673 103.3 64.0673L108.133 72.0673C108.4 72.5339 108.933 72.8006 109.466 72.8006L112.466 72.6673C113.033 72.6339 113.533 72.3006 113.766 71.8006L117.566 63.5339C117.733 63.1673 117.733 62.7339 117.6 62.3673L113.766 52.5673C113.533 51.9673 112.933 51.6006 112.3 51.6006L101 52.1673C100.4 52.2006 99.8998 52.5672 99.6664 53.1339L97.3331 59.3006Z" fill="#636363"/>
<path d="M100.534 48.2676L100.434 50.9009L107.867 51.2676L108.1 51.0009L108.667 51.4342L115.334 51.5676L115.2 49.9009L108.4 48.9342L107.867 49.8009L100.534 48.2676Z" fill="#636363"/>
<path d="M80.9 141.435L79 154.301L82.7 159.468L85 159.068L86.9 159.468L87.8 148.468L80.9 141.435Z" fill="#FFDDCA"/>
<path d="M98.8008 138.134L107.534 127.801L111.167 128.201L113.634 132.101L115.101 142.734L114.434 131.634L111.701 126.401L117.534 126.067L110.267 126.167L107.167 126.234L98.8008 138.134Z" fill="#CEBDAE"/>
<path d="M98.869 104.435L99.169 114.468C99.169 114.501 99.169 114.535 99.169 114.535L96.9023 120.801C96.9023 120.835 96.9023 120.868 96.9023 120.901L97.4023 130.435C97.4023 130.735 97.8357 130.701 97.8357 130.435L98.0357 120.801C98.0357 120.768 98.0357 120.735 98.0357 120.735L100.536 114.601C100.536 114.568 100.569 114.535 100.536 114.501L100.469 114.135C100.469 114.101 100.469 114.035 100.502 114.001L103.469 107.535L101.236 111.401C101.136 111.568 100.869 111.535 100.836 111.335L99.3023 104.368C99.2357 104.135 98.869 104.168 98.869 104.435Z" fill="#CEBDAE"/>
<path d="M122.299 105.267L122.466 114.501C122.466 114.534 122.466 114.534 122.466 114.567L119.832 123.001C119.832 123.034 119.832 123.034 119.832 123.067V123.567C119.832 123.601 119.832 123.634 119.832 123.634L118.766 126.067L121.299 121.434V121.401L123.432 113.967C123.432 113.934 123.432 113.934 123.432 113.901L122.666 105.301C122.632 105.001 122.266 105.034 122.299 105.267Z" fill="#CEBDAE"/>
<path d="M93.5341 153.234L88.4341 150.468L86.1341 205.134L84.3008 212.501L87.8008 148.468L93.5341 153.234Z" fill="#CEBDAE"/>
<path d="M108.134 120.468L110.267 117.401C110.267 117.401 110.3 117.368 110.3 117.334L111.467 113.734L110.434 117.868V117.901L109.2 120.601C109.167 120.668 109.1 120.701 109.034 120.701L108.3 120.734C108.134 120.768 108.034 120.601 108.134 120.468Z" fill="#CEBDAE"/>
<path d="M99.3359 126.834L104.669 120.534C104.669 120.534 104.669 120.534 104.669 120.501L107.936 115.567L99.3359 126.834Z" fill="#CEBDAE"/>
<path d="M120.836 126.734L122.603 128.934L123.203 138.734L121.803 128.868L120.836 126.734Z" fill="#CEBDAE"/>
<path d="M115.566 168.168L113.633 177.335V177.368V196.335C113.633 196.568 113.999 196.601 113.999 196.335L115.933 168.201C115.966 167.968 115.599 167.935 115.566 168.168Z" fill="#CEBDAE"/>
<path d="M113.902 79.0676C114.002 79.0342 117.268 77.7676 117.268 77.7676L115.335 78.9342L111.102 79.5009L113.902 79.0676Z" fill="#9EB1BA"/>
<path d="M112.066 99.4346L110.333 107.735L109.066 111.901L111.233 106.568L112.066 99.4346Z" fill="#CEBDAE"/>
<path d="M83.2333 144.134L82.3667 152.767L84.3667 158.234L86.6 159.4L85 159.067L82.7 159.467L79 154.3L80.9 141.434L83.2333 144.134Z" fill="#DDBFAF"/>
<path d="M87.001 157.2L86.201 154.334L86.9677 149.767L86.501 148.2L83.2344 144.134L87.8344 148.567L87.001 157.2Z" fill="#DDBFAF"/>
<path d="M50.3672 54.2002V128.234L75.0005 124.634V57.8335L50.3672 54.2002ZM71.8339 121.1L56.2339 121.5L52.1005 122.967L54.3672 95.7669V78.9669L55.3672 71.7002L55.1339 66.8335L52.4672 55.4335L55.5005 62.6335L57.6005 61.0335L60.3339 70.8002L61.2005 61.0335L65.1672 67.0335L67.5005 62.5002L69.2339 65.9002L73.4672 57.6669L71.8339 75.8669L70.2339 80.7335L71.8339 82.9002V99.0002L74.1672 111.834L71.8339 121.1Z" fill="#B28C64"/>
<path d="M50.0664 54.0996V128.7L76.0664 124.9L76.6997 124.8V57.9996L50.0664 54.0996ZM72.8664 121.833L71.3331 121.033L68.6997 121.7L65.9664 120.8L63.2331 121.933L62.7331 121.533L60.1997 122.9L57.7664 122.233H57.2664L53.1331 123.7L54.0331 120.4L53.6997 117.6L54.6331 116.033L54.4664 112.833L55.5331 111.133L54.6664 107.033L55.3997 96.4996L57.1997 98.7329L55.3997 93.6663L57.4664 93.3996L55.3997 86.3996L57.6664 89.5329L55.3997 79.6996L57.8331 80.8996L56.3997 72.4329L56.1664 67.5663L53.4997 56.1663L56.5331 63.3663L58.6331 61.7663L61.3664 71.5329L62.2331 61.7663L66.1997 67.7663L68.5331 63.2329L70.2664 66.6329L74.4997 58.3996L72.8664 76.5996L71.2664 81.4663L72.8664 83.6329V92.4996L71.6331 104.166L72.8664 99.7663L75.1997 112.6L72.8664 121.833Z" fill="#FFE1BD"/>
<path d="M50.0677 54.2002H48.7344V128.667H50.0677V54.2002Z" fill="#B28C64"/>
</g>
<defs>
<linearGradient id="paint0_linear_3867_391557" x1="129.994" y1="143.058" x2="149.632" y2="182.032" gradientUnits="userSpaceOnUse">
<stop stop-color="#C49B65"/>
<stop offset="1" stop-color="#D5AE75"/>
</linearGradient>
<linearGradient id="paint1_linear_3867_391557" x1="108.609" y1="27.881" x2="124.319" y2="2.9056" gradientUnits="userSpaceOnUse">
<stop stop-color="#C49B65"/>
<stop offset="1" stop-color="#D5AE75"/>
</linearGradient>
<clipPath id="clip0_3867_391557">
<rect width="200" height="200" rx="100" fill="white"/>
</clipPath>
</defs>
</svg>
