<svg id="eRpiu5HqKX41" xmlns="http://www.w3.org/2000/svg" xmlns:xlink="http://www.w3.org/1999/xlink" viewBox="0 0 400 401" shape-rendering="geometricPrecision" text-rendering="geometricPrecision"><defs><linearGradient id="eRpiu5HqKX44-fill" x1="196.638" y1="-115.079" x2="203.185" y2="502.105" spreadMethod="pad" gradientUnits="userSpaceOnUse" gradientTransform="translate(0 0)"><stop id="eRpiu5HqKX44-fill-0" offset="0%" stop-color="#2e3f72"/><stop id="eRpiu5HqKX44-fill-1" offset="15.45%" stop-color="#3d4976"/><stop id="eRpiu5HqKX44-fill-2" offset="44.95%" stop-color="#63637f"/><stop id="eRpiu5HqKX44-fill-3" offset="85.17%" stop-color="#a08d8f"/><stop id="eRpiu5HqKX44-fill-4" offset="93%" stop-color="#ad9692"/><stop id="eRpiu5HqKX44-fill-5" offset="94.44%" stop-color="#ba8d7c"/><stop id="eRpiu5HqKX44-fill-6" offset="97.43%" stop-color="#dd7644"/><stop id="eRpiu5HqKX44-fill-7" offset="100%" stop-color="#fd610f"/></linearGradient><linearGradient id="eRpiu5HqKX473-fill" x1="198.408" y1="416.085" x2="199.429" y2="262.893" spreadMethod="pad" gradientUnits="userSpaceOnUse" gradientTransform="translate(0 0)"><stop id="eRpiu5HqKX473-fill-0" offset="0%" stop-color="#162333"/><stop id="eRpiu5HqKX473-fill-1" offset="100%" stop-color="#223551"/></linearGradient></defs><g clip-path="url(#eRpiu5HqKX4152)"><g><path d="M409.333,-9.5L-10,-9.5v362.667h419.333v-362.667Z" transform="translate(-.2685 0)" fill="url(#eRpiu5HqKX44-fill)"/><path d="M283.332,267.567c.267-.533.533-1.133.933-1.666-.2-.2-.266-.334-.266-.334.066-.066.066-.066.133-.133-.067,0-.133-.067-.133-.067s0,0,0-.066c-.2-.2-.4-.4-.667-.734v3Z" fill="#545e7f"/><path d="M283.332,279.168v4.333c.8-.4,2.067-.866,3.6-.666-.133-.134-.2-.334-.333-.534-1.2-1.933-2.467-2.733-3.267-3.133Z" fill="#545e7f"/><path d="M293.602,264.835v1.4c.733-.2,1.866-.667,3.133-1.867-.8-.067-1.8.067-3.133.467Z" fill="#545e7f"/><path d="M297.802,263.168c.133-.2.266-.334.4-.534-2.667,0-4.267-1.533-4.6-1.866v1.8c1.533.2,2.8.733,3.6,1.2.266-.134.4-.334.6-.6Z" fill="#545e7f"/><path d="M286.932,284.835c-1.6-.933-2.8-1-3.6-1v9.333h8.6v-5.2c-.133-.866-.467-1.933-1.133-3-.667.467-1.934,1-3.867-.133Z" fill="#545e7f"/><path d="M302.802,261.035c.133.133.133.2.133.2-.067,0-.067.067-.067.067.067,0,.067.066.067.066.6.667,1.533,2.334,0,5.067-2.067,3.733-.933,5.867-.933,5.867s-3.067-3.334-1.134-8.334c-2.8,2.734-5.866,2.734-7.266,2.467v8.133l.8,2.2-.8,2.934v13.466h11.133l-.733-34.066c-.267.666-.667,1.333-1.2,1.933Z" fill="#545e7f"/><path d="M274.866,259.168c-.8-2.333-1.866-3.8-3.066-3.8-1.067,0-2,1.067-2.734,2.867-.666-4.667-2.2-7.934-4-7.934-2.133,0-3.866,4.334-4.266,10.134h-.067c-2.4,0-4.333,5.666-4.333,12.6c0,.2,0,.4,0,.533-.467-.333-1-.533-1.534-.533-2.666,0-4.8,4.6-4.8,10.2c0,4.866,1.6,8.866,3.734,9.933h27.4v-16.667l-1-3.6l1-2.733v-29.067l-.534-1.2c-3.2,1.867-5.6,9.734-5.8,19.267Z" fill="#545e7f"/><path d="M326.667,232.301c-.4-.2-.8-.333-1.266-.333-.667,0-1.4.333-2,.867-.067,0-.067,0-.134,0-1.066,0-2,1.066-2.733,2.866-.667-4.666-2.2-7.933-4-7.933-2.133,0-3.867,4.333-4.267,10.133h-.066c-.4,0-.867.2-1.267.534-.8-2.8-2-4.6-3.333-4.6-.4,0-.8.2-1.2.466l.533,16l.933,2.067v3.067l-1.266,1.933-.734,35.8h21.8l5.4-76.267c-3,.6-5.6,6.934-6.4,15.4Z" fill="#545e7f"/><path d="M291.866,242.835l-.134-3.267c-1.733.6-3.266,3-4.4,6.534-.933-2.934-2.2-5.134-3.6-6.134l-.466,1.067v15.8c2.066-5.667.066-8.6.066-8.6s5.334,4.6,3.2,12.667c1.667-2.067,3.534-3.334,5.267-4.134v-5.6l-.8-1.733v-3.4l.867-3.2Z" fill="#545e7f"/><path d="M298.535,260.501c2.2-.933,3.466-.266,4.066.334.667-.867,1.134-1.734,1.467-2.534v-.866l-1.267-1.934v-3.066l.934-2.067.4-10.933c-.334,1.333-.534,2.933-.667,4.6h-.067c-1.866,0-3.4,3.333-4.066,8.066-.6-4.066-1.667-7.466-2.934-9.666-1.066.2-1.8-.134-2.2-.467-.2.333-.333.6-.533.933v.067l.8,3.267v3.4l-.8,1.733v5c2.933-.8,5.2-.267,5.2-.267s-2.467.067-5.2,3v1.8c.267.067,1.933.8,4.867-.4Z" fill="#545e7f"/><path d="M284.665,266.234c-.6.867-1,1.8-1.333,2.734v1.133l1,2.733-1,3.667v2.267c1.467,0,4.067.4,6.2,3.066-1.267-4.8,1.933-7.6,1.933-7.6s-1.266,1.867.2,5.534c.067.2.134.4.2.6v-.6l-.8-2.934.8-2.2v-9.133c-.266.133-.6.267-.866.467-3.267,1.866-5.334,1-6.334.266Z" fill="#545e7f"/><path d="M291.867,261.234c-.133.134-.2.334-.333.534-.2.333-.4.6-.6.866.333-.066.6-.066.866-.066v-1.334h.067Z" fill="#545e7f"/><path d="M291.867,286.768v-3.333c-.2.533-.533.866-.733,1.066c0,0,0,0-.067,0l.067.067c0,0-.067.067-.2.2.466.667.733,1.333.933,2Z" fill="#545e7f"/><path d="M362.868,199.568l-1.2,2.533-1,28.467.933,3.733c.134-.2.267-.466.334-.733.066.6.2,1.2.266,1.733l-.533.067v3.467l-1,2.2v15.8c2.067-5.667.067-8.6.067-8.6s5.333,4.6,3.2,12.666c1.666-2.066,3.533-3.333,5.266-4.133v-5.6l-.8-1.733v-3.4l.8-3.267-.8-22.933-.933-2.067v-3.067l1.267-1.933.666-31.867c-1.533,3.6-2.533,8.934-2.666,15-.8-2.333-1.867-3.8-3.067-3.8-.733,0-1.467.6-2.133,1.6l1.266,1.934v3.933h.067Z" fill="#545e7f"/><path d="M372.734,209.168c-.133-.133-.133-.2-.133-.2l.066-.067c-.066,0-.066-.066-.066-.066-.6-.667-1.534-2.334,0-5.067c2.066-3.733.933-5.867.933-5.867s3.067,3.334,1.133,8.334c2.8-2.734,5.867-2.734,7.267-2.467v-8.133l-.8-2.2.8-2.934v-12.733c-1,1.133-1.867,2.933-2.533,5.133-1.334-4.133-3.2-6.733-5.267-6.733-1.2,0-2.267.8-3.267,2.267l.667,32.733c.267-.667.667-1.333,1.2-2Z" fill="#545e7f"/><path d="M383.668,188.168c.667.533,1.467,1.333,2,2.533.067-.2.2-.333.267-.533c1.867-3.467.8-5.467.8-5.467s2.867,3.133,1.067,7.8c3.6-3.467,7.533-2.133,7.533-2.133s-2.267-.2-4.733,2.933c-1.8,2.333-3.6,2.133-4.334,1.867c0,0,0,0-.066-.067c0,.067,0,.067,0,.133c0,0-.067,0-.267-.066-.667,1.266-1.6,2.2-2.267,2.8v21l.8,1.733v3.4l-.8,3.267.8,22.933.934,2.067v3.066l-1.267,1.934-.733,35.8h12.2v-151.667c-.8,1.8-1.334,4.4-1.534,7.267h-.066c-2.4,0-4.334,5.6-4.4,12.6c0,.2,0,.4,0,.533-.467-.333-1-.533-1.534-.533-2.666,0-4.8,4.533-4.866,10.2c0,1.733.2,3.333.533,4.8-.4.133-.8.4-1.133.733h1.066v11.067Zm9.867-6.334c-1.067,1.334-1.867,3.867-2.267,7-.4-2.666-1-5.066-1.733-7h4Z" fill="#545e7f"/><path d="M354.865,194.034c0,0-1.733,3.4,1.4,9.133c2.4,4.267.933,6.867,0,7.934c0,0,0,0,0,.066c0,0-.067,0-.133.067.066,0,.133.067.133.067s-.067.133-.267.333c.8.933,1.4,2,1.867,2.933l-.467-12.466-1.2-2.534v-3.866l1.6-2.4.334-5.6c-.4-.4-.867-.6-1.334-.6-1.333,0-2.6,1.8-3.4,4.666v4.2c.867-1.2,1.467-1.933,1.467-1.933Z" fill="#545e7f"/><path d="M358.535,293.167v-16.666l-1-3.6l1-2.734v-29.066l-1-2.2v-4.2l1-4.067-.533-14.467c-.467-1.266-1.2-2.733-2.267-4.066-.467.4-1.133.866-2.133,1.066v80h4.933Z" fill="#545e7f"/><path d="M293.668,241.301v.733c.067-.133.133-.267.267-.4-.134-.133-.2-.2-.2-.2l.066-.067c-.066,0-.066,0-.066,0s0,0-.067-.066c.067.066,0,.066,0,0Z" fill="#545e7f"/><path d="M369.265,286.768v-3.333c-.2.533-.533.866-.733,1.066c0,0,0,0-.067,0l.067.067c0,0-.067.067-.2.2.467.667.733,1.333.933,2Z" fill="#545e7f"/><path d="M383.668,189.701v.734l.2.866c0-.6-.067-1.133-.2-1.6Z" fill="#545e7f"/><path d="M375.933,260.501c2.2-.934,3.467-.267,4.067.333.666-.867,1.133-1.733,1.466-2.533v-.867l-1.266-1.933v-3.067l.933-2.067.8-22.933-.8-3.267v-3.4l.133-.333c-.533-1.2-1.066-3-.533-5.333-2.533,3.6-5.867,2.733-5.867,2.733s1.867-.067,3.467-3.133c.067-.2.2-.334.267-.467-2.2.267-3.667-1.2-3.667-1.2s1.333.8,3.667-.667c1.6-1,2.6-.533,3.066-.133.067-.133.134-.2.2-.333v-2.334c-.333-.2-2-.933-4.866.267-2.2.933-3.467.267-4.067-.333-.667.866-1.133,1.733-1.467,2.533v.867l1.267,1.933v3.067l-.933,2.066-.4,11.867c.866,1.067,2.2,3.467,1.333,6.933c3.133-3.933,7.333-3,7.333-3s-2.266.067-4.333,3.467c-.133.2-.2.333-.333.533c2.8-.266,4.533,1.267,4.533,1.267s-1.667-.867-4.533.733c-1.934,1.134-3.2.6-3.8.134-.2.333-.334.6-.534.933v.067l.8,3.266v3.4l-.8,1.734v5c2.934-.8,5.2-.267,5.2-.267s-2.466.067-5.2,3v1.8c.334.133,2,.867,4.867-.333Z" fill="#545e7f"/><path d="M364.334,282.835c-.133-.134-.2-.334-.333-.534-1.133-1.933-2.4-2.733-3.267-3.133v4.333c.8-.4,2-.866,3.6-.666Z" fill="#545e7f"/><path d="M385.668,195.101c-.4-.2-.933-.6-1.333-1.333l-.667,1.866v2c.6-.6,1.4-1.466,2-2.533Z" fill="#545e7f"/><path d="M368.134,285.035c-.6.466-1.866.933-3.8-.134-1.6-.933-2.8-1-3.6-1v9.267h8.6v-5.2c-.2-.8-.533-1.933-1.2-2.933Z" fill="#545e7f"/><path d="M371.133,241.501l.067-.067c-.067,0-.067,0-.067,0l-.067-.067v.734c.067-.134.134-.267.267-.4-.133-.134-.2-.2-.2-.2Z" fill="#545e7f"/><path d="M360.734,270.168l1,2.733-1,3.6v2.267c1.467,0,4.067.4,6.2,3.066-1.266-4.8,1.934-7.6,1.934-7.6s-1.267,1.867.2,5.534c.066.2.133.4.2.6v-.6l-.8-2.934.8-2.2v-9.133c-.267.133-.6.267-.867.467-3.267,1.866-5.333,1-6.333.266-.6.867-1,1.8-1.334,2.734v1.2Z" fill="#545e7f"/><path d="M360.734,267.567c.267-.533.534-1.133.934-1.666-.2-.2-.267-.334-.267-.334.067-.066.067-.066.133-.133-.066,0-.133-.067-.133-.067s0,0,0-.066c-.2-.2-.4-.4-.667-.734v3Z" fill="#545e7f"/><path d="M369.265,261.234c-.133.134-.2.334-.333.534-.2.333-.4.6-.6.866.333-.066.6-.066.867-.066v-1.334h.066Z" fill="#545e7f"/><path d="M381.466,259.101c-.266.666-.666,1.333-1.2,1.933.134.133.134.2.134.2-.067,0-.067.067-.067.067.067,0,.067.066.067.066.6.667,1.533,2.334,0,5.067-2.067,3.733-.934,5.867-.934,5.867s-3.066-3.334-1.133-8.334c-2.8,2.734-5.867,2.734-7.267,2.467v8.133l.8,2.2-.8,2.934v13.466h11.134l-.734-34.066Z" fill="#545e7f"/><path d="M371.066,264.835v1.4c.734-.2,1.867-.667,3.134-1.867-.8-.067-1.867.067-3.134.467Z" fill="#545e7f"/><path d="M375.266,263.168c.134-.2.267-.334.4-.534-2.666,0-4.266-1.533-4.6-1.866v1.8c1.534.2,2.8.733,3.6,1.2.2-.134.4-.334.6-.6Z" fill="#545e7f"/><path d="M381.932,204.034c-.933.2-2.533.934-4.2,3-.133.2-.267.334-.4.534c2.667,0,4.267,1.533,4.6,1.866v-5.4Z" fill="#545e7f"/><path d="M30.999,284.634l.0666-.066c-.0666,0-.0666,0-.0666,0-.2667-.2-.5334-.6-.7334-1.067v3.333c.2-.6.4667-1.266.9334-1.933-.1334-.2-.2-.267-.2-.267Z" fill="#545e7f"/><path d="M28.4659,242.034v-.733l-.0667.066c0,0,0,0-.0666,0l.0666.067c0,0-.0666.067-.2.2.1334.2.2.267.2667.4Z" fill="#545e7f"/><path d="M30.732,274.234c0,0,3.2,2.8,1.9334,7.6c2.1333-2.667,4.8-3.067,6.2-3.067v-2.266l-1-3.6l1-2.734v-1.133c-.3334-.867-.7334-1.8-1.3334-2.733-1,.733-3.0666,1.6-6.3333-.267-.3333-.2-.6-.333-.8667-.467v9.134l.8,2.2-.8,2.933v.6c.0667-.2.1334-.4.2-.6c1.4667-3.667.2-5.6.2-5.6Z" fill="#545e7f"/><g id="eRpiu5HqKX441"><path d="M43.1997,195.701v3.866l-1.2,2.534-.4666,12.466c.4666-1,1.0666-2,1.8666-2.933-.1333-.2-.2666-.333-.2666-.333.0666,0,.1333-.067.1333-.067-.0667-.067-.1333-.067-.1333-.067s0,0,0-.066c-.8667-1.067-2.3334-3.6,0-7.934c3.2-5.733,1.4-9.133,1.4-9.133s.6.733,1.2666,1.933v-4.2c-.8-2.866-2-4.666-3.4-4.666-.4666,0-.8666.2-1.3333.6l.3333,5.6l1.8,2.4Z" transform="matrix(1.030698 0 0 1-1.333308 0)" fill="#545e7f"/><path d="M32,214.768v3.066l-.9333,2.067-.8,22.933.8,3.267v3.4l-.8,1.733v5.6c1.7333.734,3.6,2,5.2666,4.134-2.0666-8.067,3.2-12.667,3.2-12.667s-2,2.933.0667,8.6v-15.8l-1-2.2v-3.467l-.5333-.066c.1333-.534.2-1.134.2666-1.734.1334.267.2.534.3334.734l.9333-3.734-1-28.466-1.2-2.534v-3.866l1.2667-1.934c-.6-1-1.3334-1.6-2.1334-1.6-1.2,0-2.3333,1.467-3.0666,3.8-.1334-6.066-1.1334-11.4-2.6667-15l.6667,31.867L32,214.768Z" transform="matrix(1.030698 0 0 1-1.056011 0)" fill="#545e7f"/><path d="M18.468,193.368l-.8,2.2v8.133c1.4666-.2,4.4666-.267,7.2666,2.467-1.9333-5,1.1334-8.334,1.1334-8.334s-1.1334,2.2.9333,5.867c1.5333,2.733.6,4.4,0,5.067c0,0,0,0-.0667.066.0667,0,.0667.067.0667.067s-.0667.067-.1333.2c.5333.6.9333,1.333,1.2,1.933l.6666-32.733c-1-1.4-2.0666-2.267-3.2666-2.267-2.0667,0-3.9334,2.6-5.2667,6.734-.7333-2.2-1.6-4-2.5333-5.134v12.734l.8,3Z" transform="matrix(1.030698 0 0 1-.712234 0)" fill="#545e7f"/><path d="M15.4667,257.434L14.2,255.501v-3.067l.9333-2.066.8-22.934-.8-3.266v-3.4l.8-1.734v-21c-.7333-.6-1.6666-1.533-2.2666-2.8-.1334.067-.2667.067-.2667.067c0-.067,0-.067,0-.133-.0667,0-.0667.066-.0667.066-.8.267-2.5333.467-4.3333-1.866-2.4-3.134-4.73333-2.934-4.73333-2.934s4-1.4,7.53333,2.134c-1.86667-4.667,1.0667-7.8,1.0667-7.8s-1.0667,2,.8,5.466c.1333.2.2.4.2666.534.5334-1.2,1.3334-2,2-2.534v-11.133h1.0667c-.4-.333-.7333-.6-1.1333-.733.3333-1.4.5333-3.067.5333-4.8c0-5.667-2.2-10.2-4.8667-10.2-.5333,0-1.0666.2-1.5333.533c0-.2,0-.4,0-.533c0-6.934-2-12.6-4.4-12.6h-.06667c-.2-2.934-.8-5.467-1.53333-7.267v151.667h12.2l-.7333-35.734Zm-5.4-75.6c-.73337,1.934-1.33337,4.334-1.73337,7-.4-3.133-1.26666-5.6-2.26666-7h4.00003Z" transform="matrix(1.030698 0 0 1-.322329 0)" fill="#545e7f"/><path d="M108.468,246.101v3.4l-.8,1.734v5.6c1.734.733,3.6,2,5.267,4.133-2.067-8.067,3.2-12.667,3.2-12.667s-2,2.934.067,8.6v-15.8l-.467-1.066c-1.4,1-2.6,3.133-3.6,6.133-1.133-3.533-2.667-5.933-4.4-6.533l-.133,3.266.866,3.2Z" transform="matrix(1.030698 0 0 1-3.435168 0)" fill="#545e7f"/><path d="M93.5984,293.168l-.7333-35.8-1.2667-1.933v-3.067l.9334-2.067.5333-16c-.4-.333-.8-.466-1.2-.466-1.3333,0-2.5333,1.8-3.3333,4.6-.4-.334-.8-.534-1.2667-.534h-.0667c-.4-5.8-2.1333-10.133-4.2666-10.133-1.8,0-3.4,3.333-4,7.933-.7334-1.8-1.7334-2.866-2.7334-2.866h-.0666c-.6667-.534-1.3334-.867-2-.867-.4,0-.8.133-1.2667.333-.8-8.466-3.3333-14.8-6.4667-15.4l5.4,76.267h21.8Z" transform="matrix(1.030698 0 0 1-2.455791 0)" fill="#545e7f"/><path d="M118.465,270.167l1,2.734-1,3.6v16.666h27.4c2.133-1.066,40.4.267,40.4.267s-38.867-20.4-41.467-20.4c-.533,0-1.066.2-1.533.533c0-.2,0-.4,0-.533c0-6.933-1.933-12.6-4.333-12.6h-.067c-.4-5.8-2.133-10.133-4.267-10.133-1.8,0-3.4,3.333-4,7.933-.733-1.8-1.733-2.867-2.733-2.867-1.2,0-2.333,1.467-3.067,3.8-.2-9.533-2.6-17.4-5.733-19.333l-.533,1.2v29.133h-.067Z" fill="#545e7f"/><path d="M96.2685,243.967h-.0667c-.1333-1.666-.3333-3.2-.6666-4.6l.4,10.934.9333,2.066v3.067l-1.2667,1.933v.867c.2667.8.7334,1.733,1.4667,2.533.6-.533,1.8667-1.266,4.0665-.333c2.867,1.2,4.533.467,4.867.267v-1.8c-2.734-2.934-5.2-3-5.2-3s2.266-.534,5.2.266v-5l-.8-1.733v-3.4l.8-3.267v-.066c-.134-.334-.334-.6-.534-.934-.4.267-1.133.6-2.2.467-1.266,2.267-2.333,5.6-2.933,9.667-.6665-4.6-2.2665-7.934-4.0665-7.934Z" transform="matrix(1.030698 0 0 1-3.093394 0)" fill="#545e7f"/></g><path d="M43.8,212.034c-1.1333,1.334-1.8667,2.8-2.2667,4.067L41,230.568l1,4.066v4.2l-1,2.2v29.067l1,2.733-1,3.6v16.667h5v-80c-1-.2-1.7333-.667-2.2-1.067Z" transform="matrix(1.030698 0 0 1-1.335363 0)" fill="#545e7f"/><path d="M17.6682,209.435v2.333c.0667.133.1334.267.2.333.4667-.4,1.4667-.866,3.0667.134c2.2667,1.466,3.6667.666,3.6667.666s-1.4,1.467-3.6667,1.2c.0667.134.2.267.2667.467c1.6666,3.067,3.4666,3.133,3.4666,3.133s-3.3333.867-5.8666-2.733c.5333,2.333.0666,4.2-.5334,5.333l.1334.334v3.4l-.8,3.266.8,22.934.9333,2.066v3.067l-1.2667,1.933v.867c.2667.8.7334,1.733,1.4667,2.533.6-.533,1.8667-1.266,4.0667-.333c2.8666,1.2,4.5333.467,4.8666.267v-1.8c-2.7333-2.934-5.2-3-5.2-3s2.2667-.534,5.2.266v-5l-.8-1.733v-3.4l.8-3.267v-.066c-.1333-.334-.3333-.6-.5333-.934-.6.467-1.8667.934-3.8-.133-2.8667-1.6-4.5333-.733-4.5333-.733s1.8-1.6,4.5333-1.267c-.1333-.133-.2-.333-.3333-.533-2.0667-3.334-4.3334-3.467-4.3334-3.467s4.1334-.933,7.3334,3c-.8667-3.467.4666-5.8,1.3333-6.933l-.4-11.867-.9333-2.067v-3.066l1.2666-1.934v-.866c-.2666-.8-.7333-1.734-1.4666-2.534-.6.534-1.8667,1.267-4.0667.334-2.8667-1.134-4.5333-.334-4.8667-.2Z" transform="matrix(1.030698 0 0 1-.707125 0)" fill="#545e7f"/><path d="M28.5336,260.834c-.3333.333-1.9333,1.867-4.6,1.867.1333.133.2667.333.4.533.2.267.4.467.5333.667.8667-.467,2.0667-1,3.6-1.2v-1.867h.0667Z" fill="#545e7f"/><path d="M28.5318,264.834c-1.2667-.4-2.3334-.467-3.1334-.467c1.2667,1.2,2.4,1.667,3.1334,1.867v-1.4Z" fill="#545e7f"/><path d="M17.668,209.434c.3333-.333,1.9333-1.866,4.6-1.866-.1334-.134-.2667-.334-.4-.534-1.6667-2.133-3.2667-2.8-4.2-3v5.4Z" fill="#545e7f"/><path d="M15.9344,190.435v-.734c-.1334.467-.2,1-.2,1.6l.2-.866Z" fill="#545e7f"/><path d="M35.599,282.301c-.1334.2-.2.334-.3334.534c1.5334-.2,2.8.266,3.6.666v-4.333c-.8666.4-2.1333,1.2-3.2666,3.133Z" fill="#545e7f"/><path d="M35.2654,284.834c-1.9334,1.133-3.2.6-3.8.133-.6667,1-1,2.134-1.1334,3v5.2h8.6v-9.266c-.8666-.067-2.0666.066-3.6666.933Z" fill="#545e7f"/><path d="M13.9336,195.101c.5333,1.067,1.3333,1.934,2,2.467v-2l-.6667-1.867c-.4.8-.9333,1.2-1.3333,1.4Z" fill="#545e7f"/><path d="M27.7318,276.835l.8-2.2v-8.134c-1.4667.2-4.4667.267-7.2667-2.466c1.9333,5-1.1333,8.333-1.1333,8.333s1.1333-2.2-.9334-5.867c-1.5333-2.733-.6-4.4,0-5.066c0,0,0,0,.0667-.067l-.0667-.067c0,0,.0667-.066.1334-.2-.5334-.6-.9334-1.333-1.2-1.933l-.7334,34h11.1334v-13.4l-.8-2.933Z" fill="#545e7f"/><path d="M38.8669,267.568v-2.933c-.2.333-.4666.533-.6666.733c0,0,0,0,0,.067c0,0-.0667,0-.1334.066.0667.067.0667.067.1334.134c0,0-.0667.133-.2667.333.3333.467.6667,1.067.9333,1.6Z" fill="#545e7f"/><path d="M30.599,261.701c-.1334-.2-.2-.333-.3334-.533v1.267c.2667,0,.6,0,.8667.066-.1333-.2-.3333-.466-.5333-.8Z" fill="#545e7f"/><path d="M105.934,264.834c-1.267-.4-2.333-.467-3.133-.467c1.266,1.2,2.4,1.667,3.133,1.867v-1.4Z" fill="#545e7f"/><path d="M105.932,260.834c-.333.333-1.933,1.867-4.6,1.867.133.133.267.333.4.533.2.267.4.467.533.667.867-.467,2.067-1,3.6-1.2v-1.867h.067Z" fill="#545e7f"/><path d="M107.668,274.634l.8,2.2-.8,2.933v.6c.067-.2.133-.4.2-.6c1.467-3.666.2-5.533.2-5.533s3.2,2.8,1.933,7.6c2.134-2.667,4.8-3.067,6.2-3.067v-2.266l-1-3.6l1-2.734v-1.133c-.333-.867-.733-1.8-1.333-2.733-1,.733-3.067,1.6-6.333-.267-.334-.2-.6-.333-.867-.467v9.067Z" fill="#545e7f"/><path d="M116.265,267.568v-2.933c-.2.333-.466.533-.666.733c0,0,0,0,0,.067c0,0-.067,0-.134.066.067.067.067.067.134.134c0,0-.067.133-.267.333.4.467.667,1.067.933,1.6Z" fill="#545e7f"/><path d="M107.668,283.435v3.333c.2-.6.467-1.267.933-1.933-.133-.134-.2-.2-.2-.2l.067-.067c-.067,0-.067,0-.067,0-.2-.267-.466-.667-.733-1.133Z" fill="#545e7f"/><path d="M113.001,282.301c-.133.2-.2.334-.333.534c1.533-.2,2.8.266,3.6.666v-4.333c-.867.4-2.067,1.2-3.267,3.133Z" fill="#545e7f"/><path d="M107.668,262.501c.267,0,.6,0,.867.067-.2-.267-.4-.533-.6-.867-.133-.2-.2-.333-.333-.533v1.333h.066Z" fill="#545e7f"/><path d="M105.134,276.835l.8-2.2v-8.134c-1.467.2-4.467.267-7.2666-2.466c1.9336,5-1.1333,8.333-1.1333,8.333s1.1333-2.2-.9333-5.867c-1.5334-2.733-.6-4.4,0-5.066c0,0,0,0,.0666-.067l-.0666-.067c0,0,.0667-.066.1333-.2-.5333-.6-.9333-1.333-1.2-1.933l-.7333,34.067h11.1332v-13.4l-.8-3Z" transform="matrix(1.030698 0 0 1-3.081078 0)" fill="#545e7f"/><path d="M112.668,284.834c-1.934,1.133-3.2.6-3.8.133-.667,1-1,2.134-1.134,3v5.2h8.6v-9.266c-.866-.067-2.066.066-3.666.933Z" fill="#545e7f"/><path d="M105.935,242.034v-.733l-.067.066c0,0,0,0-.067,0l.067.067c0,0-.067.067-.2.2.067.2.2.267.267.4Z" fill="#b43524"/><g id="eRpiu5HqKX472"><path d="M353.6,136.835h42v-59.3338c-31.733.3334-63.6-5.8-87.866-18.3333l.133-.7333h-7.533l-.534,3c2.534,7.8666,8.534,13.3333,8.534,13.3333l-.534,3.4667c10.267,5.3333,21.934,9.4666,34.4,12.4666l-2.266,31.8668h-24.6v14.2h23.6l-5.667,80-5.533,76.4h-21.8l.733-35.8l1.267-1.933v-3.067L307,250.301l-.533-16-.267-6.933.8-3.267v-3.4l-.8-1.733v-21c.734-.6,1.667-1.533,2.267-2.8.133.067.267.067.267.067c0-.067,0-.067,0-.134.066,0,.066.067.066.067.8.267,2.534.467,4.334-1.867c2.4-3.133,4.733-2.933,4.733-2.933s-4-1.4-7.533,2.133c1.866-4.666-1.067-7.8-1.067-7.8s1.067,2-.8,5.467c-.133.2-.2.4-.267.533-.533-1.2-1.333-2-2-2.533v-11.133h-1.733v13.4l-.8,2.933.8,2.2v8.133c-1.467-.2-4.467-.266-7.267,2.467c1.934-5-1.133-8.333-1.133-8.333s1.133,2.2-.933,5.866c-1.534,2.734-.6,4.4,0,5.067c0,0,0,0,.066.067l-.066.066c0,0,.066.067.133.2-.533.6-.933,1.334-1.2,1.934l-.733-34.067h-1.2l-.734,35.8-1.266,1.933v3.067l.933,2.067.667,19.666.133,3.267-.8,3.267v3.4l.8,1.733v5.6c-1.733.733-3.6,2-5.267,4.133c2.067-8.066-3.2-12.666-3.2-12.666s2,2.933-.066,8.6v-15.8l.466-1.067.534-1.133v-4.2l-1-4.067l1-28.467l1.2-2.533v-3.867l-1.6-2.4-.934-16.2h-1.533l-.933,16.2-1.6,2.4v3.867l1.2,2.533.466,12.467c-.466-1-1.066-2-1.866-2.933.133-.2.266-.334.266-.334-.066,0-.133-.066-.133-.066.067-.067.133-.067.133-.067s0,0,0-.067c.867-1.066,2.334-3.6,0-7.933-3.2-5.733-1.4-9.133-1.4-9.133s-4.733,5.2-1.733,13c-4.2-4.134-8.8-4.2-11.133-3.867v.533c1.466.4,3.866,1.534,6.266,4.667.2.267.467.533.667.8-3.667.067-6.133,1.933-6.933,2.667v.133c.866-.4,3.333-1.133,7.333.533c3.467,1.467,5.4.334,6.333-.466c1.134,1.333,1.867,2.8,2.267,4.066l.533,14.467-1,4.067v4.2l.467,1l.533,1.2v29.066l-1,2.734l1,3.6v16.666h-16.533v.267h-129.467v-.2h-16.733v-16.667l1-3.6-1-2.733v-29.067l.533-1.2.467-1v-4.2l-1-4.066.533-14.467c.467-1.267,1.2-2.733,2.267-4.067.933.867,2.867,1.934,6.333.467c4.467-1.867,7.067-.733,7.6-.4v-.067c-.533-.533-3.066-2.866-7.2-2.933.2-.267.467-.467.667-.8c2.6-3.267,5.067-4.4,6.533-4.733v-.467c-2.266-.333-7-.4-11.333,3.867c3-7.8-1.733-13-1.733-13s1.733,3.4-1.4,9.133c-2.4,4.267-.934,6.867,0,7.933c0,0,0,0,0,.067c0,0,.066,0,.133.067-.067,0-.133.066-.133.066s.266.334.266.334-1.4,2-1.866,2.933l.466-12.467l1.2-2.533v-3.867l-1.6-2.4-.933-16.2h-1.533l-.934,16.2-1.6,2.4v3.867l1.2,2.533l1,28.467-1,4.067v4.2l.534,1.133.466,1.067v15.8c-2.066-5.667-.066-8.6-.066-8.6s-5.334,4.6-3.2,12.666c-1.667-2.066-3.534-3.333-5.267-4.133v-5.6l.8-1.733v-3.4l-.8-3.267.133-3.267.667-19.666.933-2.067v-3.067l-1.266-1.933-.734-35.8h-1.2l-.733,34.067c-.267-.667-.667-1.334-1.2-1.934.133-.133.133-.2.133-.2l-.066-.066c.066,0,.066-.067.066-.067.6-.667,1.534-2.333,0-5.067-2.066-3.733-.933-5.866-.933-5.866s-3.067,3.333-1.133,8.333c-2.8004-2.733-5.8671-2.733-7.2671-2.467v-8.133l.8-2.2-.8-2.933v-13.4h-1.9333v11.133c-.6667.533-1.4667,1.333-2,2.533-.0667-.2-.2-.333-.2667-.533-1.8666-3.467-.8-5.467-.8-5.467s-2.8666,3.134-1.0666,7.8c-3.6-3.466-7.5334-2.133-7.5334-2.133s2.2667-.2,4.7334,2.933c1.8,2.334,3.6,2.134,4.3333,1.867c0,0,0,0,.0667-.067c0,.067,0,.067,0,.134c0,0,.0666,0,.2666-.067.6667,1.267,1.6,2.2,2.2667,2.8v21l-.8,1.733v3.4l.8,3.267-.2667,6.933-.5333,16-.9333,2.067v3.067l1.2666,1.933.7334,35.8h-21.8l-5.4-76.267-5.6667-80h23.6v-14.2h-24.6667L57.4003,90.8346c12.4666-3,24.1333-7.2,34.4-12.4667l-.5334-3.4667c0,0,6-5.4666,8.5334-13.3333l-.5334-3h-7.5333l.1333.7333C67.6003,71.8346,35.7336,77.9679,4.00026,77.6346v59.3334h42.00004v59.133c-.6667-1.266-1.2667-1.933-1.2667-1.933s1.7333,3.4-1.4,9.133c-2.4,4.267-.9333,6.867,0,7.934c0,0,0,0,0,.066c0,0,.0667,0,.1333.067-.0666,0-.1333.067-.1333.067s.0667.133.2667.333c-.8.933-1.4,2-1.8667,2.933l.4667-12.466l1.2-2.534v-3.866l-1.6-2.4-.3334-5.6-.8-10.8h-1.5333l-.9333,16.2-.3334.466-1.2666,1.934v3.866l1.2,2.534l1,28.466-.9334,3.734-.0666.333v4.2l1,2.2v15.8c-2.0667-5.667-.0667-8.6-.0667-8.6s-5.3333,4.6-3.2,12.667c-1.6667-2.067-3.5333-3.334-5.2667-4.134v-5.6l.8-1.733v-3.4l-.8-3.267.8-22.933.9334-2.067v-3.066l-1.2667-1.934-.6667-31.866-.0666-3.867h-1.2v1.4l-.6667,32.733c-.2667-.666-.6667-1.333-1.2-1.933.1333-.133.1333-.2.1333-.2-.0666,0-.0666-.067-.0666-.067.0666,0,.0666-.066.0666-.066.6-.667,1.5334-2.334,0-5.067-2.0666-3.733-.9333-5.867-.9333-5.867s-3.0667,3.334-1.1333,8.334c-2.8-2.734-5.8667-2.734-7.2667-2.467v-8.133l.8-2.2-.8-2.934v-13.4h-1.7333v11.134c-.6667.533-1.4667,1.333-2,2.533-.0667-.2-.2-.333-.2667-.533-1.8667-3.467-.8-5.467-.8-5.467s-2.8667,3.133-1.0667,7.8c-3.59997-3.467-7.53331-2.133-7.53331-2.133s2.26667-.2,4.73334,2.933c1.79997,2.333,3.59997,2.133,4.33337,1.867c0,0,0,0,.0666-.067c0,.067,0,.067,0,.133c0,0,.0667,0,.2667-.066.6667,1.266,1.6,2.2,2.2667,2.8v21l-.8,1.733v3.4l.8,3.267-.8,22.933-.9334,2.067v3.066l1.2667,1.934.7333,35.8h-12.33331v48.066L199.734,443.701l195.8-102.4v-48.133h-12.2l.733-35.8l1.267-1.933v-3.067l-.934-2.067-.8-22.933.8-3.267v-3.4l-.8-1.733v-21c.734-.6,1.667-1.533,2.267-2.8.133.067.267.067.267.067c0-.067,0-.067,0-.134.066,0,.066.067.066.067.8.267,2.534.467,4.334-1.867c2.4-3.133,4.733-2.933,4.733-2.933s-4-1.4-7.533,2.133c1.866-4.666-1.067-7.8-1.067-7.8s1.067,2-.8,5.467c-.133.2-.2.4-.267.533-.533-1.2-1.333-2-2-2.533v-11.133h-1.733v13.4l-.8,2.933.8,2.2v8.133c-1.467-.2-4.467-.266-7.267,2.467c1.934-5-1.133-8.333-1.133-8.333s1.133,2.2-.933,5.866c-1.534,2.734-.6,4.4,0,5.067c0,0,0,0,.066.067-.066,0-.066.066-.066.066s.066.067.133.2c-.533.6-.933,1.334-1.2,1.934l-.667-32.734v-1.4h-1.2l-.066,3.867-.667,31.867-1.267,1.933v3.067l.934,2.066.8,22.934-.8,3.266v3.4l.8,1.734v5.6c-1.734.733-3.6,2-5.267,4.133c2.067-8.067-3.2-12.667-3.2-12.667s2,2.934-.067,8.6v-15.8l1-2.2v-4.2l-.066-.333-.934-3.733l1-28.467l1.2-2.533v-3.867l-1.266-1.933-.334-.467-.933-16.2h-1.533l-.6,10.6-.334,5.6-1.6,2.4v3.867l1.2,2.533.467,12.467c-.467-1-1.067-2-1.867-2.934.134-.2.267-.333.267-.333-.067,0-.133-.067-.133-.067.066-.066.133-.066.133-.066s0,0,0-.067c.867-1.067,2.333-3.6,0-7.933-3.2-5.734-1.4-9.134-1.4-9.134s-.6.734-1.267,1.934v-59h-.2Zm0-43.6004c10,1.8,20.334,2.8666,30.8,3.2666v26.1998h-30.8v-29.4664ZM306.2,189.701c.134.467.2,1,.2,1.6l-.2-.866v-.734Zm0,5.867l.667-1.867c.4.8.933,1.134,1.333,1.334-.533,1.066-1.333,1.933-2,2.466v-1.933Zm-212.8664,2c-.6667-.533-1.4667-1.4-2-2.467.4-.2.9333-.6,1.3333-1.333l.6667,1.867v1.933Zm0-7.133l-.2.866c0-.6.1333-1.133.2-1.6v.734Zm-77.4,7.133c-.6667-.533-1.4667-1.4-2-2.467.4-.2.9333-.6,1.3333-1.333l.6667,1.867v1.933Zm0-7.133l-.2.866c0-.6.1333-1.133.2-1.6v.734Zm12.4,51c.0667,0,.0667-.067.0667-.067l.0666-.067v.734c-.0666-.134-.1333-.267-.2666-.4.1333-.134.2-.2.2-.2c0,.066,0,0-.0667,0Zm-10.6667-37.4c.9334.2,2.5334.933,4.2,3c.1334.2.2667.333.4.533-2.6666,0-4.2666,1.533-4.6,1.867v-5.4Zm10.8667,70.6l-.8,2.2.8,2.933v13.4h-11.1333l.7333-34.067c.2667.667.6667,1.334,1.2,1.934-.1333.133-.1333.2-.1333.2l.0666.066c-.0666,0-.0666.067-.0666.067-.6.667-1.5334,2.333,0,5.067c2.0666,3.733.9333,5.866.9333,5.866s3.0667-3.333,1.1333-8.333c2.8,2.733,5.8667,2.733,7.2667,2.467v8.2Zm0-8.4c-.7333-.2-1.8667-.667-3.1333-1.867.8-.067,1.8666.067,3.1333.467v1.4Zm0-3.6c-1.5333.2-2.8.733-3.6,1.2-.2-.2-.4-.4-.5333-.667-.1334-.2-.2667-.333-.4-.533c2.6666,0,4.2666-1.534,4.6-1.867v1.867h-.0667Zm0-11.4v5c-2.9333-.8-5.2-.267-5.2-.267s2.4667.067,5.2,3v1.8c-.3333.2-2,.933-4.8667-.267-2.2-.933-3.4666-.266-4.0666.334-.6667-.867-1.1334-1.734-1.4667-2.534v-.866l1.2667-1.934v-3.066l-.9334-2.067-.8-22.933.8-3.267v-3.4l-.1333-.333c.5333-1.2,1.0667-3,.5333-5.334c2.5334,3.6,5.8667,2.734,5.8667,2.734s-1.8667-.067-3.4667-3.134c-.0666-.2-.2-.333-.2666-.466c2.2.266,3.6666-1.2,3.6666-1.2s-1.3333.8-3.6666-.667c-1.6-1-2.6-.533-3.0667-.133-.0667-.134-.1333-.2-.2-.334v-2.333c.3333-.2,2-.933,4.8667.267c2.2.933,3.4666.266,4.0666-.334.6667.867,1.1334,1.734,1.4667,2.534v.866l-1.2667,1.934v3.066l.9334,2.067.4,11.867c-.8667,1.066-2.2,3.466-1.3334,6.933-3.1333-3.933-7.3333-3-7.3333-3s2.2667.067,4.3333,3.467c.1334.2.2.333.3334.533-2.8-.267-4.5334,1.267-4.5334,1.267s1.6667-.867,4.5334.733c1.9333,1.133,3.2.6,3.8.133.2.334.3333.6.5333.934v.066l-.8,3.267v3.4l.8,1.667Zm1.7333,10c.1334.133.2.333.3334.533.2.333.4.6.6.867-.3334-.067-.6-.067-.8667-.067v-1.333h-.0667Zm0,22.2c.2.533.5334.866.7334,1.066c0,0,0,0,.0666,0l-.0666.067c0,0,.0666.067.2.2-.4.667-.7334,1.333-.9334,1.933v-3.266Zm8.6,9.733h-8.6v-5.2c.1334-.867.4667-1.933,1.1334-3c.6.467,1.8666.933,3.8-.133c1.6-.934,2.8-1,3.6-1v9.333h.0666Zm0-9.667c-.8-.4-2.0666-.866-3.6-.666.1334-.134.2-.334.3334-.534c1.1333-1.933,2.4-2.733,3.2666-3.133v4.333Zm0-13.333l-1,2.733l1,3.6v2.267c-1.4666,0-4.0666.4-6.2,3.067c1.2667-4.8-1.9333-7.6-1.9333-7.6s1.2667,1.866-.2,5.533c-.0667.2-.1333.4-.2.6v-.6l.8-2.933-.8-2.2v-9.134c.2667.134.6.267.8667.467c3.2666,1.867,5.3333,1,6.3333.267.6.866,1,1.8,1.3333,2.733v1.2Zm0-2.6c-.2666-.533-.5333-1.133-.9333-1.667.2-.2.2667-.333.2667-.333-.0667-.067-.0667-.067-.1334-.133.0667,0,.1334-.067.1334-.067s0,0,0-.067c.2-.2.4-.4.6666-.733v3Zm7.1334,25.6h-4.9334v-16.667l1-3.6-1-2.733v-29.067l1-2.2v-4.2l-1-4.066.5334-14.467c.4666-1.267,1.2-2.733,2.2666-4.067.4667.4,1.1334.867,2.1334,1.067v80Zm0-170.467h-30.8667v-26.1998c10.4667-.4,20.8-1.4666,30.8-3.2666v29.4664h.0667ZM105.734,241.435c.066,0,.066,0,0,0c.066,0,.066-.067.066-.067l.067-.067v.734c-.067-.134-.133-.267-.267-.4.134-.134.2-.2.2-.2c0,.066,0,0-.066,0Zm-10.6671-37.4c.9334.2,2.5334.933,4.2,3c.1334.2.2667.333.4.533-2.6666,0-4.2666,1.533-4.6,1.867v-5.4Zm10.8671,70.6l-.8,2.2.8,2.933v13.4h-11.1337l.7333-34.067c.2667.667.6667,1.334,1.2,1.934-.1333.133-.1333.2-.1333.2.0666,0,.0666.066.0666.066-.0666,0-.0666.067-.0666.067-.6.667-1.5334,2.333,0,5.067c2.0666,3.733.9333,5.866.9333,5.866s3.0664-3.333,1.1333-8.333c2.8001,2.733,5.8671,2.733,7.2671,2.467v8.2Zm0-8.4c-.734-.2-1.867-.667-3.134-1.867.8-.067,1.867.067,3.134.467v1.4Zm0-3.6c-1.534.2-2.8.733-3.6,1.2-.2-.2-.4-.4-.534-.667-.133-.2-.266-.333-.4-.533c2.667,0,4.267-1.534,4.6-1.867v1.867h-.066Zm0-11.4v5c-2.934-.8-5.2-.267-5.2-.267s2.466.067,5.2,3v1.8c-.334.2-2,.933-4.867-.267-2.2001-.933-3.4667-.266-4.0667.334-.6667-.867-1.1334-1.734-1.4667-2.534v-.866l1.2667-1.934v-3.066l-.9334-2.067-.4-10.933-.4-12l.8-3.267v-3.4l-.1333-.333c.5333-1.2,1.0667-3,.5333-5.334c2.5334,3.6,5.8671,2.734,5.8671,2.734s-1.867-.067-3.4671-3.134c-.0666-.2-.2-.333-.2666-.466c2.1997.266,3.6667-1.2,3.6667-1.2s-1.333.8-3.6667-.667c-1.6-1-2.6-.533-3.0667-.133-.0667-.134-.1333-.2-.2-.334v-2.333c.3333-.2,2-.933,4.8664.267c2.2.933,3.467.266,4.067-.334.667.867,1.133,1.734,1.467,2.534v.866l-1.267,1.934v3.066l.933,2.067.4,11.867c-.866,1.066-2.2,3.466-1.333,6.933-3.133-3.933-7.3334-3-7.3334-3s2.2667.067,4.3334,3.467c.133.2.2.333.333.533-2.7997-.267-4.5331,1.267-4.5331,1.267s1.7334-.867,4.5331.733c.6.333,1.134.533,1.6.6c1.067.2,1.8-.133,2.2-.467.2.334.334.6.534.934v.066l-.8,3.267v3.4l.8,1.667Zm1.733,10c.133.133.2.333.333.533.2.333.4.6.6.867-.333-.067-.6-.067-.866-.067v-1.333h-.067Zm0,22.2c.2.533.533.866.733,1.066c0,0,0,0,.067,0l-.067.067c0,0,.067.067.2.2-.4.667-.733,1.333-.933,1.933v-3.266Zm8.6,9.733h-8.6v-5.2c.133-.867.467-1.933,1.133-3c.6.467,1.867.933,3.8-.133c1.6-.934,2.8-1,3.6-1v9.333h.067Zm0-9.667c-.8-.4-2.067-.866-3.6-.666.133-.134.2-.334.333-.534c1.134-1.933,2.4-2.733,3.267-3.133v4.333Zm0-13.333l-1,2.733l1,3.6v2.267c-1.467,0-4.067.4-6.2,3.067c1.267-4.8-1.933-7.6-1.933-7.6s1.266,1.866-.2,5.533c-.067.2-.134.4-.2.6v-.6l.8-2.933-.8-2.2v-9.134c.266.134.6.267.866.467c3.267,1.867,5.334,1,6.334.267.6.866,1,1.8,1.333,2.733v1.2Zm0-2.6c-.267-.533-.533-1.133-.933-1.667.2-.2.266-.333.266-.333-.066-.067-.066-.067-.133-.133.067,0,.133-.067.133-.067s0,0,0-.067c.2-.2.4-.4.667-.733v3Zm167.067-2.933c.2.333.466.533.666.733c0,0,0,0,0,.067c0,0,.067,0,.134.066-.067.067-.067.067-.134.134c0,0,.067.133.267.333-.333.533-.667,1.133-.933,1.667v-3Zm0,14.533c.866.4,2.066,1.267,3.266,3.133.134.2.2.334.334.534-1.534-.2-2.8.266-3.6.666v-4.333Zm8.533,14h-8.533v-9.267c.8-.066,2,.067,3.6,1c1.933,1.134,3.2.6,3.8.134.666,1,1,2.133,1.133,3v5.133Zm0-6.4c-.2-.6-.467-1.267-.933-1.933.133-.134.2-.2.2-.2l-.067-.067c.067,0,.067,0,.067,0c.266-.2.533-.6.733-1.067v3.267Zm0-12.133l-.8,2.2.8,2.933v.6c-.067-.2-.133-.4-.2-.6-1.467-3.667-.2-5.533-.2-5.533s-3.2,2.8-1.933,7.6c-2.134-2.667-4.8-3.067-6.2-3.067v-2.267l1-3.6-1-2.733v-1.133c.333-.867.733-1.8,1.333-2.734c1,.734,3.067,1.6,6.333-.266.334-.2.6-.334.867-.467v9.067Zm0-12.134c-.267,0-.6,0-.867.067.2-.267.4-.533.6-.867.134-.2.2-.333.334-.533v1.333h-.067Zm8.4-55.4c1.667-2.133,3.267-2.8,4.2-3v5.4c-.333-.333-1.933-1.866-4.6-1.866.133-.2.267-.4.4-.534Zm-6.6,34.2c0,.067.067.067,0,0c.067.067.067.067.067.067s0,0,.066,0l-.066.067c0,0,.066.066.2.2-.067.133-.134.266-.267.4v-.734Zm-.067,17.667c2.734-2.933,5.2-3,5.2-3s-2.266-.533-5.2.267v-5l.8-1.734v-3.4l-.8-3.266v-.067c.134-.333.334-.6.534-.933.4.266,1.133.6,2.2.466.466-.066,1-.266,1.6-.6c2.866-1.6,4.533-.733,4.533-.733s-1.8-1.6-4.533-1.267c.133-.133.2-.333.333-.533c2.067-3.333,4.333-3.467,4.333-3.467s-4.133-.933-7.333,3c.867-3.466-.467-5.8-1.333-6.933l.4-11.867.933-2.066v-3.067L294,212.835v-.867c.267-.8.734-1.733,1.467-2.533.6.533,1.867,1.266,4.067.333c2.866-1.2,4.533-.467,4.866-.267v2.334c-.066.133-.133.266-.2.333-.466-.4-1.466-.867-3.066.133-2.267,1.467-3.667.667-3.667.667s1.4,1.467,3.667,1.2c-.067.133-.2.267-.267.467-1.667,3.066-3.467,3.133-3.467,3.133s3.334.867,5.867-2.733c-.533,2.333-.067,4.2.533,5.333l-.133.333v3.4l.8,3.267-.4,12-.4,10.933-.933,2.067v3.067L304,257.368v.867c-.266.8-.733,1.733-1.466,2.533-.6-.533-1.867-1.267-4.067-.333-2.867,1.2-4.533.466-4.867.266v-1.733Zm0,1.867c.334.333,1.934,1.866,4.6,1.866-.133.134-.266.334-.4.534-.2.266-.4.466-.533.666-.867-.466-2.067-1-3.6-1.2v-1.866h-.067Zm0,4c1.267-.4,2.334-.467,3.134-.467-1.267,1.2-2.4,1.667-3.134,1.867v-1.4Zm0,28.333v-13.4l.8-2.933-.8-2.2v-8.134c1.467.2,4.467.267,7.267-2.466-1.933,5,1.133,8.333,1.133,8.333s-1.133-2.2.934-5.867c1.533-2.733.6-4.4,0-5.066c0,0,0,0-.067-.067l.067-.067c0,0-.067-.066-.134-.2.534-.6.934-1.333,1.2-1.933l.734,34.067h-11.134v-.067Zm90.067-103.467c.133.467.2,1,.2,1.6l-.2-.866v-.734Zm0,5.867l.667-1.867c.4.8.933,1.134,1.333,1.334-.533,1.066-1.333,1.933-2,2.466v-1.933Zm-5.933,11.533c1.666-2.133,3.266-2.8,4.2-3v5.4c-.334-.333-1.934-1.866-4.6-1.866.066-.2.266-.4.4-.534Zm-6.6,34.2c0,.067,0,.067,0,0c.066.067.066.067.066.067s0,0,.067,0l-.067.067c0,0,.067.066.2.2-.066.133-.133.266-.266.4v-.734Zm-.067,17.667c2.733-2.933,5.2-3,5.2-3s-2.267-.533-5.2.267v-5l.8-1.734v-3.4l-.8-3.266v-.067c.133-.333.333-.6.533-.933.6.466,1.867.933,3.8-.134c2.867-1.6,4.534-.733,4.534-.733s-1.8-1.6-4.534-1.267c.134-.133.2-.333.334-.533c2.066-3.333,4.333-3.467,4.333-3.467s-4.133-.933-7.333,3c.866-3.466-.467-5.8-1.334-6.933l.4-11.867.934-2.066v-3.067l-1.267-1.933v-.867c.267-.8.733-1.733,1.467-2.533.6.533,1.866,1.266,4.066.333c2.867-1.2,4.534-.467,4.867-.267v2.334c-.067.133-.133.266-.2.333-.467-.4-1.467-.867-3.067.133-2.266,1.467-3.666.667-3.666.667s1.4,1.467,3.666,1.2c-.066.133-.2.267-.266.467-1.667,3.066-3.467,3.133-3.467,3.133s3.333.867,5.867-2.733c-.534,2.333-.067,4.2.533,5.333l-.133.333v3.4l.8,3.267-.8,22.933-.934,2.067v3.067l1.267,1.933v.867c-.267.8-.733,1.733-1.467,2.533-.6-.533-1.866-1.267-4.066-.333-2.867,1.2-4.534.466-4.867.266v-1.733Zm0,1.867c.333.333,1.933,1.866,4.6,1.866-.133.134-.267.334-.4.534-.2.266-.4.466-.533.666-.867-.466-2.067-1-3.6-1.2v-1.866h-.067Zm0,4c1.267-.4,2.333-.467,3.133-.467-1.266,1.2-2.4,1.667-3.133,1.867v-1.4Zm0,14.933l.8-2.933-.8-2.2v-8.134c1.467.2,4.467.267,7.267-2.466-1.934,5,1.133,8.333,1.133,8.333s-1.133-2.2.933-5.867c1.534-2.733.6-4.4,0-5.066c0,0,0,0-.066-.067l.066-.067c0,0-.066-.066-.133-.2.533-.6.933-1.333,1.2-1.933l.733,34.067h-11.133v-13.467Zm-1.8,7c-.2-.6-.467-1.267-.933-1.933.133-.134.2-.2.2-.2l-.067-.067c.067,0,.067,0,.067,0c.266-.2.533-.6.733-1.067v3.267ZM369,261.701c.134-.2.2-.333.334-.533v1.267c-.267,0-.6,0-.867.066.133-.2.333-.466.533-.8Zm-8.266,2.934c.2.333.466.533.666.733c0,0,0,0,0,.067c0,0,.067,0,.134.066-.067.067-.067.067-.134.134c0,0,.067.133.267.333-.333.533-.667,1.133-.933,1.667v-3Zm0,11.866l1-3.6-1-2.733v-1.133c.333-.867.733-1.8,1.333-2.734c1,.734,3.067,1.6,6.333-.266.334-.2.6-.334.867-.467v9.133l-.8,2.2.8,2.934v.6c-.067-.2-.133-.4-.2-.6-1.467-3.667-.2-5.534-.2-5.534s-3.2,2.8-1.933,7.6c-2.134-2.666-4.8-3.066-6.2-3.066v-2.334Zm0,2.667c.866.4,2.066,1.267,3.266,3.133.134.2.2.334.334.534-1.534-.2-2.8.266-3.6.666v-4.333Zm0,4.733c.8-.066,2,.067,3.6,1c1.933,1.134,3.2.6,3.8.134.666,1,1,2.133,1.133,3v5.2h-8.6v-9.334h.067Zm-5-71.866c1.133,1.333,1.866,2.8,2.266,4.066l.534,14.467-1,4.067v4.2l1,2.2v29.066l-1,2.734l1,3.6v16.666h-4.934v-80c1-.2,1.734-.666,2.134-1.066Z" fill="url(#eRpiu5HqKX473-fill)"/></g><path id="eRpiu5HqKX474" d="M452.335,311.701c-11.6-1-10.266-.533-20.866-1.533-10.534-1-8-2.333-11.6-3.933-9.467-4.334-9.267.133-11.067-2.467s-3.867-7.2-9.933-8.467c-9.2-1.933-11.667,8.534-14.267,6.2-5.133-4.6-4.133-10.066,4.867-11.6c9-1.533,23.933-14.666,24.933-27.266.733-8.667-6.867-18.267-11.733-23.467-2.2-2.4-3.867-3.8-3.867-3.8s-2.133-12.867-5-14.133c-2.8-1.267-2.8-3.334-1-5.134s0-5.4-2.8-2.8-3.6,11.067-10.267,11.067c-4.066,0-8.8-2.733-11-5.933-1.466-2.067-1.8-4.267-.333-6.067c3.867-4.533,10.8-5.533,10.8-8.133s-4.133-4.867-2.6-6.667s12.067-8.733,4.4-17c-7.733-8.2-17.733-5.667-14.667-12.6c3.067-6.933,10.534-6.2,20.6-2.6c3.667,1.333,7.4.133,10.534-2.067c5.4-3.866,8.733-11,5.466-13.6-5.133-4.133-6.2-7.2-6.4-9.8-.266-2.6,1.8-7.733,5.4-7.733s5.934-4.133,4.4-4.4c-1.533-.267-15.466,2.8-16.2,9.267-.8,6.4-2.6,8.466-5.4,8.2-2.8-.267-12.666,2.066-12.533,0c.2-2.067,5.467-6.934,0-6.934s-11.4-5.666-16.533-2.066c-5.134,3.6-5.4,10.533-.8,16.2c4.6,5.666,2.333,7.2-4.6,9.266-6.934,2.067-10.4,8.4-11.867,13.667-4.6,16.733,11.867,22.867,4.867,27.267-4.8,3-14.467,6.733-19.734,6.466-2.4-.133-3.933-1.133-3.666-3.333.466-4.333,11.333-12.6,8.333-19.733-.267-.6-.533-1.2-.867-1.8-2.533-4.4-7.066-8.334-9.266-8.334-3.6,0-7.467-5.4-6.2-6.4c1.266-1,5.133-8.2,2.333-6.2-2.8,2.067-5.933,4.4-9,5.4s-3.6-1.8-6.4-.533-1.8,7.733-8,6.2c-2.267-.6-5.067-2.133-6.867-4.333-3-3.667-3.2-8.934,6.667-13.934c3.8-1.933,6.733-3.8,8.933-5.733c7-5.933,7.2-11.8,5.467-18.2-2.333-8.467-7.2-13.133-11.333-14.4-4.134-1.267-5.934-7.467-2.8-9.8c3.066-2.333,3.066-5.4,5.933-6.933c2.8-1.5338,17.467-6.6672,14.4-8.4672s-6.4,2.3334-10.067,2.0667c-3.6-.2667-16.466,1.2667-18.266,6.9335-1.8,5.667.266,11.867-8,10.067-8.2-1.8-27.2,3.066-36.267,14.133-13.867,17-1.267,30.6-3.6,34.467-2.333,3.866-10.8,7.733-12.6,3.066-1.8-4.6-8-4.6-9.267-3.333-1.266,1.267-24.2,10.267-21.6,26.267c2.6,15.933,10.067,10.8,8.467,14.666-1.533,3.867-6.933,6.934-7.2,6.2-.267-.8-20.667-11.066-34.733,5.4-10.267,12.067-3.334,21.067-3.334,21.067s-18.8,11.067-13.866,25.733c4.866,14.667,11.6,17.467,16.733,14.934c5.133-2.6,8.467-.534,7.467,1.266s-5.134.534-5.4,3.6c-.267,3.067,3.866,6.4,2.066,7.734-1.8,1.266-3.333,3.333-6.4.266-3.066-3.066-11.6-.533-11.6-.533s-15.666-2.067-18,6.667c-2.333,8.733-.8,11.066-4.4,11.6c0,0-6.4.266-9.266,3.066-2.8,2.8-3.6.267-9.534,2.334-5.933,2.066-17.2663,2.333-12.5997,4.133c4.6,1.8,34.9997-.267,44.2667,1.8.6.133,1.267.267,1.933.4c10.067,1.733,29.667,1.8,36.934-.4c7.733-2.333,31.666-.067,29.6,1.667-2.067,1.733-5.934,4,.133,4s19.2.533,23.533,0c4.4-.534,8,1,15.667.2c7.733-.734,16.2,4.133,22.867,4.133c6.666,0,25.2-4.4,29.866-4.6c4.6-.267,13.134,2.8,30.6,1.8c17.467-1,26.267-10.533,26.267-10.533s8.467,4.6,16.467,4.4c8-.267,15.466,1,22.4,1.533c6.933.533,10.066,2.333,21.6,0c11.6-2.333,20.866-3.867,28.066-3.867c7.067-.133,23.8-2.2,12.2-3.2Zm-210.466-35c-2.334-4.866-4.4-2.6-7.934-3.066-3.533-.534-8.8-7.467-3.066-9c5.733-1.534,15.4-18,15.4-26.734c0-8.733-12.867-12.333-11.867-18.533s-7.2-6.4-11.067-10.267c-3.866-3.8,0-4.4,0-4.4s5.667,2.067,14.4-.266c8.734-2.334,5.4-1.8,14.667.266c9.267,2.067,17.467-7.2,22.133-7.2c4.6,0-6.733,7.667,6.667,13.134c1.867.733,1.333,4.933,3.733,7.733c2.8,3.267,8.4,5.467,9.667,10.067c1.733,6.266-1.733,8.733-8,9.933-2.267.4-4.8.667-7.667.867-10.8.8-11.866,6.666-17.466,11.066-4.8,3.667-1.467,9.934.4,16.134.333,1.133.666,2.266.866,3.4c1.267,7.2-4.4,9-8.466,10.066-4.134.934-10.067,1.667-12.4-3.2Z" fill="#e2d9d9"/><path d="M172.937,316.101c7.733-2.333,31.667-.067,29.6,1.667-2.067,1.733-5.933,4,.133,4c6.067,0,19.2.533,23.534,0c4.4-.534,8,1,15.666.2c7.734-.733,16.2,4.133,22.867,4.133s25.2-4.4,29.867-4.6c4.6-.267,13.133,2.8,30.6,1.8c17.466-1,26.266-10.533,26.266-10.533s8.467,4.6,16.467,4.4c8-.267,15.467,1,22.4,1.533s10.067,2.333,21.6,0c11.6-2.333,20.867-3.867,28.067-3.867s23.933-2.066,12.333-3.066-10.267-.534-20.867-1.534c-10.533-1-8-2.333-11.6-3.933-9.466-4.333-9.266.133-11.066-2.467s-3.867-7.2-9.934-8.466c-9.2-1.934-11.666,8.533-14.266,6.2-5.134-4.6-4.134-10.067,4.866-11.6s23.934-14.667,24.934-27.267c.733-8.667-6.867-18.266-11.734-23.466.134,3.466.267,7.799.134,12.866-.267,15.467-11.6,18.134-13.4,18.534-8.667,1.8-14.867-2-14.867-2s.467,14.333-14.2,8.666c-14.667-5.666-12.6-18.266-14.133-23.133-1.534-4.867-6.4,11.867-2.6,15.467c3.866,3.6,4.466,20.866-7.8,25.133-26.734,9.266-40.534-2.2-43.134-2.2s3.334,19-17.733,24.2c-6.6,1.6-37.267-5.867-29.067-23.934c2.134-4.666,8.467-7.2,16.2-8.466c7.734-1.267,1.867-17.4-.333-17.8.333,1.133.667,2.267.867,3.4c1.266,7.2-4.4,9-8.467,10.066-4.133,1-10.067,1.801-12.333-3.066-2.334-4.867-4.4-2.6-7.934-3.067-3.533-.533-8.8-7.466-3.066-9c5.733-1.533,15.4-18,15.4-26.733s-12.867-12.333-11.867-18.533-7.2-6.401-11.067-10.267c-3.866-3.8,0-4.4,0-4.4s5.667,2.066,14.4-.267c8.734-2.333,5.4-1.8,14.667.267s17.467-7.2,22.133-7.2c4.6,0-6.733,7.667,6.667,13.133c1.867.734,1.333,4.934,3.733,7.734c2.8,3.266,8.4,5.466,9.667,10.066c1.733,6.267-1.733,8.734-8,9.934c15.467.733,10.6-11.734,17.533-18.134c6.934-6.4,19.267-8.533,19.334-11.067-2.4-.133-3.934-1.133-3.667-3.333.467-4.333,11.333-12.6,8.333-19.733-.266-.6-.533-1.2-.866-1.8-1.134,1.733-2.2,3.867-2.534,6.067-.733,4.866-15.733,3.866-17.8,10.866-2.066,6.933-14.933,7.667-20.333,3.8-5.4-3.866.533-6.667-1.533-12.6-2.067-5.933-5.934-.533-10.267-6.2-3.2-4.133,4.667-12.133,9.067-16.133-3-3.667-3.2-8.934,6.666-13.934c3.8-1.933,6.734-3.799,8.934-5.733-3.467.734-7.8,1.4-13.067,1.6-14.933.534-16.467,4.267-17.467,18.534-.533,7.533-13.866,8.466-21.6,10.266-7.733,1.8-1.8,9.267-2.066,14.467-.267,5.2-8.734,4.8-14.334,2.266-5.6-2.599-10.6-1.866-13.933,2.267-3.333,4.067-1.533,12.667.267,13.733c1.8,1,11.866,3.334,11.866,6.667s-2.066,7.2.8,10.267c2.8,3.066-.266,13.133-4.866,17.467-4.6,4.399-7.2,2.599-5.934,7.466c1.267,4.867-3.066,15.2-9.8,14.133-6.666-1-4.4-2.8-5.933-2.8s-.533.8,3.333,10.8c3.867,10-12.066,24.667-17.733,23.667s0-9.533,0-9.533-8.467.266-8.733,5.667c-.267,5.4,1.533,8.199-3.334,8.199-4.866,0-6.933-.266-7.733,3.334s-11.867,6.2-15.933,5.666c-2.2-.266-10.134.8-17.134,1.934c10.067,1.4,29.667,1.466,36.867-.667Z" fill="#c9bdbd"/><path d="M390.4,163.768c-5.4-.467-11.467-4.467-17.933-3.867-16.867,1.533-9.8,19.067,0,21.6c2.333.6,6.066,2.333,5.933,5.333-.267,6.4-6.667,6.934-6.8,8.4-.267,2.134,2.4,5.667,1.133,7.8-1.266,2.2-3,2.734-5.533,2.8-6.667.267,1.867,12.467,1.867,12.467-1.467-2.067-1.8-4.267-.334-6.067c3.867-4.533,10.8-5.533,10.8-8.133s-4.133-4.867-2.6-6.667c1.534-1.8,12.067-8.733,4.4-17-7.733-8.2-17.733-5.666-14.666-12.6c3.066-6.933,10.533-6.2,20.6-2.6c3.666,1.334,7.4.134,10.533-2.066-2.267.666-4.733.8-7.4.6Z" fill="#c9bdbd"/><path d="M188.73,224.634l7.867,4.333l7.4,4.6-5-6.866l3.733.266l2.267,1.267-2.333-3.2-2.267-1.333l2.467-3.6-4,2.2-3.934,1.2-6.2,1.133Z" fill="#223551"/><path d="M205,234.234l3.867,4.734c0,0,5.533,2.6,5.4,2.6-.134,0-3.867-4.067-3.867-4.067l-5.4-3.267Z" fill="#223551"/><path d="M207.266,228.901l4.266-6.934l6.334-6.133-7.067,1.8l2.4-3.133-2.8.2l3.867-3.6l3.6,2.4l5.2,2.133l5.666,1.8l4.734.933l5.066.2-1.266,2.4-.4-1.6-2.734,3.467-2.866-1.933c0,0-1.667,1.066-1.8,1.066-.067,0-.067-2.2-.067-2.2l-1.8-1.4-2.733.334-2,3.4-.467-3.734.8-1.6-6.867,3.534-9.066,8.6Z" fill="#223551"/><path d="M281.266,311.234l10.866-9.933-.333,1.066-10.533,8.867Z" fill="#223551"/><path d="M248.531,196.834l9.534-4.134-5.734.8-3.8,3.334Z" fill="#223551"/><path d="M106.664,274.301l-1,1.466c0,0,1.467,5.4,1.933,5.467.467.067,5.2,3.533,5.2,3.533l13.134,6.134h1.266l1.067,1.466l2.933,1.467.667,1.467l5.133,3.466v1.2l2.467,2.867-10.867,9.4-3.733,5.2.667,2.267l5.733,2.4l7.4-.934l10.6-5.466l6.467-4.867l7.333-2l5.133-1.2c0,0,4.2-5.467,4.2-5.733c0-.267,0-4.267,0-4.267l-2.4-3.133-8.933-1.4-3.933-3.867-.934-2.867-.533-.266.467-1.2h-.667l-2.2-5.734-46.6-4.866Z" fill="#3e5e84"/><path d="M266.867,316.234l7.134,7.2l10.4,6.067l1.133-.4l2.467,1.133h2.066l12.734,10.934l1.266.533l8.134,12.267l6.2,18.4l3.4,12.733l4.4,5.867l4.933-3.8l2.2-6.934-.733-9.866-3.867-14.534-.133-2.6-4.4-11.6v-1.8l-2.467-4.133-2.267-.267-4.2-7.4-4.533-8.6-.733-.8-1.6-3.4v-1l-11.067-19.733-30.467,21.733Z" fill="#3e5e84"/><path d="M295.333,291.168l.866-8.667-33.733-48.8-10.933-8.333-5.2-4-31.867-10.134-5.8,5.134-7.133,2.266-2.134,3.734c0,0-1.933,0-2.4,0-.466,0-.466,2.4-.466,2.4l-3.6-1.067-4.934,1.6-62.8,24.267l28.267,26.266l48.467-2.2l18.266,8.667l19.067,9l2.533,3.867l12.934,19.6.666.2l11.134,3.6l1.266.4.267-.067l5.8-2.133l7.867-2.867l14.066-15.733l2.867-3.2-3.333-3.8Z" fill="#324c6b"/><path d="M159.466,275.368c-.467-.334-.934-.734-1.467-1.067-1.6-1.067-3.267-2-4.867-3s-3.2-2.067-4.733-3.133c-3.067-2.134-6-4.334-8.867-6.6-4.866-3.867-9.6-8-14.333-12.067l-19.933,24.933c0,0,6.866,7.4,23.733,7.8s24.133-3.4,24.133-3.4l.2-1.933-2.866-.933l9-.6Z" fill="#324c6b"/><path d="M266.065,178.434l-22.733,31.333-16.2,4.467-11.934-9.067-1.266-.933-7.067-5.467v-2.2l-2.467-2.466-.866-3.867-10-14.933-1.534-6.2-3.933-5.6-1.8-5.734-6-10-11.133-.933-.334-.067-.866-1.2-1.467-2.133-1.067-1.467v-10l.734-.333.266-.133l12.134-5.867l5.666-1.6l19.667-5.6l24.2-6.867l23.2,16.734l14.8,50.133Z" fill="#223551"/><path d="M158.001,133.7l.6,7.467-4.6,2.933-2.934,3.8-3.666.267-1.467-1.267l1.267-7.2-6.334,2.8l1.467-5.066l15.667-3.734Z" fill="#3e5e84"/><path d="M151.266,134.567l4,4.6-.534,5l6-1.133l4.2,2.667h5.667l-2.467-14.6-7.2,1.933-8.066.133-1.6,1.4Z" fill="#3e5e84"/><path d="M243.599,167.434v39l-9.6,3.467-14.8-3.6-4-1.133-1.267-.934-7.066-5.466v-2.2l-2.467-2.467-.867-3.867-10-14.933-.466-1.867-1.067-4.333-3.933-5.6-1.8-5.733-6-10-11.134-.934-1.2-1.266-1.2-1.334-.266-.8-.667-2.066-.4-1.134-.133-.6.133-1.6.4-3.2.267-2.266.066-.934.267-.133l17.8-7.467l4.6-1.933l11.8-5.6l3.267,1.933l28.266,16.667l5.067,11.4l6.4,20.933Z" fill="#324c6b"/><g><g id="eRpiu5HqKX491"><path d="M313.401,66.834l-4.334,5.2667-8.266,10.0666-70.934,30.6667-8.333-2-4.733-1.133l96.6-42.867Z" fill="#a3b3c9"/><path d="M309.065,72.1006l-8.267,10.0667-70.933,30.6667-8.334-2l87.534-38.7334Z" fill="#8aa1bc"/></g><g id="eRpiu5HqKX494" transform="matrix(.999968-.00806 0.00806 0.999968-1.184744 1.101526)"><path d="M149.933,141.634l-1.734,4.066-21.6,9.667-4.333-1.733-.067-.067l2-3.867l23-10l2.734,1.934Z" fill="#324c6b"/><path d="M149.932,141.634l-1.733,4.066-21.6,9.667-4.333-1.733l27.666-12Z" fill="#223551"/></g></g><path d="M298.467,294.967l-2.866,3.2-3.467,3.134l2.333-6.534-1.466-1.933-8.867,6.067l6.8-14.067-4.333-7.733-5.334,6.6v-5.4l-22.4,5.6-2.866,5.133l2.866.4-2.866,9.067l6.333-.2-7.4,4.066l3.133,7.4l15.667,7l1.4.6-4.533,2.067-2.667-.533-1.467-.334-10.266-2.2-.867-1.4-2-3.533-10.333-14.6-1.267-1.667-2.933-3.866-7.667-2.467-10.8-6.067-.2-.533-6.333-16.067l37.733-40.8l10.933,8.334l33.734,48.8-.867,8.666l3.133,3.8Z" fill="#223551"/><path d="M159.532,275.5c-.533-.4-1-.8-1.533-1.133-1.6-1.067-3.267-2-4.867-3s-3.2-2.067-4.733-3.133c-.267-.2-.6-.4-.867-.6l-4.266,1.4l4.666,4.8-24.533-3.267l24,6.133-7.067,2.934-15,.066-17.066-8.533l9.8,10.067c0,0,6.466,1.2,16.8,1.2c10.333,0,18.333-3.4,18.333-3.4l.2-1.934-2.867-.933l6.134-.267l2.866-.4Z" fill="#223551"/><path d="M206.531,255.9l-6.267,1.534-10.266-4.134-14.534-10.666l12.734,14.4h-5.067l-19.2,2.866-22.333,2.6l60.266,11.067l4.4,2.267L219.598,244.3l-13.067,11.6Z" fill="#223551"/><path d="M220.664,280.834l11.667-14.8l30.733-20.933l10.4,4.467-11-15.867-6.067-4.667-10.333,2.534-19.933,25.133-5.467,24.133Z" fill="#05152b"/><path d="M204.066,277.501l3.134,2.533l8.066-1.267l5.8-2.2l19.134-24.6l16.2-22.533-18.6-8.867-15.6,18.4-12.334,25.334-3.2,2.466-.4,5.4-2.2,5.334Z" fill="#3e5e84"/><path d="M214.266,203.367l.2,7.867l5.4,3.467l6.466,2l7.667,1.933h5.667l4-11-7.6.667-9.934.133-7-2.267-4.866-2.8Z" fill="#579"/><path d="M277.933,215.634l-2.2,7.4-10.867,6.4h-15.733l-1.067-.8-9.533-6.4-1.2-1.133l9.8-21.467-5.867-23.733-3.8-19.6-4.533-15.4-8.8-30.133l12.6,2.2l17.2,17.533l16.266,43.333l5.2,20.534l2.534,21.266Z" fill="#324c6b"/><path d="M238.2,322.834l-.2-.067-2.667-1.066-2.066-3.4-5-3.734-.934-.733.8,7.867l3.534,12.933-.4,2.333v.2l-4.6-6.8-4.4-15.6-.067-.333-3.2,9.467-.2,8.266.667,11.4-.067-.133-2.067-2.6-1.933-9.533-1-10.4-.533-7.8-4.667,14.266v14.534l-2.267-5.734-1.533-14.066.733-9.467.4-5.067-6.066-7.666-6.4.533-1.134,3.067-5.133,6.266-4.8,2.067l3.867-11.067l5.8-4.8l5.733-7.133l8.467-16.733l14.066,3.2l1,15.4l5.867,14.133l1.867,4.467l2.466,4.8l2.6,2.6l3.467,6.133Z" fill="#587ca0"/><path d="M277.933,215.634l-2.2,7.4-10.867,6.4h-14.533l-2.267-.8-5.6-1.866-2.133-2.467-2-2.267-1.067-1l2.333-4.866-.8,4l4.067,3.666.133-4.866l4.134-5.867-1.134,6.467l1.267,4.8l4.8.533l5.067-10.133-2.067,10.133l6.2-10.667-.667-4.666l7.8-1.067-3.466-5.133-12.067-4.867l13.733-4.733-7.533-1.6l6.067-3.734-1-9.333-10.134-31.067-8.666-6.6-7.6-7.6.733,16.334-5.867-21.2-1.866,1-4.867-9.734-1.733-9.466l1.133.2l11.467,2l17.2,17.533l16.266,43.333l5.2,20.534l2.534,21.266Z" fill="#223551"/><path d="M239.934,325.434l-1.933-2.667-3.067-4.266-1.933-2.534-2.4-2.866-2.8-1.4.466,2.866.8,4.867c0,0,5.467,13.8,5.467,14.333c0,.534-2.533,4.6-3.067,3.8-.133-.133-.2-.333-.266-.533-.267-.933-.267-2.333-.267-2.333l-2.867-7.534-1.533-5.8-4.267-9.133-.066,2.6-.2,4.667-.934,11.866-1.666,13-.134-.866-1.266-7.667-.4-12.8-3.8-9.8-.8,5.867-1.8,12.866-1.867,10.867-.2-1.333-.733-4.2v-12.867l1.466-13.6-3.8,1.867.4-5.067-6.133-7.667-6.4.534-1.067,3.133-5.133,6.2-4.867,2.133l4.467-5.2l1.333-4.066l5.467-4.2l5.8-5.4l24.467,7.6l3.333,4.266l2.933,3.734c0,0,7.467,8.6,7.4,8.8.067.066,1.8,7.666,1.867,7.933Z" fill="#3e5e84"/><path d="M188.266,163.767l-.2-.267-1.8-5.733-6-10-9.934-.867-1.2-.066-1.2-1.267-1.2-1.333-.266-.8-1.2-3.8.866-8l.2,4.333l6.867-1.2-5.467,3.667l3.067,1.533l7.8,3l1.733-.667l8.134,8.934-.467,1.733l4,16.133-3.733-5.333Z" fill="#223551"/><path d="M185.999,122.9l-.733,9.267l6.733,18.6l2.2,1l4.867,8.2-.734-5.067l18.467,25.2-30.8-57.2Z" fill="#223551"/><path d="M200,165.5l4.333,8.533l3.934,8l5.533,5.934-5.333-9.267-5.6-9.333L200,165.5Z" fill="#223551"/><path d="M218.266,181.5l11.8,17.8l6.666,9-6.4-13.133-5.266-9.2-6.8-4.467Z" fill="#223551"/><path d="M230.731,129.967l-2.334,6.4-5.133,24.8-4.933,20.133l2.933-28.867-11.4,8.4l6.067,17L205.664,159.3l8.733-10.733l16.334-18.6Z" fill="#223551"/><path d="M203.598,188.434l4.2,9l6.2,6.8l4,2.066l7.066,2.067h10l-6.933-.8-1.867-3-.4,3-7.4-9.067l1.8,7-9.133-7-7.533-10.066Z" fill="#223551"/><path d="M243.333,202.034l-1.466-6.067v-1.6l-.934-1.533-2.333-9.533l1.267,1.666-7.467-19.8-2.4-10.066l3.333,8l3.667,5l.467-11.734l9.133,41.067-3.267,4.6Z" fill="#223551"/><path d="M252.933,198.101l4.733.933-5.267.6h-4.266l4.8-1.533Z" fill="#223551"/><path d="M142.332,137.434l4.8-4.733l6.133-1.134l9.467,1.2-1.533,2.467-18.867,2.2Z" fill="#223551"/><path d="M186,130.767L211.733,154.7l9.334-8.266l4.466-17.934-1.666-12.466.266-5.4l6.6,19.333-3,5.933-4.266,15.867-5.2,29.733-23.134-31.866L186,130.767Z" fill="#05152b"/><path d="M218.266,181.501l10.866,16.6l7.467,10.067-6.4-11.334-11.933-15.333Z" fill="#05152b"/><path d="M238,159.301l1.067,9.8l3.2,12.733.333,4.2-1.467.267l4.267,8.866-1.333,1.134l1.333,3.933-.467,4.2l2.2-4.8L238,159.301Z" fill="#05152b"/><path d="M208.465,197.367l6.6,7.4l2.933,1.534l7.067,2.066h4.933l-2.2-.2-.933-1.2-.2,1.067-1.867-.2-3.8-3.667l1.534,3.134-4.6-1.867-9.467-8.067Z" fill="#05152b"/><path d="M256.4,137.168l-2.466-6.667l2.2,6.667c.066,0,.2,0,.266,0Z" fill="#05152b"/><path d="M224.133,110.768l5.4,16.533l4,.267l4.8,20.466-2-17.8l13.666,13.067-11.666-19.667l13.2,6.8l9.333,18.6-1.733-4.6-5.2-13.933-17.2-17.533" fill="#05152b"/><path d="M203.664,277.834l4.4,1.733l8.4-3.333l3.2-.6-3.867-4.133-.4-4.2l1.4.666l9.334-10.533-.467-4.867l3.2.667l8.267-11.333-.534-4.6l9.4-6.467-10.266-.333-4.467-1.467l4.8.4l3-1.4-1.733-2.067.466-5.133-16.6,19.267-6.8,11.266-5,13.334-2.266,2.066-.534,4.867-2.933,6.2Z" fill="#587ca0"/><path d="M275.399,194.368l-5.2-20.534-8.267-22.066c-.267.2-.467.4-.733.533l1.266,3.933-.866,2.334l3.266,7l5.8,14.266.8,9.267-12.4,3.067l10.4.933l3.4,4.133-8.2,1.134l7.934,3.2l5.4,14-6.067,4.933-7.667-2.533-1.733,8.8-6.133.6c0,0-2.4.6-2.534.4-.133-.2.334-3.334.334-3.334l-3.2,3-3.667-1.666-2.267-4.867.667-5.067-1.4,3.467-.4,6.4-3.6-1.467l2.133,2.467l5.6,1.867l2.334.8h14.533l10.867-6.4l2.2-7.4-2.6-21.2Z" fill="#05152b"/><path d="M252.467,198.834h1.8l4.6-1.066l4.933.666-3.867.267-2.266.133-2.667.2-2.133.334-1.867-.2l1.467-.334Z" fill="#05152b"/><path d="M214.73,208.167l5.534,2.2l12,1.733-13.067-1.066-4.467-2.867Z" fill="#223551"/><path d="M225.598,213.367l8.666.4h6.734l-6.734.934-8.666-1.334Z" fill="#223551"/><path d="M242.73,210.234l-3.733-.067-9.267.067l5.934.133c0,0,3.8.133,3.933.2.133,0,3.133-.333,3.133-.333Z" fill="#223551"/><path d="M215.133,210.567c0,0,3.066,1.934,3.133,1.867s9.467,2.867,9.467,2.867s7.866.866,8,.866c.133-.066-7.867-.133-7.867-.133l-9.4-3.067-3.333-2.4Z" fill="#223551"/><path d="M227.265,304.3l-3.733,3.4-13.667,1.8-6.333-1.466-.4-1.667-3.734-13.867l8.334-20.866l11.2,3.266l1.733.467v.067l2.2,10.666l4.4,18.2Z" fill="#223551"/><path d="M227.266,304.3l-3.733,3.4-13.667,1.8-6.333-1.466-.4-1.667l6.533,2.133l13.4-2l3.533-4.866.667,2.666Z" fill="#05152b"/><path d="M188.265,163.767l-.2-.267-1.8-5.733-6-10-9.867-.8c4.267-.267,11.2-.8,11.2-.8l3.734,5.067l2.066,7.066.867,5.467Z" fill="#05152b"/><path d="M232.867,164.768l3.867,8.133l4.467,11.467-2.867-9.4-2.733-7.934-2.734-2.266Z" fill="#05152b"/><path d="M290.066,330.234L294.6,331.3l3.466-3.4l5.734-6.333L308,317.1l.933-2.466-4.6,4.133-4.267,5-2.6,3.267-7.4,3.2Z" fill="#324c6b"/><path d="M302.531,340.767l2.334-4l3.333-9.2l2.133-8.266v6.133c0,0-1.666,6-1.733,6.267-.067.2-2.667,7.666-2.667,7.666l-2.066,3-1.334-1.6Z" fill="#324c6b"/><path d="M304.665,342.367l4.266-.467l4.534-3.333l4.266-5.933-5.133,5.466-5.467,3.134-2.6.2.134.933Z" fill="#324c6b"/><path d="M307.664,346.967l6-2.8l4.933-9.733-1.733,6.866-2.867,4.534-5.466,2.133-.867-1Z" fill="#324c6b"/><path d="M221.199,240.1l8.867.667l10.133-2.933c0,0,12.467-4.667,12.4-4.667-.066,0-16,4.133-16,4.133l-10.066,1.934-3.6.266-.067-1.266-1.667,1.866Z" fill="#3e5e84"/><path d="M186,130.767L196.267,149.1l8.6,5.934l4.466,1.6l3,.4l6.067-5.067l3.8-6.867l4.8-15.2-2.867-19.133-9.733-15-7.133-2.6h-9.334l-10.733,17.6-1.2,20Z" fill="#223551"/><path d="M190.867,109.5l3.133,19l2,1.067h12.267l8.266-2.133l3.267-1.467-.333-6.467-3.734-11.133-4.666-8.8-6.867-2.1333l6.4-.6667-2.267-3.2-10.4-.4-10.733,17.6-1.2,20L196.267,149.1l8.6,5.934l6.933.666l5-4.266l3-5.734v-10.8l-2.933,2.534L215,141.567l-.267-3.2-7.733,1.8v2.867l-3-2.8-7.867-.8l2.934,7.933-4.4-8.067-2.934-8.4-.866-21.4Z" fill="#324c6b"/><path d="M202.466,129.567l3.733-1-.2-9.333l5,10.333l3.067-1.733v-4.934l-.333-6l1.333,4.467.333,6l3.8-1.133-8.066,4.2h-8.534l-8.4-1.067l8.267.2Z" fill="#223551"/><path d="M195.132,129.967l-1.934-4.667-1.2-9.867-.666-7.2-.867,11.2l1.733,9.2l2.934,1.334Z" fill="#223551"/><path d="M190.465,119.1l3.267,13.934l4.133,1.533l17.733-3.867l3.6-4.466-3.267-17.334l3.534,10.6.8,8.934-.334,14.066-.733-8.266-3.466,2.866-6.267,2.067-5.8.467-8.333-.867l1.866,5.2-2.667-5-2.733-7.867-1.333-12Z" fill="#05152b"/><path d="M300.066,290.634c3.333-2,4.467-.067,7.467-1.067c2.933-1,3.733-2,5.466-3.866c1.734-1.867,6.067-5.2,4.667-6.534-1.333-1.333,1.2-6.533,3.333-7.4c2.134-.866,3.334-2.6-1.066-1.133-3.667,1.267-5.734,4.2-6.334,5-.266.333-4,.267-5.266,2.067-1.8,2.533-1.2,7.2-1.2,7.2s.933,1.4-1,1.266c-1.934-.2-3.534,1-5.867,2.667s-4.133,2.333-4.4,3.733c-.333,1.467.867.067,4.2-1.933Z" fill="#fff"/><path id="eRpiu5HqKX4144" d="M181.067,341.367c-4.067.067-7.934-.333-9.267-1.266-.533-.4-.8-.934-.867-1.6-.066-2.334,2.934-5.734,6-6.667c3.934-1.2,3-4.867,3.667-7.2s-3.4,1.933-5.333-.267c-1.867-2.2,7.466-8.4,11.133-10.933s-.667-4.2-1.067-3.533c-.333.6-1.533,3.466-8.666,5.333-7.134,1.867-9.334,1.4-12.134,4.933-2.8,3.534-.733,5.467-.733,5.467s-9.2-3.667-16.267-1.2c-5.733,2-10.733,7.467-11.666,9.067-.934,1.6-4.867,3.666-10.934,1.2-6.066-2.467-11.666.6-14.6,4.6-2.866,4,.467,6.533-1.466,7.266-1.934.8-10.4004,1.067-12.0671,5.334-.9333,2.466-4.8,1-8,.666-3.2-.333-3.1333,2.267-8.2667,2.934-3.6.466-5.9333,1-6.2,2.266-.2,1.267,5.5334.734,5.5334.734s1.6-.067,4-.534c.2666-.066.5333-.066.8-.066c2.6,0,7,1.333,12,1.8c7.0664.666,9.4664-.934,13.9334.8c4.467,1.8,11.867,3.333,13.867,4.533s6.933,2.933,10.666,2.533c3.667-.466,9.2-3,11.134-3.666c1.933-.667,8-1.734,13.4-1.867c5.4-.067-.6-.867-.6-.867s-2.267-1.066-8.867-.466c-4.8.466-6.2-.534-7.267-1.4-.4-.334-.733-.667-1.2-.867-1.733-.8-7.933-2.067-10-2.133-1.2-.067-3.666.133-5.666-.067-1.4-.133-2.667-.467-3.067-1.133-1.067-1.734,5.867-2.467,8.333-4c2.467-1.534,11.2-1.8,15.8-2.4c4.6-.534,7.667,0,11.334-.067c3.666-.067,8.933-2,31.533-2.4c15.067-.267,31.933.467,41.4.933-.533.667-1.133,1.4-1.933,2.2-.334.334-.667.667-1,1-2.8,2.734-2.334.067-5.334,1.267-3,1.267-2.733,2.333-4.866,2.8-2.134.4-5.667-1.533-11.467-1.333s-4.933,6.933-6.333,7.533-3.334-.667-5.467-1-2.933,1.267-12.267,2.133c-9.333.867-8.6-.066-11.2.2-2.6.267-.8,1.534.6,1.534c1.2,0,3.467,1.066,7.734,1.6.6.066,1.266.133,2,.2c5.666.333,18,4.266,23.266,4.933c5.267.667,14.467-.333,14.467-.333s12.333.2,20.8-.734c3.333-.333,6,4.2,13.867,5.2c7.933,1,27.8-4.466,33.933-4.066c6.2.4,14.4-2.334,22.467-3.134c8.133-.733,15.533-1.4,19.933-1c4.467.4,10.6-.8,12.067-2.066c1.466-1.267-4.067.333-6.667-.6-2.6-.934-8.8-1.067-10-1.267-1.267-.2,3.467-.8,8-.867c4.533-.066,6.533-6.533,10.733-7.4c4.2-.866,11.134.467,12.067-1.266.933-1.734-1.867-.467-4.933-.4-3.067.066-3-1.067-5.067-2-2.133-.934-6.267.133-8.467,1.133s-4.333-1.4-4.533-4.467c-.2-3.066-3.467-.933-4.6-2.133s1.8-2.733,3.4-4.6-1.133-1.333-1.133-1.333-6.4,5.533-8.067,3.133c-1.667-2.467-4.333-.067-7,1.467-2.667,1.533-11.933-.267-7.733-6.667c4.2-6.333,13-4.8,19.733-4.333c6.8.466,8.267-4.6,10-4.6s8.8-4.134,10.267-11.134c1.466-7.066-5.067-7.333-9.2-9.466-4.134-2.134.533-4.334,2.6-7.2c2.066-2.867-2.334-6.734-3.134-8.8-.8-2.067,2.8-3.4,11.134-3.267c8.4.067,4.666-7.333,7.333-8.867.8-.466,1.667-1.666,2.467-3.133c1.933-3.467,3.466-8.4,2.6-8.2-1.2.267-.934,3.6-3,5.467-2.067,1.866-4.667,1.933-5.2,3.933-.6,2-3.667,2.067-6.534.6-2.866-1.4-3.8-.333-6.066.2-2.2.533.066,3.067-9.267,4.867s-6.2,10.466-6.133,13.666c.066,3.2-1.6,5.667-4.134,1.934-2.533-3.8-6.333-3.334-6.533-1.867s-1.8,1.533-7.6,2.467c-5.8,1-4.2,5.6-3.667,7.6.534,1.933,5.867,4.466-1.4,5.066-7.266.667-9.4,4.6-10.8,9.067s3.8,6.733,7.467,5.8s2.067,4.4-3.467,5.133c-5.533.734-8.666-3.2-11-8.533-2.333-5.4,2.267-11.267,6.667-14.067s2.4-10.866.533-12.8c-1.866-1.933-2-3.2.8-3.733s2.267-2.867,1.134-3.933c-1.134-1.067-3.667-4.734,4.066-6.6c7.734-1.867,6.134-9.134,6.067-12.067s-2.467.533-2.533,3.867c-.067,3.333-2.8,3.6-5.2,4.533-2.467.933-3.267,3.6-5.734,2.8-2.466-.8-10.466,1.267-13.4,7.133-3,5.867,3.467,8.8,6.934,9.334c3.466.533,1.933,4.533,1.6,5.533-.334,1-3.334,1.533-7.267.733s-9.067,4-9.733,6.467c-.667,2.467-3.067,7.067-8.334,3.2-5.266-3.867-10.4-2.667-16.6,1.533s-7.933,11-5.6,16.734c2.334,5.733-8.266,6.2-8.333,3s-6.4-5.4-8.667-1.334c-2.266,4.134-9.866,7.467-12.8,8.334-2.933.933-5.8,0-8.066-2.8-2.267-2.8-5.467-.667-9.867,1.066-2,.667-5.933,1.134-9.733,1.2Zm57.133-.8c0,.067,0,.2-.133.4.066-.266.133-.333.133-.4Zm16.933,14.867c-5.4,1.933-15.066,2.933-16.533,3.133-2,.267-4.533-.8-6.067-2.266-1.533-1.467-3.066-2.334,1.334-5c.866-.534,1.533-1.134,1.933-1.667.533-.667.8-1.4.8-2.067c1.467.067,2.333.134,2.333.134s21.2,2,19.734,5.4c-.267.866-1.667,1.666-3.534,2.333Z" fill="#f4e9e9"/><path d="M160.468,345.234c-6.866.134-16.666-.333-18.6-.4-2-.066-2.666-5.6-4.066-5-1.334.667.133-.133-3.534,1.934-1.866,1-3.133,2.866-6.2,3.533-2.533.533-6.933-.2-8.133,1.467-.2.333,2.267,1.2,2.333,3.866c0,2.667-2.266,3.534-6.466,3.867s7.8,3.6,10.333,1.733c-1.4-.133-2.667-.466-3.067-1.133-1.066-1.733,5.867-2.467,8.334-4c2.466-1.533,11.2-1.8,15.8-2.4c4.6-.533,7.666,0,11.333-.067c3.667-.066,8.933-2,31.533-2.4c15.067-.266,31.934.467,41.4.934c1-1.2,1.6-2.2,1.934-3.134.6-1.6,6.066-5.066,4.533-3.066s-2.067,1.266-1.867,2.933c.134.867.734,2.133.6,3.533c1.467.067,2.334.134,2.334.134s21.2,2,19.733,5.4c-.4.866-1.733,1.666-3.6,2.266c2,.334,6.866-2.266,9.733-2.333c3-.067,10.2-1.333,11-3.6.334-1-3.866-.4-5.733-3.933-1.6-3.067,1.2-4.934,2.067-7.534.866-2.6-2.934-2.2-2.667-4.2.266-2-1.933-1.6-2.4-1.466-.4.066-.533,3.266-3.8,4.8-3.267,1.533-2.667,2.466-2.8,5.266-.133,2.867-1.667,4.134-8.467,3.534s-6.466-2.2-8.4-2.334c-3.666-.266-3-4-6-4.533s-5.466,1.4-7.333,3.6-2.867,3.267-4.933,3c-2.067-.267-3.134-2.4-5.4-2.267-2.267.134-18.267,2.334-24.667.867-5.133-1.133-12-1.333-14.267-2.933-4.066.066-7.933-.334-9.266-1.267-.534-.4-.8-.933-.867-1.6-.867,1.467-3.6,6.8-10.467,6.933Z" fill="#ddd0d0"/><path d="M106.2,360.767l-.134-.2c0,.067.067.134.134.2Z" fill="#fff"/><path d="M307.399,320.301c-.266.133-.266.133,0,0v0Z" fill="#fff"/><path d="M205.2,370.168c5.267.666,14.467-.334,14.467-.334s12.333.2,20.8-.733c3.333-.333,6,4.2,13.867,5.2c7.933,1,27.8-4.467,33.933-4.067c6.2.4,14.4-2.333,22.467-3.133c8.133-.733,15.533-1.4,19.933-1c4.467.4,10.6-.8,12.067-2.067c1.466-1.266-4.067.334-6.667-.6-2.6-.933-8.8-1.066-10-1.266-1.267-.2,3.467-.8,8-.867s6.533-6.533,10.733-7.4s11.134.467,12.067-1.267c.933-1.733-1.867-.466-4.933-.4-3.067.067-3-1.066-5.067-2-2.133-.933-6.267.134-8.467,1.134s-4.333-1.4-4.533-4.467-3.467-.933-4.6-2.133s1.8-2.734,3.4-4.6c1.6-1.867-1.133-1.334-1.133-1.334s-6.4,5.534-8.067,3.134c-1.667-2.467-4.333-.067-7,1.466-2.667,1.534-11.933-.266-7.733-6.666c4.2-6.334,13-4.8,19.733-4.334c6.8.467,8.267-4.6,10-4.6s8.8-4.133,10.267-11.133c1.466-7.067-5.067-7.333-9.2-9.467-4.134-2.133.533-4.333,2.6-7.2c2.066-2.866-2.334-6.733-3.134-8.8-.8-2.066,2.8-3.4,11.134-3.266c8.4.066,4.666-7.334,7.333-8.867.8-.467,1.667-1.667,2.467-3.133-1.667,1.533-3.934,3.466-6.6,5.8-2.067,1.733-1.134,6.066-11,4.666-9.867-1.4-5.867,7.734-5.067,12.067.8,4.267-5.533,2.533-6.067,5.667-.533,3-3.333,4.266-4.2,4.6.2-.067.467-.134.934-.2c3.666-.8,10.866,2.533,10.6,6.466-.267,3.934-5.467,3.8-5.067,5.8s-4.6,3.867-8.533,3.734c-3.934-.2-4.667,1.533-5.867,4.2-1.2,2.6-5.733,2.933-11.4,3.666-5.667.734-6.333,4.2-8.133,5.2s-2.8,2.4-4.267,3.267-3.667.8-4.267,1.2s1.267,1.2,2.6,1.333c1.334.067,3,3.4,3,3.4s6.2,6.267-1.533,13.2c-7.733,6.934-16.467-.666-18.133-2.2-1.667-1.533-.467-.733-1.934,1-1.466,1.734.134,8.067-4.866,10.134-5,2-19.934-.467-20.4-.934-.467-.466-7.8-3.533-9.934-1.933-2.2,1.6-5.6.2-8.866-.6-4.8-1.2-9.934-6.667-8.6-3.533c1.266,3.133-4.267,4.333-10.934,5.2-3.133.4-9.866-.267-11.866-1.734-2-1.466-6.734.134-9.867.2-1.8,0-6.333-.133-9.733-.2.6.067,1.266.134,2,.2c5.6-.066,17.933,3.867,23.266,4.534Z" fill="#ddd0d0"/><path d="M300.066,290.634c3.333-2,4.467-.067,7.467-1.067c2.933-1,3.733-2,5.466-3.866c1.734-1.867,6.067-5.2,4.667-6.534-1.333-1.333,1.2-6.533,3.333-7.4c2.134-.866,3.334-2.6-1.066-1.133-3.667,1.267-5.734,4.2-6.334,5-.266.333-4,.267-5.266,2.067-1.8,2.533-1.2,7.2-1.2,7.2s.933,1.4-1,1.266c-1.934-.2-3.534,1-5.867,2.667s-4.133,2.333-4.4,3.733c-.333,1.467.867.067,4.2-1.933Z" fill="#f4e9e9"/><path d="M168.667,347.301L168,352.634l10.867,7.133l10.266-.8l6.934-1.666l4.6-10.867-10.2-10.333-18.467,1.4-3.333,9.8Z" fill="#45627f"/><path d="M169.4,345.233l6.933,5.867l16.467-.734L198,344.1l2.667,2.333-4.6,10.867-6.6,1.6-10.6.866L168,352.633l.667-5.333.733-2.067Z" fill="#2d4759"/></g><clipPath id="eRpiu5HqKX4152"><rect width="400" height="400" rx="200" ry="200" transform="translate(0 0.5)" fill="#fff"/></clipPath></g>
</svg>
