<svg width="61" height="60" viewBox="0 0 61 60" fill="none" xmlns="http://www.w3.org/2000/svg">
<g clip-path="url(#clip0_4853_119928)">
<path d="M60.2701 29.7616C60.2701 46.1576 46.8816 59.4645 30.3851 59.4645C13.8885 59.4645 0.5 46.1576 0.5 29.7616C0.5 13.3655 13.8885 0.0585938 30.3851 0.0585938C46.8816 0.0585938 60.2701 13.3655 60.2701 29.7616Z" fill="#2081E2"/>
<path d="M15.263 30.7709L15.3825 30.5927L23.1526 18.5333C23.2722 18.3551 23.5112 18.3551 23.6308 18.5927C24.9457 21.5036 26.0216 25.0679 25.5434 27.3254C25.3043 28.2759 24.7066 29.5234 23.9894 30.6521C23.9296 30.8303 23.8101 31.0085 23.6906 31.1273C23.6308 31.1867 23.571 31.2462 23.4515 31.2462H15.4423C15.263 31.1868 15.1434 30.9491 15.263 30.7709Z" fill="white"/>
<path d="M49.8703 33.0305V34.9315C49.8703 35.0503 49.8106 35.1097 49.691 35.1691C49.0933 35.4067 47.0014 36.3572 46.1646 37.5454C43.9531 40.5751 42.2795 44.9117 38.5738 44.9117H22.9738C17.4749 44.9117 12.9922 40.4563 12.9922 34.9315V34.7533C12.9922 34.6345 13.1117 34.5157 13.2313 34.5157H22.0175C22.1968 34.5157 22.3163 34.6939 22.3163 34.8127C22.2566 35.3473 22.3761 35.9414 22.6152 36.476C23.1531 37.5454 24.229 38.1394 25.3646 38.1394H29.668V34.8127H25.4244C25.1853 34.8127 25.0658 34.5751 25.1853 34.3968C25.2451 34.3374 25.3048 34.278 25.3646 34.1592C25.783 33.5652 26.3209 32.7335 26.9186 31.7236C27.337 31.0701 27.6956 30.2978 27.9945 29.585C28.0543 29.4662 28.114 29.3473 28.1738 29.1691C28.2336 28.9315 28.3531 28.6939 28.4129 28.5157C28.4726 28.3374 28.5324 28.1592 28.5922 27.981C28.7117 27.3869 28.7715 26.7335 28.7715 26.0206C28.7715 25.783 28.7715 25.486 28.7117 25.1889C28.7117 24.8919 28.652 24.5949 28.652 24.2978C28.652 24.0602 28.5922 23.7632 28.5324 23.5256C28.4726 23.1097 28.4129 22.7533 28.2933 22.3374L28.2336 22.2186C28.1738 21.981 28.114 21.684 27.9945 21.4464C27.7554 20.6147 27.4566 19.783 27.1577 19.0701C27.0382 18.7731 26.9186 18.4761 26.7991 18.179C26.6198 17.7632 26.4405 17.3473 26.2611 16.9909C26.2014 16.8127 26.0818 16.6939 26.0221 16.5157C25.9623 16.3374 25.8428 16.1592 25.783 15.981C25.7232 15.8622 25.6634 15.7434 25.6037 15.6246L25.0657 14.6741C25.006 14.5553 25.1255 14.377 25.2451 14.4365L28.5324 15.3275L28.9508 15.4464L29.429 15.5652L29.6083 15.6246V13.6642C29.6083 12.7137 30.3853 11.9414 31.2818 11.9414C31.76 11.9414 32.1784 12.1196 32.4772 12.4166C32.7761 12.7137 32.9554 13.1295 32.9554 13.6048V16.4563L33.314 16.5751C33.314 16.5751 33.3738 16.5751 33.3738 16.6345C33.4336 16.6939 33.5531 16.8127 33.7324 16.9315C33.852 17.0503 33.9715 17.1691 34.1508 17.2879C34.4497 17.5256 34.868 17.882 35.2864 18.2384C35.406 18.3572 35.5255 18.4166 35.5853 18.5355C36.1232 19.0107 36.7209 19.6048 37.3186 20.2582C37.4979 20.4365 37.6175 20.6147 37.7968 20.7929C37.9761 20.9711 38.0956 21.2087 38.2749 21.3869C38.4543 21.6246 38.6933 21.9216 38.8726 22.1592C38.9324 22.278 39.052 22.3968 39.1117 22.5751C39.3508 22.9315 39.5301 23.2879 39.7692 23.6444C39.829 23.8226 39.9485 24.0008 40.0083 24.179C40.2474 24.6543 40.4267 25.1295 40.4864 25.6642C40.5462 25.783 40.5462 25.9018 40.5462 25.9612C40.606 26.08 40.606 26.2582 40.606 26.4364C40.6658 26.9711 40.606 27.4464 40.5462 27.981C40.4864 28.2186 40.4267 28.3968 40.3669 28.6345C40.3071 28.8127 40.2474 29.0503 40.1278 29.2879C39.9485 29.7038 39.7094 30.1196 39.4703 30.5355C39.4106 30.6543 39.291 30.8325 39.1715 31.0107C39.052 31.1889 38.9324 31.3077 38.8726 31.486C38.7531 31.6642 38.5738 31.8424 38.4543 32.0206C38.3347 32.1988 38.2152 32.377 38.0359 32.5553C37.8566 32.7929 37.6175 33.0305 37.4382 33.2681C37.3186 33.3869 37.1991 33.5652 37.0198 33.684C36.9002 33.8028 36.7807 33.981 36.6014 34.0998C36.4221 34.278 36.2428 34.4562 36.0634 34.5751L35.7048 34.8721C35.6451 34.9315 35.5853 34.9315 35.5255 34.9315H32.8956V38.2582H36.183C36.9002 38.2582 37.6175 38.0206 38.1554 37.5454C38.3347 37.3671 39.1715 36.6543 40.1876 35.585C40.2474 35.5256 40.2474 35.5256 40.3071 35.5256L49.3922 32.9117C49.7508 32.7335 49.8703 32.8523 49.8703 33.0305Z" fill="white"/>
</g>
<defs>
<clipPath id="clip0_4853_119928">
<rect width="60" height="60" fill="white" transform="translate(0.5)"/>
</clipPath>
</defs>
</svg>
