<svg width="37" height="36" viewBox="0 0 37 36" fill="none" xmlns="http://www.w3.org/2000/svg">
<path fill-rule="evenodd" clip-rule="evenodd" d="M7.625 25.875L8.72075 18.4776C9.04139 16.312 10.1297 14.3338 11.7871 12.9037C13.4446 11.4736 15.5608 10.6868 17.75 10.6868C19.9392 10.6868 22.0554 11.4736 23.7129 12.9037C25.3703 14.3338 26.4586 16.312 26.7792 18.4776L27.875 25.875C28.1734 25.875 28.4595 25.9935 28.6705 26.2045C28.8815 26.4155 29 26.7016 29 27V27.5625C29 28.0101 28.8222 28.4393 28.5057 28.7557C28.1893 29.0722 27.7601 29.25 27.3125 29.25H8.1875C7.73995 29.25 7.31072 29.0722 6.99426 28.7557C6.67779 28.4393 6.5 28.0101 6.5 27.5625V27C6.5 26.7016 6.61853 26.4155 6.8295 26.2045C7.04048 25.9935 7.32663 25.875 7.625 25.875ZM17.75 20.9998C18.5521 20.9998 19.1562 21.537 19.1562 22.1248C19.1562 22.7132 18.5521 23.2498 17.75 23.2498C16.9479 23.2498 16.3438 22.7132 16.3438 22.1248C16.3438 21.7108 16.0288 21.375 15.6406 21.375C15.2525 21.375 14.9375 21.7108 14.9375 22.1248C14.9375 23.3736 15.8476 24.3804 17.0469 24.6673V25.1252C17.0469 25.5392 17.3619 25.875 17.75 25.875C18.1381 25.875 18.4531 25.5392 18.4531 25.1252V24.6673C19.6524 24.3804 20.5625 23.3736 20.5625 22.1248C20.5625 20.6421 19.2778 19.5002 17.75 19.5002C16.9479 19.5002 16.3438 18.963 16.3438 18.3752C16.3438 17.7868 16.9479 17.2502 17.75 17.2502C18.5521 17.2502 19.1562 17.7868 19.1562 18.3752C19.1562 18.7892 19.4712 19.125 19.8594 19.125C20.2475 19.125 20.5625 18.7892 20.5625 18.3752C20.5625 17.1264 19.6524 16.1196 18.4531 15.8327V15.3748C18.4531 14.9608 18.1381 14.625 17.75 14.625C17.3619 14.625 17.0469 14.9608 17.0469 15.3748V15.8327C15.8476 16.1196 14.9375 17.1264 14.9375 18.3752C14.9375 19.8579 16.2222 20.9998 17.75 20.9998ZM14.3604 4.5H21.1402C21.7533 4.5 22.25 5.00344 22.25 5.625C22.25 5.81625 22.2022 6.00413 22.1105 6.17119L21.0446 8.11575C20.8072 8.55242 20.4567 8.91716 20.0299 9.17171C19.603 9.42627 19.1155 9.56125 18.6185 9.5625H16.8815C16.3846 9.56115 15.8972 9.42612 15.4705 9.17157C15.0437 8.91702 14.6933 8.55233 14.456 8.11575L13.3901 6.17119C13.2467 5.91065 13.2115 5.60418 13.2921 5.31794C13.3727 5.03169 13.5627 4.78862 13.8209 4.64119C13.9863 4.54894 14.1714 4.5 14.3604 4.5Z" fill="white"/>
</svg>
