<svg width="61" height="60" viewBox="0 0 61 60" fill="none" xmlns="http://www.w3.org/2000/svg">
<path d="M59.9061 35.9124C59.8902 36.0078 59.8664 36.0951 59.8505 36.1904C59.6041 37.358 59.2861 38.5177 58.9046 39.6455C57.617 43.4263 55.5822 46.9608 52.8797 49.987C50.9006 52.203 48.5558 54.157 45.8931 55.7455C45.8534 55.7693 45.8057 55.8011 45.7659 55.817C45.3367 56.0712 44.8916 56.3174 44.4385 56.5557C44.1286 56.7145 43.8186 56.8734 43.5086 57.0243C34.8369 61.1942 25.1558 60.8289 17.1517 56.8654C16.6589 56.6192 16.1741 56.365 15.6892 56.095C12.8437 54.4906 10.2525 52.4096 8.03493 49.9076C8.02699 49.8996 8.01904 49.8917 8.01109 49.8838C7.86007 49.717 7.70905 49.5422 7.56598 49.3675C7.4865 49.2801 7.41496 49.1848 7.33548 49.0895C7.25599 48.9942 7.18446 48.9068 7.10497 48.8115C7.02549 48.7162 6.94601 48.6209 6.87447 48.5176C6.70755 48.3031 6.54064 48.0807 6.37372 47.8584C6.29424 47.7472 6.20681 47.636 6.12732 47.5248C6.03194 47.3897 5.93656 47.2626 5.84913 47.1276C5.82528 47.0958 5.80144 47.0561 5.77759 47.0244C5.70606 46.9211 5.63452 46.8179 5.57093 46.7146C5.53119 46.659 5.4994 46.6034 5.45966 46.5557C5.37223 46.4207 5.28479 46.2857 5.19736 46.1507C5.10198 45.9997 5.0066 45.8488 4.91917 45.6979C4.89532 45.6662 4.87943 45.6344 4.86353 45.6026C4.78404 45.4676 4.69661 45.3326 4.62508 45.1975C4.60918 45.1658 4.58534 45.134 4.56944 45.1022C4.48995 44.9672 4.41842 44.8401 4.33893 44.7051C4.31509 44.6654 4.29124 44.6257 4.2674 44.5859C4.21176 44.4827 4.14817 44.3715 4.09254 44.2603C4.05279 44.1809 4.0051 44.1094 3.96536 44.0299C3.7905 43.6964 3.61563 43.3548 3.45666 43.0133C3.32949 42.7512 3.21026 42.489 3.09104 42.2269C2.89233 41.7821 2.70952 41.3453 2.53465 40.9005C2.50286 40.8131 2.46312 40.7258 2.43132 40.6304C2.39158 40.5272 2.35979 40.4319 2.32004 40.3366C2.27235 40.2174 2.23261 40.0983 2.19287 39.9791C2.12928 39.7965 2.0657 39.6138 2.00211 39.4231C1.91468 39.169 1.83519 38.9069 1.75571 38.6448C1.75571 38.6368 1.74776 38.6209 1.74776 38.613C1.69212 38.4382 1.64443 38.2635 1.59674 38.0808C1.58879 38.0649 1.58879 38.0411 1.58084 38.0252C1.58084 38.0173 1.5729 38.0014 1.5729 37.9855C1.54905 37.8902 1.52521 37.8028 1.50136 37.7155C1.48546 37.644 1.46162 37.5804 1.44572 37.5089C1.43777 37.4851 1.43777 37.4692 1.42983 37.4454C1.40598 37.3501 1.38213 37.2548 1.35829 37.1595L1.33445 37.0641C1.31855 37.0085 1.30265 36.945 1.2947 36.8894C1.27881 36.81 1.25496 36.7306 1.23906 36.6511C1.22317 36.5796 1.20727 36.5161 1.19137 36.4446C1.18343 36.4208 1.18343 36.4049 1.17548 36.3811C1.14368 36.2381 1.11189 36.0951 1.08804 35.9442C1.0483 35.7695 1.01651 35.5868 0.984716 35.4121C0.960871 35.2691 0.937026 35.1341 0.913181 34.9911C0.889336 34.8481 0.86549 34.7131 0.849593 34.5701C0.841645 34.5304 0.841645 34.4986 0.833697 34.4589C0.8178 34.3636 0.801903 34.2762 0.793955 34.1809C0.778058 34.0856 0.77011 33.9982 0.754213 33.9029C0.746265 33.8076 0.730367 33.7202 0.722419 33.6249C0.682677 33.3231 0.650883 33.0213 0.627038 32.7274C0.61909 32.6162 0.611141 32.513 0.603193 32.4018C0.595245 32.2906 0.587297 32.1794 0.579349 32.0682C0.5714 31.9728 0.563451 31.8855 0.563451 31.7902C0.555503 31.6551 0.547555 31.528 0.539607 31.393C0.531658 31.1706 0.52371 30.9482 0.515761 30.7258C0.515761 30.6146 0.507812 30.5034 0.507812 30.3922C0.507812 30.1857 0.507812 29.9792 0.507812 29.7727C0.595245 18.7005 6.83473 8.10486 17.4935 2.97384C32.4206 -4.20642 50.3521 2.06042 57.5375 16.9849C60.4704 23.1246 61.154 29.7409 59.9061 35.9124Z" fill="#ADCA5C"/>
<path d="M59.905 35.9124C59.8891 36.0078 59.8653 36.0951 59.8494 36.1904C59.603 37.358 59.285 38.5177 58.9035 39.6455C57.6159 43.4263 55.5811 46.9608 52.8786 49.987C51.1061 51.9727 49.0475 53.7439 46.7266 55.2292C46.4484 55.404 46.1702 55.5787 45.892 55.7455C45.8522 55.7693 45.8046 55.8011 45.7648 55.817C45.5661 55.9361 45.3674 56.0473 45.1687 56.1585C44.9302 56.2936 44.6838 56.4286 44.4374 56.5557C44.1274 56.7145 43.8175 56.8734 43.5075 57.0243C35.2253 61.0116 26.021 60.8527 18.2316 57.3738C17.866 57.2149 17.5083 57.0402 17.1506 56.8654C17.1268 56.8496 17.1029 56.8416 17.0791 56.8257C16.6101 56.5954 16.1491 56.3492 15.6961 56.095C12.8505 54.4906 10.2594 52.4096 8.04177 49.9076C8.03382 49.8996 8.02587 49.8917 8.01792 49.8838C7.86691 49.717 7.71589 49.5422 7.57282 49.3675C7.49333 49.2801 7.4218 49.1848 7.34231 49.0895C7.26283 48.9942 7.19129 48.9068 7.11181 48.8115C7.03233 48.7162 6.95284 48.6209 6.88131 48.5176C6.71439 48.3031 6.54747 48.0807 6.38056 47.8584C6.30107 47.7472 6.21364 47.636 6.13416 47.5248C6.03878 47.3897 5.9434 47.2626 5.85596 47.1276C5.83212 47.0958 5.80827 47.0561 5.78443 47.0244C5.71289 46.9211 5.64136 46.8179 5.57777 46.7146C5.53803 46.659 5.50624 46.6034 5.46649 46.5557C5.37906 46.4207 5.29163 46.2857 5.2042 46.1507C5.10882 45.9997 5.01344 45.8488 4.926 45.6979C4.90216 45.6662 4.88626 45.6344 4.87036 45.6026C4.79088 45.4676 4.70345 45.3326 4.63191 45.1975C4.61602 45.1658 4.59217 45.134 4.57627 45.1022C4.49679 44.9672 4.42525 44.8401 4.34577 44.7051C4.32193 44.6654 4.29808 44.6257 4.27424 44.5859C4.2186 44.4827 4.15501 44.3715 4.09937 44.2603C4.05963 44.1809 4.01194 44.1094 3.9722 44.0299C3.79733 43.6964 3.62247 43.3548 3.4635 43.0133C3.33632 42.7512 3.2171 42.489 3.09787 42.2269C2.89916 41.7821 2.71635 41.3453 2.54149 40.9005C2.50969 40.8131 2.46995 40.7258 2.43816 40.6304C2.39842 40.5272 2.36662 40.4319 2.32688 40.3366C2.27919 40.2174 2.23945 40.0983 2.19971 39.9791C2.13612 39.7965 2.07253 39.6138 2.00895 39.4231C1.92151 39.169 1.84203 38.9069 1.76254 38.6448C1.76254 38.6368 1.7546 38.6209 1.7546 38.613C1.69896 38.4382 1.65127 38.2635 1.60358 38.0808C1.59563 38.0649 1.59563 38.0411 1.58768 38.0252C1.58768 38.0173 1.57973 38.0014 1.57973 37.9855C1.55589 37.8902 1.53204 37.8028 1.5082 37.7155C1.4923 37.644 1.46846 37.5804 1.45256 37.5089C1.44461 37.4851 1.44461 37.4692 1.43666 37.4454C1.41282 37.3501 1.38897 37.2548 1.36513 37.1595L1.34128 37.0641C1.32538 37.0085 1.30949 36.945 1.30154 36.8894C1.28564 36.81 1.2618 36.7306 1.2459 36.6511C1.23 36.5796 1.21411 36.5161 1.19821 36.4446C1.19026 36.4208 1.19026 36.4049 1.18231 36.3811C1.15052 36.2381 1.11873 36.0951 1.09488 35.9442C1.05514 35.7695 1.02335 35.5868 0.991552 35.4121C0.967706 35.2691 0.943861 35.1341 0.920015 34.9911C0.89617 34.8481 0.872326 34.7131 0.856429 34.5701C0.848481 34.5304 0.84848 34.4986 0.840532 34.4589C0.824635 34.3636 0.808738 34.2762 0.80079 34.1809C0.784893 34.0856 0.776944 33.9982 0.761048 33.9029C0.753099 33.8076 0.737203 33.7202 0.729255 33.6249C0.689513 33.3231 0.657719 33.0213 0.633874 32.7274C0.625926 32.6162 0.617977 32.513 0.610029 32.4018C0.60208 32.2906 0.594132 32.1794 0.586183 32.0682C0.578235 31.9728 0.570287 31.8855 0.570287 31.7902C0.562339 31.6551 0.55439 31.528 0.546441 31.393C0.538493 31.1706 0.530544 30.9482 0.522596 30.7258C0.522596 30.6146 0.514648 30.5034 0.514648 30.3922C0.514648 30.1857 0.514648 29.9792 0.514648 29.7727C0.602081 18.7005 6.84156 8.10486 17.5004 2.97384C32.4274 -4.20642 50.359 2.06042 57.5443 16.9849C60.4693 23.1246 61.1529 29.7409 59.905 35.9124Z" fill="#D6E892"/>
<path d="M59.8495 36.144C59.8495 36.1519 59.8495 36.1519 59.8495 36.144C59.6031 37.3195 59.2852 38.4791 58.9037 39.607C58.8957 39.6388 58.8798 39.6785 58.8639 39.7103C57.5763 43.4593 55.5495 46.962 52.8708 49.9644C50.8917 52.1884 48.5469 54.1423 45.8842 55.7308C45.8365 55.7546 45.8047 55.7864 45.757 55.8023C45.2483 56.0644 44.835 56.3424 44.4138 56.5489C44.0481 56.7316 43.6825 56.9222 43.4123 57.0573C34.836 61.1875 25.2343 60.8062 17.2939 56.9381C17.2462 56.9143 16.1731 56.3583 15.6883 56.0803C12.4374 54.2455 9.52035 51.7833 7.10404 48.7809C7.02456 48.6856 6.94507 48.5903 6.87354 48.487C6.70662 48.2726 6.5397 48.0502 6.37279 47.8278C6.2933 47.7166 6.20587 47.6054 6.12639 47.4942C6.03101 47.3592 5.93563 47.2321 5.84819 47.097C5.82435 47.0653 5.8005 47.0256 5.77666 46.9938C5.70512 46.8905 5.63359 46.7873 5.57 46.684C5.53026 46.6284 5.49846 46.5728 5.45872 46.5252C5.37129 46.3901 5.28386 46.2551 5.19643 46.1201C5.10105 45.9692 5.00566 45.8183 4.91823 45.6673C4.89439 45.6356 4.87849 45.6038 4.86259 45.572C4.78311 45.437 4.69568 45.302 4.62414 45.167C4.60825 45.1352 4.5844 45.1034 4.5685 45.0716C4.48902 44.9366 4.41748 44.8016 4.338 44.6745C4.31415 44.6348 4.29031 44.5951 4.26646 44.5554C4.21083 44.4521 4.14724 44.3409 4.0916 44.2297C4.05186 44.1503 4.00417 44.0788 3.96443 43.9994C3.78956 43.6658 3.6147 43.3242 3.45573 42.9827C3.32856 42.7206 3.20933 42.4585 3.0901 42.1964C2.89139 41.7516 2.70858 41.3068 2.53372 40.862C2.50192 40.7746 2.46218 40.6872 2.43039 40.5919C2.39065 40.4887 2.35885 40.3934 2.31911 40.2901C2.27142 40.171 2.23168 40.0518 2.19194 39.9327C2.12835 39.75 2.06476 39.5594 2.00117 39.3767C1.91374 39.1225 1.83426 38.8604 1.75477 38.5983C1.75477 38.5904 1.74683 38.5745 1.74683 38.5665C1.69119 38.3918 1.6435 38.2091 1.59581 38.0344C1.58786 38.0185 1.58786 37.9946 1.57991 37.9788C1.57991 37.9708 1.57196 37.9549 1.57196 37.939C1.54812 37.8437 1.52427 37.7564 1.50043 37.669C1.48453 37.5975 1.46068 37.526 1.44479 37.4625C1.43684 37.4386 1.43684 37.4228 1.42889 37.3989C1.40505 37.3036 1.3812 37.2083 1.35735 37.113L1.33351 37.0177C1.31761 36.9621 1.30172 36.8985 1.29377 36.8429C1.27787 36.7635 1.25403 36.6841 1.23813 36.6047C1.22223 36.5332 1.20634 36.4696 1.19044 36.3981C1.18249 36.3743 1.18249 36.3584 1.17454 36.3346C1.14275 36.1916 1.11096 36.0487 1.08711 35.8978C1.04737 35.723 1.01557 35.5403 0.983781 35.3576C0.959936 35.2147 0.936091 35.0797 0.912246 34.9367C0.848659 34.5713 0.79302 34.2139 0.745329 33.8485C0.737381 33.7532 0.721485 33.6658 0.713536 33.5705C0.673794 33.2687 0.642001 32.9669 0.618156 32.6651C0.610208 32.5539 0.602259 32.4506 0.59431 32.3394C0.586362 32.2282 0.578413 32.117 0.570465 32.0058C0.562517 31.9105 0.554569 31.8231 0.554569 31.7278C0.54662 31.5928 0.538672 31.4657 0.530723 31.3307C0.371755 27.8517 0.832762 24.4046 1.84221 21.1242C1.99323 20.6318 2.16014 20.1393 2.33501 19.6548C4.15519 14.6906 7.2789 10.195 11.5074 6.74783C13.2958 5.28637 15.2829 4.01553 17.4449 2.97503C21.0376 1.2435 24.8051 0.266546 28.5567 0.0600338C31.6566 -0.106764 33.8265 0.0759198 36.3859 0.584256C41.767 1.64859 46.7983 4.16644 50.8599 7.95513C47.4262 5.96945 25.8384 -0.360933 40.8449 12.8558L40.8529 12.8638C40.9403 12.9432 41.0278 13.0226 41.1231 13.102C41.0516 13.0544 40.9721 13.0147 40.9006 12.9908C40.7973 12.9591 40.6939 12.9511 40.5906 12.975C32.1335 9.71843 21.6257 17.0416 20.7037 26.5332C20.5289 28.3601 20.5448 32.5856 23.3426 34.8017C26.3312 37.1765 30.4326 36.4061 33.1827 33.1416C33.2781 33.0304 33.445 33.0304 33.5324 33.1416C33.9696 33.6738 34.4465 34.1345 34.9552 34.5316C36.1633 35.4768 37.5384 36.009 38.9612 36.0804H38.9691C41.2026 35.9534 42.9195 33.8803 43.4441 33.1654C43.5315 33.0463 43.7064 33.0384 43.8017 33.1575C47.1162 37.0653 52.1396 37.0653 55.4461 33.1416C55.5336 33.0304 55.7084 33.0304 55.7959 33.1416C56.7815 34.333 57.9578 35.1908 59.2296 35.6674C59.6111 36.009 59.8336 36.1758 59.8495 36.144C59.8495 36.1519 59.8495 36.1519 59.8495 36.144Z" fill="#ADCA5C"/>
<path d="M59.9134 35.9101C59.8975 36.0054 59.8737 36.0928 59.8578 36.1881C59.6114 37.3557 59.2934 38.5153 58.9119 39.6432C58.904 39.667 58.8881 39.6909 58.8722 39.7067C57.5607 42.0657 54.5323 45.3064 47.6093 48.4279C44.9704 49.6193 42.5064 50.4533 40.2014 51.0093C39.8835 51.0808 39.5735 51.1523 39.2635 51.2158C39.2237 51.2476 39.1761 51.2635 39.1204 51.2635C39.0966 51.2635 39.0727 51.2635 39.0409 51.2635C38.9615 51.2793 38.882 51.2952 38.8025 51.3111C36.8949 51.6844 35.0985 51.8592 33.4294 51.875C30.8382 51.9068 28.5411 51.5573 26.5143 51.0093C26.3156 50.9537 26.1169 50.8981 25.9181 50.8345C25.9102 50.8345 25.8943 50.8266 25.8784 50.8266C25.7751 50.7948 25.6797 50.7631 25.5764 50.7313C25.5764 50.7313 25.5764 50.7313 25.5684 50.7313C25.4651 50.6995 25.3618 50.6677 25.2664 50.636C25.2266 50.628 25.1948 50.6121 25.1551 50.5963C25.1392 50.5883 25.1233 50.5883 25.0995 50.5804C25.0756 50.5724 25.0597 50.5645 25.0438 50.5645C24.9961 50.5486 24.9484 50.5327 24.9008 50.5168C24.8451 50.5009 24.7895 50.4771 24.7338 50.4533C24.6862 50.4374 24.6464 50.4215 24.6067 50.4056C24.5431 50.3818 24.4795 50.358 24.4239 50.3342C24.3841 50.3183 24.3523 50.3103 24.3126 50.2944C24.2808 50.2865 24.2569 50.2706 24.2251 50.2627C24.2013 50.2547 24.1775 50.2468 24.1616 50.2388C24.1218 50.223 24.09 50.2071 24.0503 50.1912C23.9311 50.1435 23.8118 50.0959 23.7006 50.0482C23.6847 50.0403 23.6688 50.0323 23.6529 50.0323C23.6131 50.0164 23.5813 50.0006 23.5416 49.9847C23.47 49.9529 23.3985 49.9291 23.3349 49.8973C23.2952 49.8814 23.2634 49.8655 23.2236 49.8496C23.1839 49.8338 23.1442 49.8179 23.1044 49.794C23.0488 49.7702 22.9931 49.7464 22.9455 49.7226C22.8898 49.6987 22.8421 49.6749 22.7865 49.6511C22.7626 49.6431 22.7388 49.6272 22.707 49.6114C22.6434 49.5796 22.5798 49.5558 22.5162 49.524C22.4924 49.5081 22.4606 49.5002 22.4368 49.4843C22.3811 49.4604 22.3255 49.4287 22.2698 49.4049C22.1665 49.3572 22.0711 49.3016 21.9757 49.2539C21.9599 49.246 21.944 49.2381 21.9281 49.2301C21.8883 49.2142 21.8565 49.1904 21.8168 49.1745C21.7929 49.1666 21.7691 49.1507 21.7532 49.1427C21.6737 49.103 21.6022 49.0633 21.5227 49.0236C21.4114 48.9601 21.3001 48.9045 21.1889 48.8409C21.173 48.833 21.1491 48.8171 21.1332 48.8091C21.0776 48.7774 21.0219 48.7456 20.9743 48.7218C20.9425 48.6979 20.9027 48.6821 20.8709 48.6582C20.8471 48.6423 20.8232 48.6344 20.7994 48.6185C20.7755 48.6026 20.7517 48.5947 20.7358 48.5788C20.712 48.5629 20.6881 48.555 20.6722 48.5391C20.6166 48.5073 20.5609 48.4755 20.5053 48.4358C20.4258 48.3882 20.3543 48.3405 20.2748 48.3008C20.251 48.2849 20.2271 48.269 20.2033 48.2532C20.1874 48.2452 20.1794 48.2373 20.1635 48.2293C20.1635 48.2293 20.1635 48.2293 20.1556 48.2293C20.1158 48.2055 20.084 48.1817 20.0443 48.1578L20.0046 48.134C19.933 48.0864 19.8615 48.0466 19.7899 47.999C19.782 47.999 19.782 47.991 19.774 47.991C19.7661 47.9831 19.7502 47.9752 19.7423 47.9672C18.4467 47.1253 17.4293 46.2992 16.6901 45.6638C16.6821 45.6559 16.6742 45.6559 16.6662 45.6479C16.6583 45.64 16.6583 45.64 16.6503 45.632C16.5708 45.5606 16.4914 45.497 16.4198 45.4335C15.0368 44.2182 13.7969 42.7965 12.7636 41.1841C12.3105 40.4851 11.9051 39.7544 11.5316 38.9919C10.2519 36.3311 9.60011 33.5352 9.52063 30.7632C9.37756 25.6481 11.1739 20.6362 14.552 16.776C16.3086 14.7744 18.4864 13.0826 21.0378 11.8515C21.1809 11.788 21.316 11.7165 21.4591 11.6529C22.548 11.1922 23.5972 10.8189 24.6067 10.5251C24.6067 10.5251 24.6146 10.5251 24.6226 10.5251C33.8506 7.85629 39.5496 11.923 40.8373 12.9873L40.8452 12.9953C40.8611 13.0032 40.877 13.0191 40.885 13.027C41.0201 13.1382 41.0916 13.2097 41.1075 13.2256C40.9327 13.1462 40.7498 13.0747 40.575 13.0032C32.1179 9.74667 21.6101 17.0699 20.6881 26.5615C20.5132 28.3883 20.5291 32.6139 23.327 34.8299C26.3156 37.2048 30.4169 36.4343 33.1671 33.1699C33.2625 33.0587 33.4294 33.0587 33.5168 33.1699C33.954 33.702 34.4309 34.1627 34.9396 34.5598C36.1477 35.505 37.5228 36.0372 38.9456 36.1087H38.9535C41.187 35.9816 42.9039 33.9085 43.4284 33.1937C43.5159 33.0745 43.6907 33.0666 43.7861 33.1857C47.1006 37.0936 52.124 37.0936 55.4305 33.1699C55.5179 33.0587 55.6928 33.0587 55.7802 33.1699C56.7658 34.3613 57.9422 35.2191 59.2139 35.6957C59.4524 35.783 59.6829 35.8545 59.9134 35.9101Z" fill="#A1B755"/>
<path d="M42.5767 51.6641L42.2667 51.3861L41.8534 51.0207L41.0109 50.2741L36.0272 45.85C35.8603 45.707 35.8762 45.4608 36.0113 45.3257C36.0511 45.286 36.1067 45.2543 36.1703 45.2384L37.5136 44.881L41.0109 43.9596L41.0585 43.9437L43.6895 43.2527C43.9518 43.1812 44.0471 42.8635 43.8643 42.6649L41.909 40.5363L41.0109 39.5593L38.8091 37.1606L35.0734 33.1018L29.1598 26.6762C28.977 26.4776 28.6511 26.5411 28.5557 26.7874L25.3843 35.0796L25.0028 36.0724L24.8995 36.3504L24.8836 36.3901L21.2114 45.9929L20.6471 47.4703L20.5438 47.7324C20.504 47.8357 20.4245 47.9071 20.3212 47.9469L11.8323 50.8618C11.3952 51.0128 11.5939 51.6641 12.039 51.5529L14.8845 50.846L19.1925 49.6704C19.4787 49.591 19.7251 49.869 19.6217 50.147L17.3485 56.0961L17.0703 56.8427C17.5472 57.1128 18.2228 57.3908 18.2228 57.3908L24.4226 49.6625L25.7579 47.9469H25.7658L31.3536 50.3217L35.0655 51.9024L45.144 56.1835C45.3427 56.0723 45.5414 55.9611 45.7401 55.842C45.7799 55.8181 45.8276 55.7943 45.8673 55.7705C46.1455 55.6037 46.4317 55.4289 46.7019 55.2542L42.5767 51.6641ZM33.5473 43.4036C33.4996 43.4195 33.4599 43.4274 33.4122 43.4195C33.3963 43.4195 33.3804 43.4195 33.3645 43.4195C33.3009 43.4115 33.2373 43.3798 33.1896 43.3321L31.1787 41.545C31.0356 41.4179 31.0197 41.2035 31.131 41.0525L33.2691 38.3123C33.3884 38.1534 33.6189 38.1296 33.7778 38.2488L36.8777 40.6713L37.7679 41.3623C37.9905 41.5371 37.9348 41.8945 37.6646 41.9818L36.2736 42.4584L33.5473 43.4036Z" fill="#444444"/>
<path d="M29.0968 22.8857L29.3194 24.2519C29.3273 24.3234 29.3591 24.379 29.4068 24.4346L35.1535 30.8523C35.4158 31.1383 35.8847 30.8682 35.7655 30.5028L32.7849 21.2972C32.7451 21.1701 32.6418 21.0827 32.5067 21.0509L25.8062 19.7801C25.4644 19.7166 25.2418 20.1216 25.4723 20.3758L27.8092 22.9175C27.992 23.1161 28.3099 23.0525 28.4053 22.8063C28.5404 22.4727 29.0332 22.5283 29.0968 22.8857Z" fill="#444444"/>
<path d="M46.7274 25.8876C49.3085 25.8876 51.401 23.7966 51.401 21.2172C51.401 18.6379 49.3085 16.5469 46.7274 16.5469C44.1462 16.5469 42.0537 18.6379 42.0537 21.2172C42.0537 23.7966 44.1462 25.8876 46.7274 25.8876Z" fill="#FF7676"/>
</svg>
