<svg width="36" height="36" viewBox="0 0 36 36" fill="none" xmlns="http://www.w3.org/2000/svg">
<path fill-rule="evenodd" clip-rule="evenodd" d="M18 31.5C10.5443 31.5 4.5 25.4557 4.5 18C4.5 10.5443 10.5443 4.5 18 4.5C25.4557 4.5 31.5 10.5443 31.5 18C31.5 25.4557 25.4557 31.5 18 31.5ZM18 19.2273C19.4003 19.2273 20.4545 20.106 20.4545 21.0682C20.4545 22.0304 19.4003 22.9091 18 22.9091C16.5997 22.9091 15.5455 22.0304 15.5455 21.0682C15.5455 20.7427 15.4162 20.4305 15.186 20.2004C14.9558 19.9702 14.6437 19.8409 14.3182 19.8409C13.9927 19.8409 13.6805 19.9702 13.4504 20.2004C13.2202 20.4305 13.0909 20.7427 13.0909 21.0682C13.0909 23.111 14.6796 24.758 16.7727 25.2286V25.9773C16.7727 26.3028 16.902 26.6149 17.1322 26.8451C17.3623 27.0752 17.6745 27.2045 18 27.2045C18.3255 27.2045 18.6377 27.0752 18.8678 26.8451C19.098 26.6149 19.2273 26.3028 19.2273 25.9773V25.2286C21.3204 24.758 22.9091 23.111 22.9091 21.0682C22.9091 18.6413 20.6669 16.7727 18 16.7727C16.5997 16.7727 15.5455 15.894 15.5455 14.9318C15.5455 13.9696 16.5997 13.0909 18 13.0909C19.4003 13.0909 20.4545 13.9696 20.4545 14.9318C20.4545 15.2573 20.5838 15.5695 20.814 15.7996C21.0442 16.0298 21.3563 16.1591 21.6818 16.1591C22.0073 16.1591 22.3195 16.0298 22.5496 15.7996C22.7798 15.5695 22.9091 15.2573 22.9091 14.9318C22.9091 12.889 21.3204 11.242 19.2273 10.7714V10.0227C19.2273 9.69723 19.098 9.38507 18.8678 9.15491C18.6377 8.92476 18.3255 8.79545 18 8.79545C17.6745 8.79545 17.3623 8.92476 17.1322 9.15491C16.902 9.38507 16.7727 9.69723 16.7727 10.0227V10.7714C14.6796 11.242 13.0909 12.889 13.0909 14.9318C13.0909 17.3588 15.3331 19.2273 18 19.2273ZM24.4677 12.0747C25.9423 13.6438 26.7848 15.7621 26.7848 18.0252C26.7848 18.6891 27.2911 19.2273 27.9151 19.2273C28.5392 19.2273 29.0455 18.6891 29.0455 18.0252C29.0455 15.1178 27.9605 12.3901 26.0656 10.375C25.9642 10.2641 25.8407 10.1755 25.7032 10.115C25.5656 10.0544 25.417 10.0231 25.2667 10.0231C25.1164 10.0231 24.9677 10.0544 24.8302 10.115C24.6926 10.1755 24.5692 10.2641 24.4677 10.375C24.2549 10.6068 24.1368 10.9101 24.1368 11.2248C24.1368 11.5396 24.2549 11.8429 24.4677 12.0747ZM11.5323 23.9253C10.0577 22.3562 9.21518 20.2379 9.21518 17.9748C9.21518 17.3109 8.70893 16.7727 8.08486 16.7727C7.4608 16.7727 6.95455 17.3109 6.95455 17.9748C6.95455 20.8822 8.03945 23.6099 9.93436 25.625C10.3756 26.0945 11.0911 26.0945 11.5323 25.625C11.9741 25.1556 11.9741 24.3947 11.5323 23.9253Z" fill="white"/>
</svg>
