<svg width="75" height="60" viewBox="0 0 75 60" fill="none" xmlns="http://www.w3.org/2000/svg">
<path d="M18.5783 4.58217L9.07181 13.9814C6.97606 16.0773 6.97606 19.4822 9.07181 21.578L11.7184 24.2247L36.0104 3.01562H22.3767C20.9533 3.01562 19.5869 3.58073 18.5783 4.58217Z" fill="url(#paint0_linear_4853_119991)"/>
<path d="M32.8841 3.01562L11.7178 24.2247L18.1557 30.6626L50.1301 3.01562H32.8841Z" fill="url(#paint1_linear_4853_119991)"/>
<path d="M45.8102 3.01431L18.1562 30.6612L24.5942 37.0991L59.2871 7.63524L56.4826 4.83836C55.3596 3.66524 53.8006 3 52.1768 3H45.8102V3.01431Z" fill="url(#paint2_linear_4853_119991)"/>
<path d="M56.6764 5.02344L24.5947 37.0982L31.0398 43.5432L64.6668 13.0207L56.6764 5.02344Z" fill="url(#paint3_linear_4853_119991)"/>
<path d="M33.5425 46.0452L31.0391 43.5416L63.1779 11.5312L65.8316 14.1851C67.9278 16.2809 68.1135 19.4784 66.0177 21.5743L41.4252 46.0524C39.2435 48.2269 35.7172 48.2198 33.5425 46.0452Z" fill="url(#paint4_linear_4853_119991)"/>
<defs>
<linearGradient id="paint0_linear_4853_119991" x1="7.31008" y1="23.7296" x2="21.8878" y2="9.1521" gradientUnits="userSpaceOnUse">
<stop stop-color="#C774FF"/>
<stop offset="1" stop-color="#D677DB"/>
</linearGradient>
<linearGradient id="paint1_linear_4853_119991" x1="20.9592" y1="23.6526" x2="32.2435" y2="12.2918" gradientUnits="userSpaceOnUse">
<stop stop-color="#EF7A9D"/>
<stop offset="1" stop-color="#D677DB"/>
</linearGradient>
<linearGradient id="paint2_linear_4853_119991" x1="33.7667" y1="23.1652" x2="44.0494" y2="13.3941" gradientUnits="userSpaceOnUse">
<stop stop-color="#EF7A9D"/>
<stop offset="1" stop-color="#FF936D"/>
</linearGradient>
<linearGradient id="paint3_linear_4853_119991" x1="31.3332" y1="37.2407" x2="55.5302" y2="13.9671" gradientUnits="userSpaceOnUse">
<stop stop-color="#FFC846"/>
<stop offset="1" stop-color="#FF936D"/>
</linearGradient>
<linearGradient id="paint4_linear_4853_119991" x1="39.1868" y1="41.7937" x2="62.7083" y2="18.475" gradientUnits="userSpaceOnUse">
<stop stop-color="#FFC846"/>
<stop offset="1" stop-color="#FFC846"/>
</linearGradient>
</defs>
</svg>
