<svg width="56" height="57" viewBox="0 0 56 57" fill="none" xmlns="http://www.w3.org/2000/svg">
<g clip-path="url(#clip0_4288_419109)">
<path d="M47.7999 8.92333C36.865 -2.01029 19.1358 -2.01151 8.1997 8.92333C-2.73514 19.8582 -2.73393 37.5874 8.1997 48.5235C19.1345 59.4559 36.8638 59.4571 47.7999 48.5235C58.7335 37.5874 58.7323 19.8594 47.7999 8.92333ZM31.6508 40.8976C31.6508 42.9149 30.0158 44.5498 27.9986 44.5498C25.9813 44.5498 24.3463 42.9149 24.3463 40.8976V26.2886C24.3463 24.2713 25.9813 22.6363 27.9986 22.6363C30.0158 22.6363 31.6508 24.2713 31.6508 26.2886V40.8976ZM27.934 20.0457C25.8303 20.0457 24.4279 18.5555 24.4717 16.716C24.4279 14.7876 25.8303 13.3426 27.9767 13.3426C30.1242 13.3426 31.4828 14.7889 31.5279 16.716C31.5266 18.5555 30.1254 20.0457 27.934 20.0457Z" fill="#ADCA5C"/>
<path d="M31.6512 40.8988C31.6512 42.916 30.0162 44.551 27.9989 44.551C25.9817 44.551 24.3467 42.916 24.3467 40.8988V26.2898C24.3467 24.2725 25.9817 22.6375 27.9989 22.6375C30.0162 22.6375 31.6512 24.2725 31.6512 26.2898V40.8988ZM27.9344 20.0469C25.8307 20.0469 24.4282 18.5567 24.4721 16.7172C24.4282 14.7888 25.8307 13.3438 27.977 13.3438C30.1245 13.3438 31.4832 14.79 31.5282 16.7172C31.527 18.5567 30.1258 20.0469 27.9344 20.0469Z" fill="#222222"/>
</g>
<defs>
<clipPath id="clip0_4288_419109">
<rect width="56" height="56" fill="white" transform="translate(0 0.722656)"/>
</clipPath>
</defs>
</svg>
