<svg width="37" height="36" viewBox="0 0 37 36" fill="none" xmlns="http://www.w3.org/2000/svg">
<path d="M7.25 8.625C7.25 7.58947 8.08947 6.75 9.125 6.75H14.75C15.7855 6.75 16.625 7.58947 16.625 8.625V14.25C16.625 15.2855 15.7855 16.125 14.75 16.125H9.125C8.08947 16.125 7.25 15.2855 7.25 14.25V8.625Z" fill="white"/>
<path d="M20.375 8.625C20.375 7.58947 21.2145 6.75 22.25 6.75H27.875C28.9105 6.75 29.75 7.58947 29.75 8.625V14.25C29.75 15.2855 28.9105 16.125 27.875 16.125H22.25C21.2145 16.125 20.375 15.2855 20.375 14.25V8.625Z" fill="white"/>
<path d="M7.25 21.75C7.25 20.7145 8.08947 19.875 9.125 19.875H14.75C15.7855 19.875 16.625 20.7145 16.625 21.75V27.375C16.625 28.4105 15.7855 29.25 14.75 29.25H9.125C8.08947 29.25 7.25 28.4105 7.25 27.375V21.75Z" fill="white"/>
<path d="M20.375 21.75C20.375 20.7145 21.2145 19.875 22.25 19.875H27.875C28.9105 19.875 29.75 20.7145 29.75 21.75V27.375C29.75 28.4105 28.9105 29.25 27.875 29.25H22.25C21.2145 29.25 20.375 28.4105 20.375 27.375V21.75Z" fill="white"/>
</svg>
