<svg width="36" height="36" viewBox="0 0 36 36" fill="none" xmlns="http://www.w3.org/2000/svg">
<path d="M12.375 19.6055H7.55357C7.10977 19.6055 6.75 19.9652 6.75 20.409V28.4448C6.75 28.8886 7.10977 29.2483 7.55357 29.2483H12.375C12.8188 29.2483 13.1786 28.8886 13.1786 28.4448V20.409C13.1786 19.9652 12.8188 19.6055 12.375 19.6055Z" fill="white"/>
<path d="M28.4463 13.1797H23.6249C23.1811 13.1797 22.8213 13.5395 22.8213 13.9833V28.4475C22.8213 28.8913 23.1811 29.2511 23.6249 29.2511H28.4463C28.8901 29.2511 29.2499 28.8913 29.2499 28.4475V13.9833C29.2499 13.5395 28.8901 13.1797 28.4463 13.1797Z" fill="white"/>
<path d="M20.4111 6.75H15.5897C15.1459 6.75 14.7861 7.10977 14.7861 7.55357V28.4464C14.7861 28.8902 15.1459 29.25 15.5897 29.25H20.4111C20.8549 29.25 21.2147 28.8902 21.2147 28.4464V7.55357C21.2147 7.10977 20.8549 6.75 20.4111 6.75Z" fill="white"/>
</svg>
