<svg width="163" height="32" viewBox="0 0 163 32" fill="none" xmlns="http://www.w3.org/2000/svg">
<g clip-path="url(#clip0_4288_418907)">
<path d="M40.8995 22.8647C39.2264 22.8872 37.6159 22.2064 36.4348 20.9775C35.2539 19.7485 34.603 18.0763 34.6307 16.3417C34.6063 14.5977 35.2591 12.9167 36.4424 11.6767C37.6255 10.4367 39.2399 9.7418 40.9222 9.7482C42.7721 9.66409 44.5567 10.4658 45.7626 11.9226L44.0396 13.85C43.2729 12.8644 42.1208 12.2865 40.8995 12.2752C39.9175 12.3141 38.9925 12.7633 38.335 13.5204C37.6773 14.2775 37.343 15.2781 37.408 16.2947C37.3428 17.3408 37.6937 18.3689 38.3792 19.1395C39.0646 19.9101 40.0246 20.3559 41.0355 20.373C42.251 20.3364 43.3935 19.7634 44.1756 18.7981L45.8534 20.514C44.6457 22.0553 42.8139 22.9244 40.8995 22.8647Z" fill="#2B2D42"/>
<path d="M51.125 22.8634H48.3477V9.77048H51.125V12.8498C51.7252 10.9376 53.4839 9.67711 55.4214 9.77048V12.8263H55.2626C52.8254 12.8263 51.125 14.46 51.125 17.7978V22.8634Z" fill="#2B2D42"/>
<path d="M69.9635 9.75L63.8194 26.3923H61.0082L62.3458 22.8781L57.0859 9.75H60.0446L63.6381 19.4462L67.0842 9.75H69.9635Z" fill="#2B2D42"/>
<path d="M78.8403 22.8429C77.1939 22.8819 75.6373 22.0661 74.6914 20.6685V26.4276H71.9141V9.75H74.6914V12.1005C75.5791 10.6383 77.1285 9.7508 78.7949 9.75C81.663 9.75 84.463 12.1005 84.463 16.2964C84.463 20.4923 81.6856 22.8429 78.8403 22.8429ZM78.2056 12.2651C77.2114 12.2914 76.2708 12.7383 75.6027 13.502C74.9347 14.2658 74.5971 15.2797 74.6687 16.3082C74.5972 17.3377 74.9343 18.3529 75.6021 19.1185C76.2699 19.8841 77.2103 20.3335 78.2056 20.363C79.1858 20.3227 80.1067 19.8646 80.7505 19.097C81.3942 18.3294 81.704 17.3203 81.6063 16.3082C81.6974 15.2897 81.3793 14.2773 80.727 13.5099C80.0748 12.7423 79.1462 12.2878 78.1602 12.2533L78.2056 12.2651Z" fill="#2B2D42"/>
<path d="M90.5397 12.439V18.6094C90.4743 19.037 90.6085 19.4713 90.9015 19.7796C91.1946 20.0881 91.6114 20.2339 92.0247 20.1725H93.1582V22.7465H91.2198C89.1906 22.7465 87.819 21.8062 87.819 19.0561V12.439H86.2207V10.0179H87.7624V6.5625H90.5397V10.0179H93.1128V12.439H90.5397Z" fill="#2B2D42"/>
<path d="M101.909 22.8635C100.214 22.9079 98.574 22.2399 97.3614 21.0115C96.1488 19.783 95.4668 18.0983 95.4703 16.3405C95.3965 13.6071 96.9296 11.1006 99.3457 10.0045C101.762 8.90824 104.578 9.44154 106.464 11.3525C108.351 13.2636 108.93 16.1701 107.929 18.6999C106.928 21.2298 104.546 22.8767 101.909 22.8635ZM101.909 12.2858C100.899 12.2804 99.931 12.7099 99.2371 13.4716C98.5431 14.2334 98.1849 15.2595 98.2476 16.3053C98.1984 17.3611 98.5655 18.3923 99.2647 19.1615C99.964 19.9309 100.935 20.3721 101.955 20.3836C102.969 20.3924 103.942 19.9628 104.638 19.198C105.335 18.4332 105.694 17.4021 105.627 16.3523C105.677 15.2945 105.308 14.2614 104.606 13.4918C103.905 12.7221 102.931 12.2823 101.909 12.274V12.2858Z" fill="#2B2D42"/>
<path d="M134.965 22.8635C133.272 22.908 131.632 22.2396 130.421 21.0108C129.211 19.7819 128.532 18.0972 128.537 16.3405C128.468 13.6128 130.002 11.1141 132.414 10.0235C134.827 8.93279 137.637 9.46807 139.517 11.3768C141.398 13.2854 141.974 16.1861 140.974 18.7101C139.974 21.234 137.597 22.8769 134.965 22.8635ZM134.965 12.2857C133.956 12.2802 132.989 12.7099 132.297 13.4722C131.605 14.2344 131.249 15.2605 131.316 16.3052C131.263 17.36 131.628 18.3912 132.324 19.1609C133.022 19.9306 133.993 20.3722 135.01 20.3835C136.026 20.3923 136.998 19.9628 137.694 19.1979C138.392 18.4331 138.75 17.4021 138.683 16.3522C138.733 15.2944 138.364 14.2614 137.663 13.4917C136.961 12.722 135.987 12.2822 134.965 12.2739V12.2857Z" fill="#2B2D42"/>
<path d="M157.965 9.75042C160.607 9.75042 162.216 11.4898 162.216 14.5692V22.8669H159.439V15.439C159.439 13.4409 158.543 12.3713 156.979 12.3713C155.414 12.3713 154.394 13.4644 154.394 15.4977V22.8669H151.605V15.4154C151.605 13.4644 150.688 12.3713 149.156 12.3713C147.626 12.3713 146.561 13.5466 146.561 15.5212V22.8669H143.784V9.75042H146.561V11.9248C147.345 10.5836 148.744 9.76036 150.256 9.75042C151.778 9.6767 153.197 10.5504 153.861 11.9718C154.788 10.5703 156.326 9.73785 157.965 9.75042Z" fill="#2B2D42"/>
<path d="M113.485 20.2313V21.6769C113.49 21.7366 113.458 21.7932 113.405 21.8179L112.192 22.5466C112.145 22.5819 112.081 22.5819 112.033 22.5466L110.821 21.8414C110.772 21.8123 110.742 21.7587 110.741 21.7004V20.2313C110.744 20.1705 110.773 20.1142 110.821 20.0785L112.033 19.3498C112.084 19.3261 112.142 19.3261 112.192 19.3498L113.405 20.0785C113.456 20.1114 113.486 20.1694 113.485 20.2313Z" fill="#2B2D42"/>
<path d="M121.917 22.8526C120.245 22.841 118.649 22.1287 117.492 20.878C116.335 19.6273 115.715 17.9443 115.773 16.2122C115.779 14.4657 116.462 12.795 117.668 11.5767C118.876 10.3585 120.505 9.69514 122.189 9.73617C124.04 9.69663 125.809 10.5311 126.996 12.0045L125.318 13.8967C124.565 12.898 123.423 12.299 122.2 12.2631C121.218 12.2843 120.286 12.7151 119.613 13.4583C118.942 14.2017 118.587 15.1943 118.63 16.2122C118.548 17.2572 118.883 18.2913 119.556 19.0746C120.227 19.858 121.179 20.3227 122.189 20.361C123.407 20.3462 124.562 19.7949 125.363 18.8449L127.007 20.5961C125.75 22.1398 123.863 22.9765 121.917 22.8526Z" fill="#2B2D42"/>
<path fill-rule="evenodd" clip-rule="evenodd" d="M14.4557 0.953125L1.04199 8.54848V23.7399L14.4557 31.3362L27.8692 23.7399V8.54848L14.4557 0.953125Z" fill="#FEFEFE"/>
<path fill-rule="evenodd" clip-rule="evenodd" d="M14.4557 0.953125L1.04199 8.54848V23.7399L14.4557 31.3362L27.8692 23.7399V8.54848L14.4557 0.953125ZM9.15963 7.52055H19.7159L20.9886 12.7991H7.93492L9.15963 7.52055ZM12.2012 16.5446L11.0499 13.5965H17.8856L16.7586 16.5446L17.0858 19.8381L14.4557 19.8501H11.8498L12.2012 16.5446ZM15.559 23.3334V22.2876L17.9221 20.0644V16.5565L21.0129 14.5834L24.5399 17.187L19.7395 25.3905H17.8371L15.559 23.3334ZM4.37219 17.187L7.91048 14.6071L11.0377 16.5565V20.0644L13.4008 22.2876V23.3334L11.1229 25.4144H9.19545L4.37219 17.187Z" fill="#2B2D42"/>
<g style="mix-blend-mode:multiply">
<path fill-rule="evenodd" clip-rule="evenodd" d="M19.74 25.3905H17.8374L15.5595 23.3334V22.2876L17.9226 20.0644V16.5565L21.0133 14.5834L24.5405 17.187L19.74 25.3905ZM14.4561 0.953125V7.5207H19.7163L20.9891 12.7992H14.4561V13.5966H17.8861L16.7591 16.5446L17.0862 19.8382L14.4561 19.8501V31.3362L27.8697 23.7401V8.54848L14.4561 0.953125Z" fill="#2B2D42"/>
</g>
<g style="mix-blend-mode:multiply">
<path fill-rule="evenodd" clip-rule="evenodd" d="M13.401 23.3334L11.1229 25.4144H9.19545L4.37219 17.187L7.91062 14.6072L11.0379 16.5565V20.0644L13.401 22.2876V23.3334ZM11.8498 19.8501L12.2012 16.5446L11.0501 13.5966H14.4557V12.7992H7.93492L9.15978 7.5207H14.4557V0.953125L1.04199 8.54848V23.7401L14.4557 31.3362V19.8501H11.8498Z" fill="#2B2D42"/>
</g>
</g>
<defs>
<clipPath id="clip0_4288_418907">
<rect width="162.341" height="32" fill="white" transform="translate(0.158203)"/>
</clipPath>
</defs>
</svg>
