<svg width="141" height="32" viewBox="0 0 141 32" fill="none" xmlns="http://www.w3.org/2000/svg">
<g clip-path="url(#clip0_4288_418901)">
<path fill-rule="evenodd" clip-rule="evenodd" d="M2.75151 5.86688C1.68945 7.952 1.68945 10.6802 1.68945 16.1366C1.68945 21.593 1.68945 24.3212 2.75151 26.4064C3.68689 28.2382 5.17766 29.7289 7.00945 30.6643C9.09458 31.7264 11.8228 31.7264 17.2792 31.7264C22.7356 31.7264 25.4638 31.7264 27.549 30.6643C29.3808 29.7289 30.8715 28.2382 31.8069 26.4064C32.8689 24.3212 32.8689 21.593 32.8689 16.1366C32.8689 10.6802 32.8689 7.952 31.8069 5.86688C30.8715 4.03508 29.3808 2.54431 27.549 1.60893C25.4638 0.546875 22.7356 0.546875 17.2792 0.546875C11.8228 0.546875 9.09458 0.546875 7.00945 1.60893C5.17766 2.54431 3.68689 4.03508 2.75151 5.86688ZM25.0595 8.95557C25.3323 8.95557 25.5905 9.06765 25.7805 9.25768C25.9705 9.45256 26.0777 9.71561 26.0728 9.98351C26.0241 12.8871 25.9121 15.1087 25.7026 16.8674C25.4979 18.6261 25.191 19.9317 24.7282 20.989C24.4164 21.6953 24.0315 22.28 23.5784 22.7769C22.9695 23.4346 22.2728 23.912 21.5128 24.3651C21.1879 24.5594 20.8501 24.7513 20.4957 24.9525C19.7396 25.3819 18.9082 25.854 17.9661 26.4844C17.6251 26.7133 17.1818 26.7133 16.8408 26.4844C15.8842 25.8466 15.0419 25.3687 14.2789 24.9359C14.1092 24.8396 13.9435 24.7456 13.7813 24.6526C12.8898 24.1361 12.0859 23.6441 11.3844 22.9328C10.9167 22.4651 10.5123 21.8951 10.1908 21.2179C9.75231 20.3117 9.45513 19.2156 9.23591 17.7979C8.94359 15.9028 8.79744 13.423 8.74385 9.98351C8.73898 9.71561 8.84129 9.45256 9.03129 9.25768C9.22128 9.06765 9.48437 8.95557 9.75719 8.95557H10.1762C11.4672 8.9605 14.3171 8.83381 16.7823 6.91432C17.1477 6.63175 17.6593 6.63175 18.0246 6.91432C20.4898 8.83381 23.3398 8.9605 24.6357 8.95557H25.0595ZM22.7941 20.341C23.1107 19.6881 23.3739 18.7869 23.5736 17.491C23.8123 15.9417 23.9585 13.8371 24.0267 10.9726C22.5067 10.9287 19.8954 10.6364 17.4059 8.9605C14.9164 10.6315 12.3052 10.9238 10.79 10.9726C10.8436 13.3402 10.9507 15.1818 11.1212 16.6287C11.3161 18.2754 11.5939 19.391 11.9397 20.1753C12.1687 20.6966 12.4221 21.0718 12.7241 21.403C13.1285 21.8464 13.64 22.2118 14.3367 22.6307C14.6257 22.8041 14.9443 22.9845 15.2911 23.1808C15.909 23.5305 16.6165 23.9309 17.4059 24.4333C18.1808 23.9391 18.878 23.5428 19.4888 23.1957C19.6729 23.091 19.849 22.9909 20.0172 22.8938C20.8746 22.4017 21.508 21.9925 21.9805 21.5151C22.2972 21.1887 22.5554 20.8331 22.7941 20.341Z" fill="#3375BB"/>
<path d="M45.6233 13.1604H41.957V10.9999H51.9412V13.1604H48.2749V22.4572H45.6233V13.1604ZM54.9438 14.8136C55.2492 14.388 55.6584 14.0661 56.1713 13.8479C56.6951 13.6297 57.2952 13.5205 57.9717 13.5205V15.8774C57.688 15.8556 57.4971 15.8447 57.3989 15.8447C56.6678 15.8447 56.0949 16.0521 55.6803 16.4667C55.2656 16.8704 55.0583 17.4815 55.0583 18.2998V22.4572H52.505V13.6515H54.9438V14.8136ZM67.934 13.6515V22.4572H65.5116V21.4096C65.1733 21.7915 64.7697 22.0861 64.3004 22.2935C63.8312 22.4899 63.3238 22.5881 62.7783 22.5881C61.6216 22.5881 60.705 22.2553 60.0285 21.5897C59.352 20.924 59.0137 19.9366 59.0137 18.6272V13.6515H61.5671V18.2507C61.5671 19.6693 62.1617 20.3785 63.3511 20.3785C63.9622 20.3785 64.4532 20.1821 64.8242 19.7893C65.1952 19.3855 65.3807 18.7909 65.3807 18.0052V13.6515H67.934ZM72.771 22.5881C72.0399 22.5881 71.3252 22.5008 70.6268 22.3262C69.9285 22.1408 69.372 21.9116 68.9573 21.6388L69.8084 19.8056C70.2013 20.0566 70.6759 20.2639 71.2324 20.4276C71.7889 20.5803 72.3345 20.6567 72.8692 20.6567C73.9494 20.6567 74.4895 20.3894 74.4895 19.8547C74.4895 19.6038 74.3422 19.4238 74.0476 19.3146C73.753 19.2055 73.3002 19.1128 72.6891 19.0364C71.9689 18.9272 71.3743 18.8018 70.9051 18.6599C70.4359 18.518 70.0267 18.2671 69.6775 17.907C69.3393 17.5469 69.1701 17.0341 69.1701 16.3685C69.1701 15.812 69.3284 15.3209 69.6448 14.8954C69.9721 14.4589 70.4413 14.1207 71.0524 13.8806C71.6743 13.6405 72.4054 13.5205 73.2456 13.5205C73.8676 13.5205 74.4841 13.5914 75.0951 13.7333C75.7171 13.8642 76.23 14.0497 76.6337 14.2898L75.7826 16.1066C75.0079 15.6701 74.1622 15.4519 73.2456 15.4519C72.7001 15.4519 72.2909 15.5283 72.018 15.681C71.7453 15.8338 71.6089 16.0302 71.6089 16.2703C71.6089 16.5431 71.7562 16.734 72.0508 16.8431C72.3454 16.9523 72.8146 17.0559 73.4584 17.1541C74.1786 17.2741 74.7678 17.405 75.2261 17.5469C75.6844 17.6779 76.0827 17.9234 76.4209 18.2835C76.7592 18.6435 76.9283 19.1455 76.9283 19.7893C76.9283 20.3348 76.7646 20.8204 76.4373 21.246C76.1099 21.6715 75.6298 22.0043 74.9969 22.2444C74.375 22.4735 73.633 22.5881 72.771 22.5881ZM83.6922 22.0316C83.4413 22.2171 83.1303 22.359 82.7593 22.4572C82.3992 22.5444 82.0173 22.5881 81.6135 22.5881C80.566 22.5881 79.7531 22.3208 79.1748 21.7861C78.6073 21.2514 78.3237 20.4658 78.3237 19.4292V15.812H76.9652V13.8479H78.3237V11.7037H80.877V13.8479H83.0702V15.812H80.877V19.3964C80.877 19.7675 80.9698 20.0566 81.1552 20.2639C81.3516 20.4603 81.6245 20.5585 81.9736 20.5585C82.3774 20.5585 82.7211 20.4494 83.0048 20.2312L83.6922 22.0316ZM106.275 10.9999L102.527 22.4572H99.6791L97.1585 14.699L94.5561 22.4572H91.7245L87.96 10.9999H90.7097L93.2958 19.0527L95.9964 10.9999H98.4515L101.07 19.1182L103.738 10.9999H106.275ZM109.981 13.5205C111.345 13.5205 112.392 13.8479 113.124 14.5026C113.855 15.1463 114.22 16.123 114.22 17.4324V22.4572H111.831V21.3605C111.351 22.1789 110.456 22.5881 109.146 22.5881C108.47 22.5881 107.881 22.4735 107.379 22.2444C106.888 22.0152 106.511 21.6988 106.249 21.2951C105.987 20.8913 105.857 20.433 105.857 19.9202C105.857 19.1018 106.162 18.4581 106.773 17.9888C107.395 17.5196 108.35 17.285 109.637 17.285H111.667C111.667 16.7285 111.498 16.303 111.16 16.0084C110.821 15.7028 110.314 15.5501 109.637 15.5501C109.168 15.5501 108.704 15.6265 108.246 15.7792C107.799 15.9211 107.417 16.1175 107.1 16.3685L106.184 14.5844C106.664 14.2461 107.237 13.9842 107.902 13.7988C108.579 13.6133 109.272 13.5205 109.981 13.5205ZM109.785 20.8695C110.221 20.8695 110.608 20.7713 110.947 20.5749C111.285 20.3676 111.525 20.0675 111.667 19.6747V18.7745H109.916C108.868 18.7745 108.344 19.1182 108.344 19.8056C108.344 20.133 108.47 20.3949 108.721 20.5913C108.983 20.7767 109.338 20.8695 109.785 20.8695ZM116.041 10.3125H118.594V22.4572H116.041V10.3125ZM120.472 10.3125H123.025V22.4572H120.472V10.3125ZM133.53 18.087C133.53 18.1198 133.513 18.3489 133.48 18.7745H126.819C126.94 19.32 127.223 19.7511 127.67 20.0675C128.118 20.3839 128.674 20.5422 129.34 20.5422C129.798 20.5422 130.202 20.4767 130.551 20.3458C130.911 20.2039 131.244 19.9857 131.549 19.6911L132.908 21.1641C132.079 22.1134 130.868 22.5881 129.274 22.5881C128.282 22.5881 127.403 22.3971 126.639 22.0152C125.876 21.6224 125.286 21.0823 124.871 20.3949C124.457 19.7074 124.249 18.9272 124.249 18.0543C124.249 17.1923 124.452 16.4176 124.855 15.7301C125.27 15.0318 125.832 14.4916 126.541 14.1098C127.261 13.7169 128.063 13.5205 128.947 13.5205C129.809 13.5205 130.589 13.706 131.287 14.077C131.986 14.448 132.531 14.9827 132.924 15.681C133.328 16.3685 133.53 17.1705 133.53 18.087ZM128.963 15.4519C128.385 15.4519 127.899 15.6156 127.506 15.9429C127.114 16.2703 126.874 16.7176 126.786 17.285H131.124C131.037 16.7285 130.796 16.2866 130.403 15.9593C130.011 15.621 129.531 15.4519 128.963 15.4519ZM140.419 22.0316C140.167 22.2171 139.856 22.359 139.486 22.4572C139.126 22.5444 138.743 22.5881 138.34 22.5881C137.292 22.5881 136.479 22.3208 135.901 21.7861C135.333 21.2514 135.05 20.4658 135.05 19.4292V15.812H133.692V13.8479H135.05V11.7037H137.603V13.8479H139.797V15.812H137.603V19.3964C137.603 19.7675 137.696 20.0566 137.882 20.2639C138.078 20.4603 138.35 20.5585 138.7 20.5585C139.103 20.5585 139.447 20.4494 139.731 20.2312L140.419 22.0316Z" fill="#3375BB"/>
</g>
<defs>
<clipPath id="clip0_4288_418901">
<rect width="139.487" height="32" fill="white" transform="translate(0.642578)"/>
</clipPath>
</defs>
</svg>
