<svg width="19" height="18" viewBox="0 0 19 18" fill="none" xmlns="http://www.w3.org/2000/svg">
<path d="M17.0938 8.06316C16.6284 8.06448 16.2513 8.44153 16.25 8.90691V10.5944H15.6875V9.75066C15.6877 9.62981 15.6108 9.52214 15.4962 9.48347L9.93023 7.62436C9.79048 7.57558 9.64634 7.53977 9.5 7.51758V6.65691C9.5 6.50156 9.3741 6.37566 9.21875 6.37566H7.8125V4.74045C7.69846 4.70145 7.57849 4.68376 7.45819 4.68816C7.24132 4.68091 7.02764 4.74265 6.84834 4.86482C6.62202 4.99797 6.37867 5.10003 6.125 5.16804V6.37566H4.71875C4.5634 6.37566 4.4375 6.50156 4.4375 6.65691V7.50066C2.57356 7.50066 1.0625 9.01172 1.0625 10.8757C1.0625 12.7396 2.57356 14.2507 4.4375 14.2507H9.21875C9.4632 14.2507 9.70566 14.2089 9.93594 14.127L15.4962 12.2678C15.6108 12.2292 15.6877 12.1215 15.6875 12.0007V11.1569H16.25V12.8444C16.25 13.3103 16.6278 13.6882 17.0938 13.6882C17.5597 13.6882 17.9375 13.3103 17.9375 12.8444V8.90691C17.9362 8.44153 17.5591 8.06448 17.0938 8.06316ZM3.875 12.0007C3.25372 12.0007 2.75 11.4969 2.75 10.8757C2.75 10.2544 3.25372 9.75066 3.875 9.75066C4.49628 9.75066 5 10.2544 5 10.8757C5 11.4969 4.49628 12.0007 3.875 12.0007ZM7.25 12.0007C6.62872 12.0007 6.125 11.4969 6.125 10.8757C6.125 10.2544 6.62872 9.75066 7.25 9.75066C7.87128 9.75066 8.375 10.2544 8.375 10.8757C8.375 11.4969 7.87128 12.0007 7.25 12.0007ZM10.625 12.0007C10.0037 12.0007 9.5 11.4969 9.5 10.8757C9.5 10.2544 10.0037 9.75066 10.625 9.75066C11.2463 9.75066 11.75 10.2544 11.75 10.8757C11.75 11.4969 11.2463 12.0007 10.625 12.0007Z" fill="#ADCA5C"/>
<path d="M5.28125 4.6875H6.125V6.375H7.25C7.36832 6.37544 7.69495 6.36116 7.8125 6.375V4.40625C7.8125 3.62963 7.18287 3 6.40625 3H5.28125C5.1259 3 5 3.1259 5 3.28125V4.40625C5 4.5616 5.1259 4.6875 5.28125 4.6875Z" fill="#FF7676"/>
</svg>
