<svg width="21" height="20" viewBox="0 0 21 20" fill="none" xmlns="http://www.w3.org/2000/svg">
<path d="M14.9 6.8L16.94 4.08C17.0289 3.96109 17.083 3.81979 17.0963 3.6719C17.1095 3.524 17.0813 3.37535 17.0149 3.24254C16.9485 3.10973 16.8465 2.99801 16.7202 2.91986C16.594 2.84171 16.4485 2.80021 16.3 2.8H6.7C6.7 2.58783 6.61571 2.38434 6.46568 2.23431C6.31566 2.08429 6.11217 2 5.9 2C5.68783 2 5.48434 2.08429 5.33431 2.23431C5.18429 2.38434 5.1 2.58783 5.1 2.8V16.4H4.3C4.08783 16.4 3.88434 16.4843 3.73431 16.6343C3.58429 16.7843 3.5 16.9878 3.5 17.2C3.5 17.4122 3.58429 17.6157 3.73431 17.7657C3.88434 17.9157 4.08783 18 4.3 18H7.5C7.71217 18 7.91566 17.9157 8.06568 17.7657C8.21571 17.6157 8.3 17.4122 8.3 17.2C8.3 16.9878 8.21571 16.7843 8.06568 16.6343C7.91566 16.4843 7.71217 16.4 7.5 16.4H6.7V10.8H16.3C16.4485 10.7998 16.594 10.7583 16.7202 10.6801C16.8465 10.602 16.9485 10.4903 17.0149 10.3575C17.0813 10.2247 17.1095 10.076 17.0963 9.9281C17.083 9.78021 17.0289 9.63891 16.94 9.52L14.9 6.8Z" fill="#ADCA5C"/>
<g clip-path="url(#clip0_1412_49950)">
<path fill-rule="evenodd" clip-rule="evenodd" d="M6.71094 10.7998V2.7998H16.2998C16.4482 2.80001 16.5937 2.84151 16.72 2.91966C16.8462 2.99781 16.9483 3.10953 17.0147 3.24234C17.0811 3.37515 17.1092 3.52381 17.096 3.6717C17.0828 3.81959 17.0287 3.96089 16.9398 4.0798L14.8998 6.7998L16.9398 9.5198C17.0287 9.63872 17.0828 9.78001 17.096 9.92791C17.1092 10.0758 17.0811 10.2245 17.0147 10.3573C16.9483 10.4901 16.8462 10.6018 16.72 10.6799C16.5937 10.7581 16.4482 10.7996 16.2998 10.7998H6.71094Z" fill="#FF7676"/>
</g>
<defs>
<clipPath id="clip0_1412_49950">
<rect width="11" height="9" fill="white" transform="translate(6.5 2)"/>
</clipPath>
</defs>
</svg>
