<svg width="17" height="16" viewBox="0 0 17 16" fill="none" xmlns="http://www.w3.org/2000/svg">
<g clip-path="url(#clip0_1412_38573)">
<path d="M16.1725 0.00237299C13.0491 -0.053627 9.48715 1.57904 7.23249 4.1117C5.07782 4.15237 2.97983 5.0357 1.43516 6.58037C1.34516 6.66904 1.31316 6.8017 1.35249 6.9217C1.39249 7.04237 1.49649 7.1297 1.62183 7.1477L4.19116 7.5157L3.87382 7.87104C3.75582 8.00303 3.76182 8.2037 3.88716 8.32903L8.17182 12.6137C8.23648 12.6784 8.32182 12.711 8.40782 12.711C8.48715 12.711 8.56648 12.683 8.62982 12.6264L8.98515 12.309L9.35315 14.8784C9.37115 15.0037 9.46982 15.0957 9.58915 15.1357C9.61982 15.1457 9.65182 15.1504 9.68448 15.1504C9.77915 15.1504 9.87582 15.109 9.94248 15.043C11.4658 13.5197 12.3491 11.4217 12.3898 9.26703C14.9251 7.0077 16.5711 3.44704 16.4985 0.327706C16.4938 0.150373 16.3505 0.00703966 16.1725 0.00237299ZM13.1005 5.75704C12.7758 6.0817 12.3491 6.24437 11.9218 6.24437C11.4945 6.24437 11.0678 6.0817 10.7431 5.75704C10.0938 5.10704 10.0938 4.0497 10.7431 3.3997C11.3931 2.7497 12.4505 2.7497 13.1005 3.3997C13.7505 4.0497 13.7505 5.1077 13.1005 5.75704Z" fill="#D6E892"/>
<path d="M2.31604 11.2702C1.60271 11.9836 0.623372 15.2062 0.514038 15.5709C0.478705 15.6882 0.511372 15.8156 0.597372 15.9022C0.661372 15.9662 0.746038 16.0002 0.833372 16.0002C0.865372 16.0002 0.897372 15.9956 0.929372 15.9862C1.29404 15.8769 4.51671 14.8976 5.23004 14.1842C6.03337 13.3809 6.03337 12.0736 5.23004 11.2702C4.42604 10.4669 3.11937 10.4676 2.31604 11.2702Z" fill="#FF7676"/>
</g>
<defs>
<clipPath id="clip0_1412_38573">
<rect width="16" height="16" fill="white" transform="translate(0.5)"/>
</clipPath>
</defs>
</svg>
